G04 EAGLE Gerber RS-274X export*
G75*
%MOMM*%
%FSLAX34Y34*%
%LPD*%
%INBottom Copper*%
%IPPOS*%
%AMOC8*
5,1,8,0,0,1.08239X$1,22.5*%
G01*
%ADD10R,1.879600X1.879600*%
%ADD11C,1.879600*%
%ADD12C,1.006400*%
%ADD13C,0.304800*%

G36*
X571780Y10926D02*
X571780Y10926D01*
X571806Y10924D01*
X571953Y10946D01*
X572100Y10963D01*
X572125Y10971D01*
X572151Y10975D01*
X572289Y11030D01*
X572428Y11080D01*
X572450Y11094D01*
X572475Y11104D01*
X572596Y11189D01*
X572721Y11269D01*
X572739Y11288D01*
X572761Y11303D01*
X572860Y11413D01*
X572963Y11520D01*
X572977Y11542D01*
X572994Y11562D01*
X573066Y11692D01*
X573142Y11819D01*
X573150Y11844D01*
X573163Y11867D01*
X573203Y12010D01*
X573248Y12151D01*
X573250Y12177D01*
X573258Y12202D01*
X573277Y12446D01*
X573277Y558800D01*
X573274Y558826D01*
X573276Y558852D01*
X573254Y558999D01*
X573237Y559146D01*
X573229Y559171D01*
X573225Y559197D01*
X573170Y559335D01*
X573120Y559474D01*
X573106Y559496D01*
X573096Y559521D01*
X573011Y559642D01*
X572931Y559767D01*
X572912Y559785D01*
X572897Y559807D01*
X572787Y559906D01*
X572680Y560009D01*
X572658Y560023D01*
X572638Y560040D01*
X572508Y560112D01*
X572381Y560188D01*
X572356Y560196D01*
X572333Y560209D01*
X572190Y560249D01*
X572049Y560294D01*
X572023Y560296D01*
X571998Y560304D01*
X571754Y560323D01*
X12446Y560323D01*
X12420Y560320D01*
X12394Y560322D01*
X12247Y560300D01*
X12100Y560283D01*
X12075Y560275D01*
X12049Y560271D01*
X11911Y560216D01*
X11772Y560166D01*
X11750Y560152D01*
X11725Y560142D01*
X11604Y560057D01*
X11479Y559977D01*
X11461Y559958D01*
X11439Y559943D01*
X11340Y559833D01*
X11237Y559726D01*
X11223Y559704D01*
X11206Y559684D01*
X11134Y559554D01*
X11058Y559427D01*
X11050Y559402D01*
X11037Y559379D01*
X10997Y559236D01*
X10952Y559095D01*
X10950Y559069D01*
X10942Y559044D01*
X10923Y558800D01*
X10923Y12446D01*
X10926Y12420D01*
X10924Y12394D01*
X10946Y12247D01*
X10963Y12100D01*
X10971Y12075D01*
X10975Y12049D01*
X11030Y11911D01*
X11080Y11772D01*
X11094Y11750D01*
X11104Y11725D01*
X11189Y11604D01*
X11269Y11479D01*
X11288Y11461D01*
X11303Y11439D01*
X11413Y11340D01*
X11520Y11237D01*
X11542Y11223D01*
X11562Y11206D01*
X11692Y11134D01*
X11819Y11058D01*
X11844Y11050D01*
X11867Y11037D01*
X12010Y10997D01*
X12151Y10952D01*
X12177Y10950D01*
X12202Y10942D01*
X12446Y10923D01*
X571754Y10923D01*
X571780Y10926D01*
G37*
%LPC*%
G36*
X73522Y215137D02*
X73522Y215137D01*
X68574Y217187D01*
X64787Y220974D01*
X62737Y225922D01*
X62737Y231278D01*
X64787Y236226D01*
X68784Y240223D01*
X68800Y240243D01*
X68820Y240260D01*
X68908Y240380D01*
X69000Y240496D01*
X69012Y240520D01*
X69027Y240541D01*
X69086Y240677D01*
X69149Y240811D01*
X69155Y240837D01*
X69165Y240861D01*
X69191Y241007D01*
X69223Y241152D01*
X69222Y241178D01*
X69227Y241204D01*
X69219Y241352D01*
X69217Y241500D01*
X69210Y241526D01*
X69209Y241552D01*
X69168Y241694D01*
X69132Y241838D01*
X69120Y241861D01*
X69112Y241887D01*
X69040Y242016D01*
X68972Y242148D01*
X68955Y242168D01*
X68942Y242191D01*
X68784Y242377D01*
X64787Y246374D01*
X62737Y251322D01*
X62737Y256678D01*
X64787Y261626D01*
X68784Y265623D01*
X68800Y265643D01*
X68820Y265660D01*
X68908Y265780D01*
X69000Y265896D01*
X69012Y265920D01*
X69027Y265941D01*
X69086Y266077D01*
X69149Y266211D01*
X69155Y266237D01*
X69165Y266261D01*
X69191Y266407D01*
X69223Y266552D01*
X69222Y266578D01*
X69227Y266604D01*
X69219Y266752D01*
X69217Y266900D01*
X69210Y266926D01*
X69209Y266952D01*
X69168Y267094D01*
X69132Y267238D01*
X69120Y267261D01*
X69112Y267287D01*
X69040Y267416D01*
X68972Y267548D01*
X68955Y267568D01*
X68942Y267591D01*
X68784Y267777D01*
X64787Y271774D01*
X62737Y276722D01*
X62737Y282078D01*
X64787Y287026D01*
X68784Y291023D01*
X68800Y291043D01*
X68820Y291060D01*
X68908Y291180D01*
X69000Y291296D01*
X69012Y291320D01*
X69027Y291341D01*
X69086Y291477D01*
X69149Y291611D01*
X69155Y291637D01*
X69165Y291661D01*
X69191Y291807D01*
X69223Y291952D01*
X69222Y291978D01*
X69227Y292004D01*
X69219Y292152D01*
X69217Y292300D01*
X69210Y292326D01*
X69209Y292352D01*
X69168Y292494D01*
X69132Y292638D01*
X69120Y292661D01*
X69112Y292687D01*
X69040Y292816D01*
X68972Y292948D01*
X68955Y292968D01*
X68942Y292991D01*
X68784Y293177D01*
X64787Y297174D01*
X62737Y302122D01*
X62737Y307478D01*
X64787Y312426D01*
X68784Y316423D01*
X68800Y316443D01*
X68820Y316460D01*
X68908Y316580D01*
X69000Y316696D01*
X69012Y316720D01*
X69027Y316741D01*
X69086Y316877D01*
X69149Y317011D01*
X69155Y317037D01*
X69165Y317061D01*
X69191Y317207D01*
X69223Y317352D01*
X69222Y317378D01*
X69227Y317404D01*
X69219Y317552D01*
X69217Y317700D01*
X69210Y317726D01*
X69209Y317752D01*
X69168Y317894D01*
X69132Y318038D01*
X69120Y318061D01*
X69112Y318087D01*
X69040Y318216D01*
X68972Y318348D01*
X68955Y318368D01*
X68942Y318391D01*
X68784Y318577D01*
X64787Y322574D01*
X62737Y327522D01*
X62737Y332878D01*
X64787Y337826D01*
X68784Y341823D01*
X68800Y341843D01*
X68820Y341860D01*
X68908Y341980D01*
X69000Y342096D01*
X69012Y342120D01*
X69027Y342141D01*
X69086Y342277D01*
X69149Y342411D01*
X69155Y342437D01*
X69165Y342461D01*
X69191Y342607D01*
X69223Y342752D01*
X69222Y342778D01*
X69227Y342804D01*
X69219Y342952D01*
X69217Y343100D01*
X69210Y343126D01*
X69209Y343152D01*
X69168Y343294D01*
X69132Y343438D01*
X69120Y343461D01*
X69112Y343487D01*
X69040Y343616D01*
X68972Y343748D01*
X68955Y343768D01*
X68942Y343791D01*
X68784Y343977D01*
X64787Y347974D01*
X62737Y352922D01*
X62737Y358278D01*
X64787Y363226D01*
X68784Y367223D01*
X68800Y367243D01*
X68820Y367260D01*
X68908Y367380D01*
X69000Y367496D01*
X69012Y367520D01*
X69027Y367541D01*
X69086Y367677D01*
X69149Y367811D01*
X69155Y367837D01*
X69165Y367861D01*
X69191Y368007D01*
X69223Y368152D01*
X69222Y368178D01*
X69227Y368204D01*
X69219Y368352D01*
X69217Y368500D01*
X69210Y368526D01*
X69209Y368552D01*
X69168Y368694D01*
X69132Y368838D01*
X69120Y368861D01*
X69112Y368887D01*
X69040Y369016D01*
X68972Y369148D01*
X68955Y369168D01*
X68942Y369191D01*
X68784Y369377D01*
X64787Y373374D01*
X62737Y378322D01*
X62737Y383678D01*
X64787Y388626D01*
X68784Y392623D01*
X68800Y392643D01*
X68820Y392660D01*
X68908Y392780D01*
X69000Y392896D01*
X69012Y392920D01*
X69027Y392941D01*
X69086Y393077D01*
X69149Y393211D01*
X69155Y393237D01*
X69165Y393261D01*
X69191Y393407D01*
X69223Y393552D01*
X69222Y393578D01*
X69227Y393604D01*
X69219Y393752D01*
X69217Y393900D01*
X69210Y393926D01*
X69209Y393952D01*
X69168Y394094D01*
X69132Y394238D01*
X69120Y394261D01*
X69112Y394287D01*
X69040Y394416D01*
X68972Y394548D01*
X68955Y394568D01*
X68942Y394591D01*
X68784Y394777D01*
X64787Y398774D01*
X62737Y403722D01*
X62737Y409078D01*
X64787Y414026D01*
X68784Y418023D01*
X68800Y418043D01*
X68820Y418060D01*
X68908Y418180D01*
X69000Y418296D01*
X69012Y418320D01*
X69027Y418341D01*
X69086Y418477D01*
X69149Y418611D01*
X69155Y418637D01*
X69165Y418661D01*
X69191Y418807D01*
X69223Y418952D01*
X69222Y418978D01*
X69227Y419004D01*
X69219Y419152D01*
X69217Y419300D01*
X69210Y419326D01*
X69209Y419352D01*
X69168Y419494D01*
X69132Y419638D01*
X69120Y419661D01*
X69112Y419687D01*
X69040Y419816D01*
X68972Y419948D01*
X68955Y419968D01*
X68942Y419991D01*
X68784Y420177D01*
X64787Y424174D01*
X62737Y429122D01*
X62737Y434478D01*
X64787Y439426D01*
X66498Y441137D01*
X66560Y441215D01*
X66630Y441288D01*
X66668Y441352D01*
X66714Y441410D01*
X66757Y441501D01*
X66809Y441587D01*
X66831Y441658D01*
X66863Y441725D01*
X66884Y441823D01*
X66915Y441919D01*
X66921Y441993D01*
X66937Y442066D01*
X66935Y442166D01*
X66943Y442266D01*
X66932Y442340D01*
X66931Y442414D01*
X66906Y442511D01*
X66891Y442611D01*
X66864Y442680D01*
X66846Y442752D01*
X66800Y442841D01*
X66763Y442935D01*
X66720Y442996D01*
X66686Y443062D01*
X66621Y443138D01*
X66564Y443221D01*
X66508Y443271D01*
X66460Y443327D01*
X66379Y443387D01*
X66305Y443454D01*
X66240Y443490D01*
X66180Y443535D01*
X66088Y443574D01*
X66000Y443623D01*
X65928Y443643D01*
X65860Y443673D01*
X65761Y443690D01*
X65664Y443718D01*
X65564Y443726D01*
X65517Y443734D01*
X65481Y443732D01*
X65421Y443737D01*
X65118Y443737D01*
X62737Y446118D01*
X62737Y468282D01*
X65118Y470663D01*
X69975Y470663D01*
X70051Y470671D01*
X70127Y470670D01*
X70223Y470691D01*
X70321Y470703D01*
X70393Y470728D01*
X70468Y470745D01*
X70557Y470787D01*
X70649Y470820D01*
X70714Y470862D01*
X70783Y470894D01*
X70859Y470956D01*
X70942Y471009D01*
X70995Y471064D01*
X71055Y471112D01*
X71116Y471189D01*
X71184Y471260D01*
X71224Y471325D01*
X71271Y471385D01*
X71339Y471518D01*
X71363Y471559D01*
X71369Y471577D01*
X71382Y471603D01*
X71462Y471796D01*
X78114Y478448D01*
X80168Y479299D01*
X167140Y479299D01*
X167142Y479299D01*
X167145Y479299D01*
X167156Y479300D01*
X168540Y479299D01*
X168541Y479299D01*
X168542Y479299D01*
X169665Y479299D01*
X170688Y478874D01*
X170689Y478873D01*
X171719Y478447D01*
X172508Y477656D01*
X172509Y477655D01*
X173492Y476672D01*
X173503Y476659D01*
X229487Y420565D01*
X229587Y420486D01*
X229681Y420400D01*
X229723Y420378D01*
X229760Y420348D01*
X229875Y420293D01*
X229986Y420232D01*
X230032Y420219D01*
X230075Y420199D01*
X230199Y420172D01*
X230322Y420137D01*
X230381Y420132D01*
X230416Y420125D01*
X230464Y420126D01*
X230565Y420118D01*
X232926Y420118D01*
X236269Y418733D01*
X238828Y416174D01*
X240213Y412830D01*
X240213Y409211D01*
X238828Y405868D01*
X236269Y403309D01*
X232926Y401924D01*
X229307Y401924D01*
X225964Y403309D01*
X223405Y405868D01*
X222020Y409211D01*
X222020Y411594D01*
X222005Y411719D01*
X221999Y411844D01*
X221986Y411891D01*
X221980Y411940D01*
X221938Y412059D01*
X221903Y412179D01*
X221879Y412222D01*
X221862Y412268D01*
X221794Y412374D01*
X221733Y412484D01*
X221693Y412531D01*
X221673Y412561D01*
X221639Y412594D01*
X221575Y412670D01*
X166679Y467674D01*
X166579Y467753D01*
X166485Y467838D01*
X166443Y467861D01*
X166406Y467891D01*
X166291Y467945D01*
X166180Y468007D01*
X166134Y468020D01*
X166091Y468040D01*
X165967Y468067D01*
X165844Y468102D01*
X165785Y468106D01*
X165750Y468114D01*
X165702Y468113D01*
X165601Y468121D01*
X113395Y468121D01*
X113296Y468110D01*
X113195Y468108D01*
X113123Y468090D01*
X113049Y468081D01*
X112954Y468047D01*
X112857Y468023D01*
X112791Y467989D01*
X112721Y467964D01*
X112637Y467909D01*
X112547Y467863D01*
X112491Y467815D01*
X112428Y467775D01*
X112358Y467703D01*
X112282Y467638D01*
X112238Y467578D01*
X112186Y467524D01*
X112134Y467438D01*
X112075Y467357D01*
X112045Y467289D01*
X112007Y467225D01*
X111977Y467130D01*
X111937Y467037D01*
X111924Y466964D01*
X111901Y466893D01*
X111893Y466793D01*
X111875Y466694D01*
X111879Y466620D01*
X111873Y466546D01*
X111888Y466446D01*
X111893Y466346D01*
X111914Y466275D01*
X111925Y466201D01*
X111962Y466108D01*
X111990Y466011D01*
X112026Y465946D01*
X112053Y465877D01*
X112111Y465795D01*
X112160Y465707D01*
X112225Y465631D01*
X112252Y465591D01*
X112279Y465567D01*
X112318Y465521D01*
X113013Y464826D01*
X115063Y459878D01*
X115063Y454522D01*
X113013Y449574D01*
X109016Y445577D01*
X109000Y445557D01*
X108980Y445540D01*
X108892Y445420D01*
X108800Y445304D01*
X108788Y445280D01*
X108773Y445259D01*
X108714Y445123D01*
X108651Y444989D01*
X108645Y444963D01*
X108635Y444939D01*
X108609Y444793D01*
X108577Y444648D01*
X108578Y444622D01*
X108573Y444596D01*
X108581Y444448D01*
X108583Y444300D01*
X108590Y444274D01*
X108591Y444248D01*
X108632Y444106D01*
X108668Y443962D01*
X108680Y443939D01*
X108688Y443913D01*
X108760Y443784D01*
X108828Y443652D01*
X108845Y443632D01*
X108858Y443609D01*
X109016Y443423D01*
X113013Y439426D01*
X115063Y434478D01*
X115063Y429122D01*
X113013Y424174D01*
X109016Y420177D01*
X109000Y420157D01*
X108980Y420140D01*
X108892Y420020D01*
X108800Y419904D01*
X108788Y419880D01*
X108773Y419859D01*
X108714Y419723D01*
X108651Y419589D01*
X108645Y419563D01*
X108635Y419539D01*
X108609Y419393D01*
X108577Y419248D01*
X108578Y419222D01*
X108573Y419196D01*
X108581Y419048D01*
X108583Y418900D01*
X108590Y418874D01*
X108591Y418848D01*
X108632Y418706D01*
X108668Y418562D01*
X108680Y418539D01*
X108688Y418513D01*
X108760Y418384D01*
X108828Y418252D01*
X108845Y418232D01*
X108858Y418209D01*
X109016Y418023D01*
X113013Y414026D01*
X115063Y409078D01*
X115063Y403722D01*
X113013Y398774D01*
X109016Y394777D01*
X109000Y394757D01*
X108980Y394740D01*
X108892Y394620D01*
X108800Y394504D01*
X108788Y394480D01*
X108773Y394459D01*
X108714Y394323D01*
X108651Y394189D01*
X108645Y394163D01*
X108635Y394139D01*
X108609Y393993D01*
X108577Y393848D01*
X108578Y393822D01*
X108573Y393796D01*
X108581Y393648D01*
X108583Y393500D01*
X108590Y393474D01*
X108591Y393448D01*
X108632Y393306D01*
X108668Y393162D01*
X108680Y393139D01*
X108688Y393113D01*
X108760Y392984D01*
X108828Y392852D01*
X108845Y392832D01*
X108858Y392809D01*
X109016Y392623D01*
X113013Y388626D01*
X115063Y383678D01*
X115063Y378322D01*
X113013Y373374D01*
X109016Y369377D01*
X109000Y369357D01*
X108980Y369340D01*
X108892Y369220D01*
X108800Y369104D01*
X108788Y369080D01*
X108773Y369059D01*
X108714Y368923D01*
X108651Y368789D01*
X108645Y368763D01*
X108635Y368739D01*
X108609Y368593D01*
X108577Y368448D01*
X108578Y368422D01*
X108573Y368396D01*
X108581Y368248D01*
X108583Y368100D01*
X108590Y368074D01*
X108591Y368048D01*
X108632Y367906D01*
X108668Y367762D01*
X108680Y367739D01*
X108688Y367713D01*
X108760Y367584D01*
X108828Y367452D01*
X108845Y367432D01*
X108858Y367409D01*
X109016Y367223D01*
X113013Y363226D01*
X115063Y358278D01*
X115063Y352922D01*
X113013Y347974D01*
X109016Y343977D01*
X109000Y343957D01*
X108980Y343940D01*
X108892Y343820D01*
X108800Y343704D01*
X108788Y343680D01*
X108773Y343659D01*
X108714Y343523D01*
X108651Y343389D01*
X108645Y343363D01*
X108635Y343339D01*
X108609Y343193D01*
X108577Y343048D01*
X108578Y343022D01*
X108573Y342996D01*
X108581Y342848D01*
X108583Y342700D01*
X108590Y342674D01*
X108591Y342648D01*
X108632Y342506D01*
X108668Y342362D01*
X108680Y342339D01*
X108688Y342313D01*
X108760Y342184D01*
X108828Y342052D01*
X108845Y342032D01*
X108858Y342009D01*
X109016Y341823D01*
X113013Y337826D01*
X115063Y332878D01*
X115063Y327522D01*
X113013Y322574D01*
X109016Y318577D01*
X109000Y318557D01*
X108980Y318540D01*
X108892Y318420D01*
X108800Y318304D01*
X108788Y318280D01*
X108773Y318259D01*
X108714Y318123D01*
X108651Y317989D01*
X108645Y317963D01*
X108635Y317939D01*
X108609Y317793D01*
X108577Y317648D01*
X108578Y317622D01*
X108573Y317596D01*
X108581Y317448D01*
X108583Y317300D01*
X108590Y317274D01*
X108591Y317248D01*
X108632Y317106D01*
X108668Y316962D01*
X108680Y316939D01*
X108688Y316913D01*
X108760Y316784D01*
X108828Y316652D01*
X108845Y316632D01*
X108858Y316609D01*
X109016Y316423D01*
X113013Y312426D01*
X115063Y307478D01*
X115063Y302122D01*
X113013Y297174D01*
X109016Y293177D01*
X109000Y293157D01*
X108980Y293140D01*
X108892Y293020D01*
X108800Y292904D01*
X108788Y292880D01*
X108773Y292859D01*
X108714Y292723D01*
X108651Y292589D01*
X108645Y292563D01*
X108635Y292539D01*
X108609Y292393D01*
X108577Y292248D01*
X108578Y292222D01*
X108573Y292196D01*
X108581Y292048D01*
X108583Y291900D01*
X108590Y291874D01*
X108591Y291848D01*
X108632Y291706D01*
X108668Y291562D01*
X108680Y291539D01*
X108688Y291513D01*
X108760Y291384D01*
X108828Y291252D01*
X108845Y291232D01*
X108858Y291209D01*
X109016Y291023D01*
X113013Y287026D01*
X115063Y282078D01*
X115063Y276722D01*
X113013Y271774D01*
X109016Y267777D01*
X109000Y267757D01*
X108980Y267740D01*
X108892Y267620D01*
X108800Y267504D01*
X108788Y267480D01*
X108773Y267459D01*
X108714Y267323D01*
X108651Y267189D01*
X108645Y267163D01*
X108635Y267139D01*
X108609Y266993D01*
X108577Y266848D01*
X108578Y266822D01*
X108573Y266796D01*
X108581Y266648D01*
X108583Y266500D01*
X108590Y266474D01*
X108591Y266448D01*
X108632Y266306D01*
X108668Y266162D01*
X108680Y266139D01*
X108688Y266113D01*
X108760Y265984D01*
X108828Y265852D01*
X108845Y265832D01*
X108858Y265809D01*
X109016Y265623D01*
X113013Y261626D01*
X115063Y256678D01*
X115063Y251322D01*
X113013Y246374D01*
X109016Y242377D01*
X109000Y242357D01*
X108980Y242340D01*
X108892Y242220D01*
X108800Y242104D01*
X108788Y242080D01*
X108773Y242059D01*
X108714Y241923D01*
X108651Y241789D01*
X108645Y241763D01*
X108635Y241739D01*
X108609Y241593D01*
X108577Y241448D01*
X108578Y241422D01*
X108573Y241396D01*
X108581Y241248D01*
X108583Y241100D01*
X108590Y241074D01*
X108591Y241048D01*
X108632Y240906D01*
X108668Y240762D01*
X108680Y240739D01*
X108688Y240713D01*
X108760Y240584D01*
X108828Y240452D01*
X108845Y240432D01*
X108858Y240409D01*
X109016Y240223D01*
X113013Y236226D01*
X115063Y231278D01*
X115063Y225922D01*
X113013Y220974D01*
X109226Y217187D01*
X104278Y215137D01*
X98922Y215137D01*
X93974Y217187D01*
X89977Y221184D01*
X89957Y221200D01*
X89940Y221220D01*
X89820Y221308D01*
X89704Y221400D01*
X89680Y221412D01*
X89659Y221427D01*
X89523Y221486D01*
X89389Y221549D01*
X89363Y221555D01*
X89339Y221565D01*
X89193Y221591D01*
X89048Y221623D01*
X89022Y221622D01*
X88996Y221627D01*
X88848Y221619D01*
X88700Y221617D01*
X88674Y221610D01*
X88648Y221609D01*
X88506Y221568D01*
X88362Y221532D01*
X88339Y221520D01*
X88313Y221512D01*
X88184Y221440D01*
X88052Y221372D01*
X88032Y221355D01*
X88009Y221342D01*
X87823Y221184D01*
X83826Y217187D01*
X78878Y215137D01*
X73522Y215137D01*
G37*
%LPD*%
%LPC*%
G36*
X505322Y215137D02*
X505322Y215137D01*
X500374Y217187D01*
X496587Y220974D01*
X494537Y225922D01*
X494537Y231278D01*
X496587Y236226D01*
X500584Y240223D01*
X500600Y240243D01*
X500620Y240260D01*
X500708Y240380D01*
X500800Y240496D01*
X500812Y240520D01*
X500827Y240541D01*
X500886Y240677D01*
X500949Y240811D01*
X500955Y240837D01*
X500965Y240861D01*
X500991Y241007D01*
X501023Y241152D01*
X501022Y241178D01*
X501027Y241204D01*
X501019Y241352D01*
X501017Y241500D01*
X501010Y241526D01*
X501009Y241552D01*
X500968Y241694D01*
X500932Y241838D01*
X500920Y241861D01*
X500912Y241887D01*
X500840Y242016D01*
X500772Y242148D01*
X500755Y242168D01*
X500742Y242191D01*
X500584Y242377D01*
X496587Y246374D01*
X494537Y251322D01*
X494537Y256678D01*
X496587Y261626D01*
X500584Y265623D01*
X500600Y265643D01*
X500620Y265660D01*
X500708Y265780D01*
X500800Y265896D01*
X500812Y265920D01*
X500827Y265941D01*
X500886Y266077D01*
X500949Y266211D01*
X500955Y266237D01*
X500965Y266261D01*
X500991Y266407D01*
X501023Y266552D01*
X501022Y266578D01*
X501027Y266604D01*
X501019Y266752D01*
X501017Y266900D01*
X501010Y266926D01*
X501009Y266952D01*
X500968Y267094D01*
X500932Y267238D01*
X500920Y267261D01*
X500912Y267287D01*
X500840Y267416D01*
X500772Y267548D01*
X500755Y267568D01*
X500742Y267591D01*
X500584Y267777D01*
X496587Y271774D01*
X494537Y276722D01*
X494537Y282078D01*
X496587Y287026D01*
X500584Y291023D01*
X500600Y291043D01*
X500620Y291060D01*
X500708Y291180D01*
X500800Y291296D01*
X500812Y291320D01*
X500827Y291341D01*
X500886Y291477D01*
X500949Y291611D01*
X500955Y291637D01*
X500965Y291661D01*
X500991Y291807D01*
X501023Y291952D01*
X501022Y291978D01*
X501027Y292004D01*
X501019Y292152D01*
X501017Y292300D01*
X501010Y292326D01*
X501009Y292352D01*
X500968Y292494D01*
X500932Y292638D01*
X500920Y292661D01*
X500912Y292687D01*
X500840Y292816D01*
X500772Y292948D01*
X500755Y292968D01*
X500742Y292991D01*
X500584Y293177D01*
X496587Y297174D01*
X494537Y302122D01*
X494537Y307478D01*
X496587Y312426D01*
X500584Y316423D01*
X500600Y316443D01*
X500620Y316460D01*
X500708Y316580D01*
X500800Y316696D01*
X500812Y316720D01*
X500827Y316741D01*
X500886Y316877D01*
X500949Y317011D01*
X500955Y317037D01*
X500965Y317061D01*
X500991Y317207D01*
X501023Y317352D01*
X501022Y317378D01*
X501027Y317404D01*
X501019Y317552D01*
X501017Y317700D01*
X501010Y317726D01*
X501009Y317752D01*
X500968Y317894D01*
X500932Y318038D01*
X500920Y318061D01*
X500912Y318087D01*
X500840Y318216D01*
X500772Y318348D01*
X500755Y318368D01*
X500742Y318391D01*
X500584Y318577D01*
X496587Y322574D01*
X494537Y327522D01*
X494537Y332878D01*
X496587Y337826D01*
X500584Y341823D01*
X500600Y341843D01*
X500620Y341860D01*
X500708Y341980D01*
X500800Y342096D01*
X500812Y342120D01*
X500827Y342141D01*
X500886Y342277D01*
X500949Y342411D01*
X500955Y342437D01*
X500965Y342461D01*
X500991Y342607D01*
X501023Y342752D01*
X501022Y342778D01*
X501027Y342804D01*
X501019Y342952D01*
X501017Y343100D01*
X501010Y343126D01*
X501009Y343152D01*
X500968Y343294D01*
X500932Y343438D01*
X500920Y343461D01*
X500912Y343487D01*
X500840Y343616D01*
X500772Y343748D01*
X500755Y343768D01*
X500742Y343791D01*
X500584Y343977D01*
X496587Y347974D01*
X494537Y352922D01*
X494537Y358278D01*
X496587Y363226D01*
X500584Y367223D01*
X500600Y367243D01*
X500620Y367260D01*
X500708Y367380D01*
X500800Y367496D01*
X500812Y367520D01*
X500827Y367541D01*
X500886Y367677D01*
X500949Y367811D01*
X500955Y367837D01*
X500965Y367861D01*
X500991Y368007D01*
X501023Y368152D01*
X501022Y368178D01*
X501027Y368204D01*
X501019Y368352D01*
X501017Y368500D01*
X501010Y368526D01*
X501009Y368552D01*
X500968Y368694D01*
X500932Y368838D01*
X500920Y368861D01*
X500912Y368887D01*
X500840Y369016D01*
X500772Y369148D01*
X500755Y369168D01*
X500742Y369191D01*
X500584Y369377D01*
X496587Y373374D01*
X494537Y378322D01*
X494537Y383678D01*
X496587Y388626D01*
X500584Y392623D01*
X500600Y392643D01*
X500620Y392660D01*
X500708Y392780D01*
X500800Y392896D01*
X500812Y392920D01*
X500827Y392941D01*
X500886Y393077D01*
X500949Y393211D01*
X500955Y393237D01*
X500965Y393261D01*
X500991Y393407D01*
X501023Y393552D01*
X501022Y393578D01*
X501027Y393604D01*
X501019Y393752D01*
X501017Y393900D01*
X501010Y393926D01*
X501009Y393952D01*
X500968Y394094D01*
X500932Y394238D01*
X500920Y394261D01*
X500912Y394287D01*
X500840Y394416D01*
X500772Y394548D01*
X500755Y394568D01*
X500742Y394591D01*
X500584Y394777D01*
X496587Y398774D01*
X494537Y403722D01*
X494537Y409078D01*
X496587Y414026D01*
X500584Y418023D01*
X500600Y418043D01*
X500620Y418060D01*
X500708Y418180D01*
X500800Y418296D01*
X500812Y418320D01*
X500827Y418341D01*
X500886Y418477D01*
X500949Y418611D01*
X500955Y418637D01*
X500965Y418661D01*
X500991Y418807D01*
X501023Y418952D01*
X501022Y418978D01*
X501027Y419004D01*
X501019Y419152D01*
X501017Y419300D01*
X501010Y419326D01*
X501009Y419352D01*
X500968Y419494D01*
X500932Y419638D01*
X500920Y419661D01*
X500912Y419687D01*
X500840Y419816D01*
X500772Y419948D01*
X500755Y419968D01*
X500742Y419991D01*
X500584Y420177D01*
X496587Y424174D01*
X494537Y429122D01*
X494537Y434478D01*
X496587Y439426D01*
X500584Y443423D01*
X500600Y443443D01*
X500620Y443460D01*
X500708Y443580D01*
X500800Y443696D01*
X500812Y443720D01*
X500827Y443741D01*
X500886Y443877D01*
X500949Y444011D01*
X500955Y444037D01*
X500965Y444061D01*
X500991Y444207D01*
X501023Y444352D01*
X501022Y444378D01*
X501027Y444404D01*
X501019Y444552D01*
X501017Y444700D01*
X501010Y444726D01*
X501009Y444752D01*
X500968Y444894D01*
X500932Y445038D01*
X500920Y445061D01*
X500912Y445087D01*
X500840Y445216D01*
X500772Y445348D01*
X500755Y445368D01*
X500742Y445391D01*
X500584Y445577D01*
X496587Y449574D01*
X494537Y454522D01*
X494537Y459878D01*
X496587Y464826D01*
X500374Y468613D01*
X505322Y470663D01*
X510678Y470663D01*
X515626Y468613D01*
X519623Y464616D01*
X519643Y464600D01*
X519660Y464580D01*
X519780Y464492D01*
X519896Y464400D01*
X519920Y464388D01*
X519941Y464373D01*
X520077Y464314D01*
X520211Y464251D01*
X520237Y464245D01*
X520261Y464235D01*
X520407Y464209D01*
X520552Y464177D01*
X520578Y464178D01*
X520604Y464173D01*
X520752Y464181D01*
X520900Y464183D01*
X520926Y464190D01*
X520952Y464191D01*
X521094Y464232D01*
X521238Y464268D01*
X521261Y464280D01*
X521287Y464288D01*
X521416Y464360D01*
X521548Y464428D01*
X521568Y464445D01*
X521591Y464458D01*
X521777Y464616D01*
X525774Y468613D01*
X530722Y470663D01*
X536078Y470663D01*
X541026Y468613D01*
X544813Y464826D01*
X546863Y459878D01*
X546863Y454522D01*
X544813Y449574D01*
X540816Y445577D01*
X540800Y445557D01*
X540780Y445540D01*
X540692Y445420D01*
X540600Y445304D01*
X540588Y445280D01*
X540573Y445259D01*
X540514Y445123D01*
X540451Y444989D01*
X540445Y444963D01*
X540435Y444939D01*
X540409Y444793D01*
X540377Y444648D01*
X540378Y444622D01*
X540373Y444596D01*
X540381Y444448D01*
X540383Y444300D01*
X540390Y444274D01*
X540391Y444248D01*
X540432Y444106D01*
X540468Y443962D01*
X540480Y443939D01*
X540488Y443913D01*
X540560Y443784D01*
X540628Y443652D01*
X540645Y443632D01*
X540658Y443609D01*
X540816Y443423D01*
X544813Y439426D01*
X546863Y434478D01*
X546863Y429122D01*
X544813Y424174D01*
X540816Y420177D01*
X540800Y420157D01*
X540780Y420140D01*
X540692Y420020D01*
X540600Y419904D01*
X540588Y419880D01*
X540573Y419859D01*
X540514Y419723D01*
X540451Y419589D01*
X540445Y419563D01*
X540435Y419539D01*
X540409Y419393D01*
X540377Y419248D01*
X540378Y419222D01*
X540373Y419196D01*
X540381Y419048D01*
X540383Y418900D01*
X540390Y418874D01*
X540391Y418848D01*
X540432Y418706D01*
X540468Y418562D01*
X540480Y418539D01*
X540488Y418513D01*
X540560Y418384D01*
X540628Y418252D01*
X540645Y418232D01*
X540658Y418209D01*
X540816Y418023D01*
X544813Y414026D01*
X546863Y409078D01*
X546863Y403722D01*
X544813Y398774D01*
X540816Y394777D01*
X540800Y394757D01*
X540780Y394740D01*
X540692Y394620D01*
X540600Y394504D01*
X540588Y394480D01*
X540573Y394459D01*
X540514Y394323D01*
X540451Y394189D01*
X540445Y394163D01*
X540435Y394139D01*
X540409Y393993D01*
X540377Y393848D01*
X540378Y393822D01*
X540373Y393796D01*
X540381Y393648D01*
X540383Y393500D01*
X540390Y393474D01*
X540391Y393448D01*
X540432Y393306D01*
X540468Y393162D01*
X540480Y393139D01*
X540488Y393113D01*
X540560Y392984D01*
X540628Y392852D01*
X540645Y392832D01*
X540658Y392809D01*
X540816Y392623D01*
X544813Y388626D01*
X546863Y383678D01*
X546863Y378322D01*
X544813Y373374D01*
X540816Y369377D01*
X540800Y369357D01*
X540780Y369340D01*
X540692Y369220D01*
X540600Y369104D01*
X540588Y369080D01*
X540573Y369059D01*
X540514Y368923D01*
X540451Y368789D01*
X540445Y368763D01*
X540435Y368739D01*
X540409Y368593D01*
X540377Y368448D01*
X540378Y368422D01*
X540373Y368396D01*
X540381Y368248D01*
X540383Y368100D01*
X540390Y368074D01*
X540391Y368048D01*
X540432Y367906D01*
X540468Y367762D01*
X540480Y367739D01*
X540488Y367713D01*
X540560Y367584D01*
X540628Y367452D01*
X540645Y367432D01*
X540658Y367409D01*
X540816Y367223D01*
X544813Y363226D01*
X546863Y358278D01*
X546863Y352922D01*
X544813Y347974D01*
X540816Y343977D01*
X540800Y343957D01*
X540780Y343940D01*
X540692Y343820D01*
X540600Y343704D01*
X540588Y343680D01*
X540573Y343659D01*
X540514Y343523D01*
X540451Y343389D01*
X540445Y343363D01*
X540435Y343339D01*
X540409Y343193D01*
X540377Y343048D01*
X540378Y343022D01*
X540373Y342996D01*
X540381Y342848D01*
X540383Y342700D01*
X540390Y342674D01*
X540391Y342648D01*
X540432Y342506D01*
X540468Y342362D01*
X540480Y342339D01*
X540488Y342313D01*
X540560Y342184D01*
X540628Y342052D01*
X540645Y342032D01*
X540658Y342009D01*
X540816Y341823D01*
X544813Y337826D01*
X546863Y332878D01*
X546863Y327522D01*
X544813Y322574D01*
X540816Y318577D01*
X540800Y318557D01*
X540780Y318540D01*
X540692Y318420D01*
X540600Y318304D01*
X540588Y318280D01*
X540573Y318259D01*
X540514Y318123D01*
X540451Y317989D01*
X540445Y317963D01*
X540435Y317939D01*
X540409Y317793D01*
X540377Y317648D01*
X540378Y317622D01*
X540373Y317596D01*
X540381Y317448D01*
X540383Y317300D01*
X540390Y317274D01*
X540391Y317248D01*
X540432Y317106D01*
X540468Y316962D01*
X540480Y316939D01*
X540488Y316913D01*
X540560Y316784D01*
X540628Y316652D01*
X540645Y316632D01*
X540658Y316609D01*
X540816Y316423D01*
X544813Y312426D01*
X546863Y307478D01*
X546863Y302122D01*
X544813Y297174D01*
X540816Y293177D01*
X540800Y293157D01*
X540780Y293140D01*
X540692Y293020D01*
X540600Y292904D01*
X540588Y292880D01*
X540573Y292859D01*
X540514Y292723D01*
X540451Y292589D01*
X540445Y292563D01*
X540435Y292539D01*
X540409Y292393D01*
X540377Y292248D01*
X540378Y292222D01*
X540373Y292196D01*
X540381Y292048D01*
X540383Y291900D01*
X540390Y291874D01*
X540391Y291848D01*
X540432Y291706D01*
X540468Y291562D01*
X540480Y291539D01*
X540488Y291513D01*
X540560Y291384D01*
X540628Y291252D01*
X540645Y291232D01*
X540658Y291209D01*
X540816Y291023D01*
X544813Y287026D01*
X546863Y282078D01*
X546863Y276722D01*
X544813Y271774D01*
X540816Y267777D01*
X540800Y267757D01*
X540780Y267740D01*
X540692Y267620D01*
X540600Y267504D01*
X540588Y267480D01*
X540573Y267459D01*
X540514Y267323D01*
X540451Y267189D01*
X540445Y267163D01*
X540435Y267139D01*
X540409Y266993D01*
X540377Y266848D01*
X540378Y266822D01*
X540373Y266796D01*
X540381Y266648D01*
X540383Y266500D01*
X540390Y266474D01*
X540391Y266448D01*
X540432Y266306D01*
X540468Y266162D01*
X540480Y266139D01*
X540488Y266113D01*
X540560Y265984D01*
X540628Y265852D01*
X540645Y265832D01*
X540658Y265809D01*
X540816Y265623D01*
X544813Y261626D01*
X546863Y256678D01*
X546863Y251322D01*
X544813Y246374D01*
X540816Y242377D01*
X540800Y242357D01*
X540780Y242340D01*
X540692Y242220D01*
X540600Y242104D01*
X540588Y242080D01*
X540573Y242059D01*
X540514Y241923D01*
X540451Y241789D01*
X540445Y241763D01*
X540435Y241739D01*
X540409Y241593D01*
X540377Y241448D01*
X540378Y241422D01*
X540373Y241396D01*
X540381Y241248D01*
X540383Y241100D01*
X540390Y241074D01*
X540391Y241048D01*
X540432Y240906D01*
X540468Y240762D01*
X540480Y240739D01*
X540488Y240713D01*
X540560Y240584D01*
X540628Y240452D01*
X540645Y240432D01*
X540658Y240409D01*
X540816Y240223D01*
X544813Y236226D01*
X546863Y231278D01*
X546863Y225922D01*
X544813Y220974D01*
X541026Y217187D01*
X536078Y215137D01*
X530722Y215137D01*
X525774Y217187D01*
X521777Y221184D01*
X521757Y221200D01*
X521740Y221220D01*
X521620Y221308D01*
X521504Y221400D01*
X521480Y221412D01*
X521459Y221427D01*
X521323Y221486D01*
X521189Y221549D01*
X521163Y221555D01*
X521139Y221565D01*
X520993Y221591D01*
X520848Y221623D01*
X520822Y221622D01*
X520796Y221627D01*
X520648Y221619D01*
X520500Y221617D01*
X520474Y221610D01*
X520448Y221609D01*
X520306Y221568D01*
X520162Y221532D01*
X520139Y221520D01*
X520113Y221512D01*
X519984Y221440D01*
X519852Y221372D01*
X519832Y221355D01*
X519809Y221342D01*
X519623Y221184D01*
X515626Y217187D01*
X510678Y215137D01*
X505322Y215137D01*
G37*
%LPD*%
%LPC*%
G36*
X431710Y141925D02*
X431710Y141925D01*
X431687Y141939D01*
X431668Y141956D01*
X431538Y142028D01*
X431411Y142104D01*
X431386Y142112D01*
X431363Y142125D01*
X431220Y142165D01*
X431079Y142210D01*
X431053Y142212D01*
X431028Y142220D01*
X430784Y142239D01*
X420115Y142239D01*
X420155Y142496D01*
X420736Y144283D01*
X421589Y145957D01*
X422694Y147478D01*
X424022Y148806D01*
X425543Y149911D01*
X426073Y150181D01*
X426106Y150203D01*
X426144Y150220D01*
X426251Y150300D01*
X426363Y150374D01*
X426391Y150403D01*
X426424Y150428D01*
X426510Y150530D01*
X426602Y150627D01*
X426622Y150662D01*
X426649Y150694D01*
X426710Y150813D01*
X426777Y150929D01*
X426789Y150968D01*
X426807Y151004D01*
X426840Y151134D01*
X426879Y151262D01*
X426882Y151302D01*
X426892Y151342D01*
X426894Y151476D01*
X426903Y151610D01*
X426896Y151650D01*
X426897Y151690D01*
X426868Y151821D01*
X426847Y151954D01*
X426831Y151991D01*
X426822Y152031D01*
X426765Y152152D01*
X426714Y152276D01*
X426690Y152309D01*
X426673Y152346D01*
X426589Y152450D01*
X426511Y152559D01*
X426481Y152586D01*
X426455Y152618D01*
X426350Y152701D01*
X426250Y152790D01*
X426214Y152809D01*
X426182Y152834D01*
X425964Y152945D01*
X424174Y153687D01*
X420387Y157474D01*
X418337Y162422D01*
X418337Y167778D01*
X420387Y172726D01*
X424384Y176723D01*
X424400Y176743D01*
X424420Y176760D01*
X424508Y176880D01*
X424600Y176996D01*
X424612Y177020D01*
X424627Y177041D01*
X424686Y177177D01*
X424749Y177311D01*
X424755Y177337D01*
X424765Y177361D01*
X424791Y177507D01*
X424823Y177652D01*
X424822Y177678D01*
X424827Y177704D01*
X424819Y177852D01*
X424817Y178000D01*
X424810Y178026D01*
X424809Y178052D01*
X424768Y178194D01*
X424732Y178338D01*
X424720Y178361D01*
X424712Y178387D01*
X424640Y178516D01*
X424572Y178648D01*
X424555Y178668D01*
X424542Y178691D01*
X424384Y178877D01*
X420387Y182874D01*
X418337Y187822D01*
X418337Y193178D01*
X420387Y198126D01*
X424384Y202123D01*
X424400Y202143D01*
X424420Y202160D01*
X424508Y202280D01*
X424600Y202396D01*
X424612Y202420D01*
X424627Y202441D01*
X424686Y202577D01*
X424749Y202711D01*
X424755Y202737D01*
X424765Y202761D01*
X424791Y202907D01*
X424823Y203052D01*
X424822Y203078D01*
X424827Y203104D01*
X424819Y203252D01*
X424817Y203400D01*
X424810Y203426D01*
X424809Y203452D01*
X424768Y203594D01*
X424732Y203738D01*
X424720Y203761D01*
X424712Y203787D01*
X424640Y203916D01*
X424572Y204048D01*
X424555Y204068D01*
X424542Y204091D01*
X424384Y204277D01*
X420387Y208274D01*
X418337Y213222D01*
X418337Y218578D01*
X420387Y223526D01*
X424174Y227313D01*
X429122Y229363D01*
X434478Y229363D01*
X439426Y227313D01*
X443213Y223526D01*
X445263Y218578D01*
X445263Y213222D01*
X443213Y208274D01*
X439216Y204277D01*
X439200Y204257D01*
X439180Y204240D01*
X439092Y204120D01*
X439000Y204004D01*
X438988Y203980D01*
X438973Y203959D01*
X438914Y203823D01*
X438851Y203689D01*
X438845Y203663D01*
X438835Y203639D01*
X438809Y203493D01*
X438777Y203348D01*
X438778Y203322D01*
X438773Y203296D01*
X438781Y203148D01*
X438783Y203000D01*
X438790Y202974D01*
X438791Y202948D01*
X438832Y202806D01*
X438868Y202662D01*
X438880Y202639D01*
X438888Y202613D01*
X438960Y202484D01*
X439028Y202352D01*
X439045Y202332D01*
X439058Y202309D01*
X439216Y202123D01*
X443213Y198126D01*
X445263Y193178D01*
X445263Y187822D01*
X443213Y182874D01*
X439216Y178877D01*
X439200Y178857D01*
X439180Y178840D01*
X439092Y178720D01*
X439000Y178604D01*
X438988Y178580D01*
X438973Y178559D01*
X438914Y178423D01*
X438851Y178289D01*
X438845Y178263D01*
X438835Y178239D01*
X438809Y178093D01*
X438777Y177948D01*
X438778Y177922D01*
X438773Y177896D01*
X438781Y177748D01*
X438783Y177600D01*
X438790Y177574D01*
X438791Y177548D01*
X438832Y177406D01*
X438868Y177262D01*
X438880Y177239D01*
X438888Y177213D01*
X438960Y177084D01*
X439028Y176952D01*
X439045Y176932D01*
X439058Y176909D01*
X439216Y176723D01*
X443213Y172726D01*
X445263Y167778D01*
X445263Y162422D01*
X443213Y157474D01*
X439426Y153687D01*
X437636Y152945D01*
X437600Y152926D01*
X437562Y152912D01*
X437448Y152841D01*
X437331Y152776D01*
X437301Y152749D01*
X437267Y152727D01*
X437172Y152632D01*
X437073Y152542D01*
X437050Y152508D01*
X437021Y152480D01*
X436951Y152365D01*
X436875Y152255D01*
X436860Y152217D01*
X436839Y152183D01*
X436796Y152055D01*
X436747Y151931D01*
X436741Y151891D01*
X436728Y151852D01*
X436716Y151719D01*
X436696Y151586D01*
X436700Y151546D01*
X436696Y151505D01*
X436714Y151372D01*
X436725Y151239D01*
X436738Y151200D01*
X436743Y151160D01*
X436791Y151035D01*
X436832Y150907D01*
X436853Y150872D01*
X436868Y150834D01*
X436943Y150723D01*
X437012Y150609D01*
X437041Y150579D01*
X437063Y150546D01*
X437161Y150455D01*
X437255Y150359D01*
X437289Y150337D01*
X437319Y150309D01*
X437527Y150181D01*
X438057Y149911D01*
X439578Y148806D01*
X440906Y147478D01*
X442011Y145957D01*
X442864Y144283D01*
X443445Y142496D01*
X443485Y142239D01*
X432816Y142239D01*
X432790Y142236D01*
X432764Y142238D01*
X432617Y142216D01*
X432470Y142199D01*
X432445Y142191D01*
X432419Y142187D01*
X432282Y142132D01*
X432142Y142082D01*
X432120Y142068D01*
X432095Y142058D01*
X431974Y141973D01*
X431849Y141893D01*
X431831Y141874D01*
X431809Y141859D01*
X431795Y141843D01*
X431710Y141925D01*
G37*
%LPD*%
%LPC*%
G36*
X35422Y525017D02*
X35422Y525017D01*
X30474Y527067D01*
X26687Y530854D01*
X24637Y535802D01*
X24637Y541158D01*
X26687Y546106D01*
X30474Y549893D01*
X35422Y551943D01*
X40778Y551943D01*
X45726Y549893D01*
X49723Y545896D01*
X49743Y545880D01*
X49760Y545860D01*
X49880Y545772D01*
X49996Y545680D01*
X50020Y545668D01*
X50041Y545653D01*
X50177Y545594D01*
X50311Y545531D01*
X50337Y545525D01*
X50361Y545515D01*
X50507Y545489D01*
X50652Y545457D01*
X50678Y545458D01*
X50704Y545453D01*
X50852Y545461D01*
X51000Y545463D01*
X51026Y545470D01*
X51052Y545471D01*
X51194Y545512D01*
X51338Y545548D01*
X51361Y545560D01*
X51387Y545568D01*
X51516Y545640D01*
X51648Y545708D01*
X51668Y545725D01*
X51691Y545738D01*
X51877Y545896D01*
X55874Y549893D01*
X60822Y551943D01*
X66178Y551943D01*
X71126Y549893D01*
X75123Y545896D01*
X75143Y545880D01*
X75160Y545860D01*
X75280Y545772D01*
X75396Y545680D01*
X75420Y545668D01*
X75441Y545653D01*
X75577Y545594D01*
X75711Y545531D01*
X75737Y545525D01*
X75761Y545515D01*
X75907Y545489D01*
X76052Y545457D01*
X76078Y545458D01*
X76104Y545453D01*
X76252Y545461D01*
X76400Y545463D01*
X76426Y545470D01*
X76452Y545471D01*
X76594Y545512D01*
X76738Y545548D01*
X76761Y545560D01*
X76787Y545568D01*
X76916Y545640D01*
X77048Y545708D01*
X77068Y545725D01*
X77091Y545738D01*
X77277Y545896D01*
X81274Y549893D01*
X86222Y551943D01*
X91578Y551943D01*
X96526Y549893D01*
X100313Y546106D01*
X101055Y544316D01*
X101074Y544280D01*
X101088Y544242D01*
X101159Y544128D01*
X101224Y544011D01*
X101251Y543981D01*
X101273Y543947D01*
X101368Y543852D01*
X101458Y543753D01*
X101492Y543730D01*
X101520Y543701D01*
X101635Y543631D01*
X101745Y543555D01*
X101783Y543540D01*
X101817Y543519D01*
X101945Y543476D01*
X102069Y543427D01*
X102109Y543421D01*
X102148Y543408D01*
X102281Y543396D01*
X102414Y543376D01*
X102454Y543380D01*
X102495Y543376D01*
X102628Y543394D01*
X102761Y543405D01*
X102800Y543418D01*
X102840Y543423D01*
X102965Y543471D01*
X103093Y543512D01*
X103128Y543533D01*
X103166Y543548D01*
X103277Y543623D01*
X103391Y543692D01*
X103421Y543721D01*
X103454Y543743D01*
X103545Y543841D01*
X103641Y543935D01*
X103663Y543969D01*
X103691Y543999D01*
X103819Y544207D01*
X104089Y544737D01*
X105194Y546258D01*
X106522Y547586D01*
X108043Y548691D01*
X109717Y549544D01*
X111504Y550125D01*
X111761Y550165D01*
X111761Y539496D01*
X111764Y539470D01*
X111762Y539444D01*
X111784Y539297D01*
X111801Y539150D01*
X111809Y539125D01*
X111813Y539099D01*
X111868Y538962D01*
X111918Y538822D01*
X111932Y538800D01*
X111942Y538775D01*
X112027Y538654D01*
X112107Y538529D01*
X112126Y538511D01*
X112141Y538489D01*
X112157Y538475D01*
X112075Y538390D01*
X112061Y538367D01*
X112044Y538348D01*
X111972Y538218D01*
X111896Y538091D01*
X111888Y538066D01*
X111875Y538043D01*
X111835Y537900D01*
X111790Y537759D01*
X111787Y537733D01*
X111780Y537708D01*
X111761Y537464D01*
X111761Y526795D01*
X111504Y526835D01*
X109717Y527416D01*
X108043Y528269D01*
X106522Y529374D01*
X105194Y530702D01*
X104089Y532223D01*
X103819Y532753D01*
X103797Y532786D01*
X103780Y532824D01*
X103700Y532932D01*
X103626Y533043D01*
X103597Y533071D01*
X103572Y533104D01*
X103470Y533190D01*
X103373Y533282D01*
X103337Y533302D01*
X103306Y533329D01*
X103187Y533390D01*
X103071Y533457D01*
X103033Y533469D01*
X102996Y533488D01*
X102866Y533520D01*
X102738Y533559D01*
X102698Y533562D01*
X102658Y533572D01*
X102524Y533574D01*
X102391Y533583D01*
X102350Y533576D01*
X102310Y533577D01*
X102179Y533548D01*
X102047Y533527D01*
X102009Y533511D01*
X101969Y533502D01*
X101848Y533445D01*
X101724Y533394D01*
X101691Y533370D01*
X101654Y533353D01*
X101550Y533269D01*
X101441Y533191D01*
X101414Y533161D01*
X101382Y533135D01*
X101299Y533030D01*
X101211Y532930D01*
X101191Y532894D01*
X101166Y532862D01*
X101055Y532644D01*
X100313Y530854D01*
X96526Y527067D01*
X91578Y525017D01*
X86222Y525017D01*
X81274Y527067D01*
X77277Y531064D01*
X77257Y531080D01*
X77240Y531100D01*
X77120Y531188D01*
X77004Y531280D01*
X76980Y531292D01*
X76959Y531307D01*
X76823Y531366D01*
X76689Y531429D01*
X76663Y531435D01*
X76639Y531445D01*
X76493Y531471D01*
X76348Y531503D01*
X76322Y531502D01*
X76296Y531507D01*
X76148Y531499D01*
X76000Y531497D01*
X75974Y531490D01*
X75948Y531489D01*
X75806Y531448D01*
X75662Y531412D01*
X75639Y531400D01*
X75613Y531392D01*
X75484Y531320D01*
X75352Y531252D01*
X75332Y531235D01*
X75309Y531222D01*
X75123Y531064D01*
X71126Y527067D01*
X66178Y525017D01*
X60822Y525017D01*
X55874Y527067D01*
X51877Y531064D01*
X51857Y531080D01*
X51840Y531100D01*
X51720Y531188D01*
X51604Y531280D01*
X51580Y531292D01*
X51559Y531307D01*
X51423Y531366D01*
X51289Y531429D01*
X51263Y531435D01*
X51239Y531445D01*
X51093Y531471D01*
X50948Y531503D01*
X50922Y531502D01*
X50896Y531507D01*
X50748Y531499D01*
X50600Y531497D01*
X50574Y531490D01*
X50548Y531489D01*
X50406Y531448D01*
X50262Y531412D01*
X50239Y531400D01*
X50213Y531392D01*
X50084Y531320D01*
X49952Y531252D01*
X49932Y531235D01*
X49909Y531222D01*
X49723Y531064D01*
X45726Y527067D01*
X40778Y525017D01*
X35422Y525017D01*
G37*
%LPD*%
%LPC*%
G36*
X72252Y22097D02*
X72252Y22097D01*
X67304Y24147D01*
X63517Y27934D01*
X61467Y32882D01*
X61467Y38238D01*
X63517Y43186D01*
X67514Y47183D01*
X67530Y47203D01*
X67550Y47220D01*
X67638Y47340D01*
X67730Y47456D01*
X67742Y47480D01*
X67757Y47501D01*
X67816Y47637D01*
X67879Y47771D01*
X67885Y47797D01*
X67895Y47821D01*
X67921Y47967D01*
X67953Y48112D01*
X67952Y48138D01*
X67957Y48164D01*
X67949Y48312D01*
X67947Y48460D01*
X67940Y48486D01*
X67939Y48512D01*
X67898Y48654D01*
X67862Y48798D01*
X67850Y48821D01*
X67842Y48847D01*
X67770Y48976D01*
X67702Y49108D01*
X67685Y49128D01*
X67672Y49151D01*
X67514Y49337D01*
X63517Y53334D01*
X61467Y58282D01*
X61467Y63638D01*
X63517Y68586D01*
X67514Y72583D01*
X67530Y72603D01*
X67550Y72620D01*
X67638Y72740D01*
X67730Y72856D01*
X67742Y72880D01*
X67757Y72901D01*
X67816Y73037D01*
X67879Y73171D01*
X67885Y73197D01*
X67895Y73221D01*
X67921Y73367D01*
X67953Y73512D01*
X67952Y73538D01*
X67957Y73564D01*
X67949Y73712D01*
X67947Y73860D01*
X67940Y73886D01*
X67939Y73912D01*
X67898Y74054D01*
X67862Y74198D01*
X67850Y74221D01*
X67842Y74247D01*
X67770Y74376D01*
X67702Y74508D01*
X67685Y74528D01*
X67672Y74551D01*
X67514Y74737D01*
X63517Y78734D01*
X61467Y83682D01*
X61467Y89038D01*
X63517Y93986D01*
X67304Y97773D01*
X72252Y99823D01*
X77608Y99823D01*
X82556Y97773D01*
X86343Y93986D01*
X88393Y89038D01*
X88393Y83682D01*
X86343Y78734D01*
X82346Y74737D01*
X82330Y74717D01*
X82310Y74700D01*
X82222Y74580D01*
X82130Y74464D01*
X82118Y74440D01*
X82103Y74419D01*
X82044Y74283D01*
X81981Y74149D01*
X81975Y74123D01*
X81965Y74099D01*
X81939Y73953D01*
X81907Y73808D01*
X81908Y73782D01*
X81903Y73756D01*
X81911Y73608D01*
X81913Y73460D01*
X81920Y73434D01*
X81921Y73408D01*
X81962Y73266D01*
X81998Y73122D01*
X82010Y73099D01*
X82018Y73073D01*
X82090Y72944D01*
X82158Y72812D01*
X82175Y72792D01*
X82188Y72769D01*
X82346Y72583D01*
X86343Y68586D01*
X88393Y63638D01*
X88393Y58282D01*
X86343Y53334D01*
X82346Y49337D01*
X82330Y49317D01*
X82310Y49300D01*
X82222Y49180D01*
X82130Y49064D01*
X82118Y49040D01*
X82103Y49019D01*
X82044Y48883D01*
X81981Y48749D01*
X81975Y48723D01*
X81965Y48699D01*
X81939Y48553D01*
X81907Y48408D01*
X81908Y48382D01*
X81903Y48356D01*
X81911Y48208D01*
X81913Y48060D01*
X81920Y48034D01*
X81921Y48008D01*
X81962Y47866D01*
X81998Y47722D01*
X82010Y47699D01*
X82018Y47673D01*
X82090Y47544D01*
X82158Y47412D01*
X82175Y47392D01*
X82188Y47369D01*
X82346Y47183D01*
X86343Y43186D01*
X88393Y38238D01*
X88393Y32882D01*
X86343Y27934D01*
X82556Y24147D01*
X77608Y22097D01*
X72252Y22097D01*
G37*
%LPD*%
%LPC*%
G36*
X264022Y431037D02*
X264022Y431037D01*
X259074Y433087D01*
X255287Y436874D01*
X253237Y441822D01*
X253237Y447178D01*
X255287Y452126D01*
X259074Y455913D01*
X264022Y457963D01*
X269378Y457963D01*
X274326Y455913D01*
X278323Y451916D01*
X278343Y451900D01*
X278360Y451880D01*
X278480Y451792D01*
X278596Y451700D01*
X278620Y451688D01*
X278641Y451673D01*
X278777Y451614D01*
X278911Y451551D01*
X278937Y451545D01*
X278961Y451535D01*
X279107Y451509D01*
X279252Y451477D01*
X279278Y451478D01*
X279304Y451473D01*
X279452Y451481D01*
X279600Y451483D01*
X279626Y451490D01*
X279652Y451491D01*
X279794Y451532D01*
X279938Y451568D01*
X279961Y451580D01*
X279987Y451588D01*
X280116Y451660D01*
X280248Y451728D01*
X280268Y451745D01*
X280291Y451758D01*
X280477Y451916D01*
X284474Y455913D01*
X289422Y457963D01*
X294778Y457963D01*
X299726Y455913D01*
X303513Y452126D01*
X305563Y447178D01*
X305563Y441822D01*
X303513Y436874D01*
X299726Y433087D01*
X294778Y431037D01*
X289422Y431037D01*
X284474Y433087D01*
X280477Y437084D01*
X280457Y437100D01*
X280440Y437120D01*
X280320Y437208D01*
X280204Y437300D01*
X280180Y437312D01*
X280159Y437327D01*
X280023Y437386D01*
X279889Y437449D01*
X279863Y437455D01*
X279839Y437465D01*
X279693Y437491D01*
X279548Y437523D01*
X279522Y437522D01*
X279496Y437527D01*
X279348Y437519D01*
X279200Y437517D01*
X279174Y437510D01*
X279148Y437509D01*
X279006Y437468D01*
X278862Y437432D01*
X278839Y437420D01*
X278813Y437412D01*
X278684Y437340D01*
X278552Y437272D01*
X278532Y437255D01*
X278509Y437242D01*
X278323Y437084D01*
X274326Y433087D01*
X269378Y431037D01*
X264022Y431037D01*
G37*
%LPD*%
%LPC*%
G36*
X352922Y113537D02*
X352922Y113537D01*
X347974Y115587D01*
X344187Y119374D01*
X342137Y124322D01*
X342137Y129678D01*
X344187Y134626D01*
X348184Y138623D01*
X348200Y138643D01*
X348220Y138660D01*
X348308Y138780D01*
X348400Y138896D01*
X348412Y138920D01*
X348427Y138941D01*
X348486Y139077D01*
X348549Y139211D01*
X348555Y139237D01*
X348565Y139261D01*
X348591Y139407D01*
X348623Y139552D01*
X348622Y139578D01*
X348627Y139604D01*
X348619Y139752D01*
X348617Y139900D01*
X348610Y139926D01*
X348609Y139952D01*
X348568Y140094D01*
X348532Y140238D01*
X348520Y140261D01*
X348512Y140287D01*
X348440Y140416D01*
X348372Y140548D01*
X348355Y140568D01*
X348342Y140591D01*
X348184Y140777D01*
X344187Y144774D01*
X342137Y149722D01*
X342137Y155078D01*
X344187Y160026D01*
X347974Y163813D01*
X352922Y165863D01*
X358278Y165863D01*
X363226Y163813D01*
X367013Y160026D01*
X369063Y155078D01*
X369063Y149722D01*
X367013Y144774D01*
X363016Y140777D01*
X363000Y140757D01*
X362980Y140740D01*
X362892Y140620D01*
X362800Y140504D01*
X362788Y140480D01*
X362773Y140459D01*
X362714Y140323D01*
X362651Y140189D01*
X362645Y140163D01*
X362635Y140139D01*
X362609Y139993D01*
X362577Y139848D01*
X362578Y139822D01*
X362573Y139796D01*
X362581Y139648D01*
X362583Y139500D01*
X362590Y139474D01*
X362591Y139448D01*
X362632Y139306D01*
X362668Y139162D01*
X362680Y139139D01*
X362688Y139113D01*
X362760Y138984D01*
X362828Y138852D01*
X362845Y138832D01*
X362858Y138809D01*
X363016Y138623D01*
X367013Y134626D01*
X369063Y129678D01*
X369063Y124322D01*
X367013Y119374D01*
X363226Y115587D01*
X358278Y113537D01*
X352922Y113537D01*
G37*
%LPD*%
%LPC*%
G36*
X65118Y113537D02*
X65118Y113537D01*
X62737Y115918D01*
X62737Y138082D01*
X65118Y140463D01*
X67631Y140463D01*
X67676Y140468D01*
X67722Y140465D01*
X67849Y140488D01*
X67977Y140503D01*
X68020Y140518D01*
X68065Y140526D01*
X68183Y140577D01*
X68305Y140620D01*
X68343Y140645D01*
X68385Y140663D01*
X68489Y140739D01*
X68598Y140809D01*
X68630Y140842D01*
X68666Y140869D01*
X68750Y140967D01*
X68840Y141060D01*
X68864Y141099D01*
X68893Y141134D01*
X68953Y141248D01*
X69019Y141359D01*
X69033Y141402D01*
X69054Y141443D01*
X69086Y141568D01*
X69125Y141691D01*
X69129Y141736D01*
X69140Y141780D01*
X69143Y141910D01*
X69153Y142038D01*
X69146Y142083D01*
X69147Y142129D01*
X69121Y142255D01*
X69101Y142383D01*
X69085Y142425D01*
X69075Y142470D01*
X69020Y142587D01*
X68973Y142707D01*
X68947Y142744D01*
X68927Y142785D01*
X68847Y142887D01*
X68774Y142993D01*
X68740Y143023D01*
X68712Y143059D01*
X68526Y143218D01*
X68422Y143294D01*
X67094Y144622D01*
X65989Y146143D01*
X65136Y147817D01*
X64555Y149604D01*
X64515Y149861D01*
X75184Y149861D01*
X75210Y149864D01*
X75236Y149862D01*
X75383Y149884D01*
X75530Y149901D01*
X75555Y149909D01*
X75581Y149913D01*
X75718Y149968D01*
X75858Y150018D01*
X75880Y150032D01*
X75905Y150042D01*
X76026Y150127D01*
X76151Y150207D01*
X76169Y150226D01*
X76191Y150241D01*
X76205Y150257D01*
X76290Y150175D01*
X76313Y150161D01*
X76332Y150144D01*
X76462Y150072D01*
X76589Y149996D01*
X76614Y149988D01*
X76637Y149975D01*
X76780Y149935D01*
X76921Y149890D01*
X76947Y149887D01*
X76972Y149880D01*
X77216Y149861D01*
X87885Y149861D01*
X87845Y149604D01*
X87264Y147817D01*
X86411Y146143D01*
X85306Y144622D01*
X83978Y143294D01*
X83874Y143218D01*
X83840Y143188D01*
X83802Y143163D01*
X83712Y143070D01*
X83617Y142983D01*
X83592Y142945D01*
X83560Y142912D01*
X83494Y142802D01*
X83421Y142695D01*
X83404Y142652D01*
X83381Y142613D01*
X83342Y142490D01*
X83295Y142370D01*
X83289Y142325D01*
X83275Y142281D01*
X83264Y142153D01*
X83246Y142025D01*
X83251Y141979D01*
X83247Y141934D01*
X83266Y141806D01*
X83278Y141678D01*
X83292Y141634D01*
X83299Y141589D01*
X83346Y141469D01*
X83387Y141347D01*
X83410Y141308D01*
X83427Y141265D01*
X83501Y141159D01*
X83568Y141049D01*
X83600Y141017D01*
X83626Y140979D01*
X83722Y140893D01*
X83813Y140801D01*
X83851Y140776D01*
X83885Y140746D01*
X83998Y140683D01*
X84107Y140614D01*
X84150Y140599D01*
X84190Y140577D01*
X84314Y140542D01*
X84436Y140500D01*
X84482Y140495D01*
X84525Y140482D01*
X84769Y140463D01*
X87282Y140463D01*
X89663Y138082D01*
X89663Y115918D01*
X87282Y113537D01*
X65118Y113537D01*
G37*
%LPD*%
%LPC*%
G36*
X522318Y113537D02*
X522318Y113537D01*
X519937Y115918D01*
X519937Y138082D01*
X522318Y140463D01*
X524831Y140463D01*
X524876Y140468D01*
X524922Y140465D01*
X525049Y140488D01*
X525177Y140503D01*
X525220Y140518D01*
X525265Y140526D01*
X525383Y140577D01*
X525505Y140620D01*
X525543Y140645D01*
X525585Y140663D01*
X525689Y140739D01*
X525798Y140809D01*
X525830Y140842D01*
X525866Y140869D01*
X525950Y140967D01*
X526040Y141060D01*
X526064Y141099D01*
X526093Y141134D01*
X526153Y141248D01*
X526219Y141359D01*
X526233Y141402D01*
X526254Y141443D01*
X526286Y141568D01*
X526325Y141691D01*
X526329Y141736D01*
X526340Y141780D01*
X526343Y141910D01*
X526353Y142038D01*
X526346Y142083D01*
X526347Y142129D01*
X526321Y142255D01*
X526301Y142383D01*
X526285Y142425D01*
X526275Y142470D01*
X526220Y142587D01*
X526173Y142707D01*
X526147Y142744D01*
X526127Y142785D01*
X526047Y142887D01*
X525974Y142993D01*
X525940Y143023D01*
X525912Y143059D01*
X525726Y143218D01*
X525622Y143294D01*
X524294Y144622D01*
X523189Y146143D01*
X522336Y147817D01*
X521755Y149604D01*
X521715Y149861D01*
X532384Y149861D01*
X532410Y149864D01*
X532436Y149862D01*
X532583Y149884D01*
X532730Y149901D01*
X532755Y149909D01*
X532781Y149913D01*
X532918Y149968D01*
X533058Y150018D01*
X533080Y150032D01*
X533105Y150042D01*
X533226Y150127D01*
X533351Y150207D01*
X533369Y150226D01*
X533391Y150241D01*
X533405Y150257D01*
X533490Y150175D01*
X533513Y150161D01*
X533532Y150144D01*
X533662Y150072D01*
X533789Y149996D01*
X533814Y149988D01*
X533837Y149975D01*
X533980Y149935D01*
X534121Y149890D01*
X534147Y149887D01*
X534172Y149880D01*
X534416Y149861D01*
X545085Y149861D01*
X545045Y149604D01*
X544464Y147817D01*
X543611Y146143D01*
X542506Y144622D01*
X541178Y143294D01*
X541074Y143218D01*
X541040Y143188D01*
X541002Y143163D01*
X540912Y143070D01*
X540817Y142983D01*
X540792Y142945D01*
X540760Y142912D01*
X540694Y142802D01*
X540621Y142695D01*
X540604Y142652D01*
X540581Y142613D01*
X540542Y142490D01*
X540495Y142370D01*
X540489Y142325D01*
X540475Y142281D01*
X540464Y142153D01*
X540446Y142025D01*
X540451Y141979D01*
X540447Y141934D01*
X540466Y141806D01*
X540478Y141678D01*
X540492Y141634D01*
X540499Y141589D01*
X540546Y141469D01*
X540587Y141347D01*
X540610Y141308D01*
X540627Y141265D01*
X540701Y141159D01*
X540768Y141049D01*
X540800Y141017D01*
X540826Y140979D01*
X540922Y140893D01*
X541013Y140801D01*
X541051Y140776D01*
X541085Y140746D01*
X541198Y140683D01*
X541307Y140614D01*
X541350Y140599D01*
X541390Y140577D01*
X541514Y140542D01*
X541636Y140500D01*
X541682Y140495D01*
X541725Y140482D01*
X541969Y140463D01*
X544482Y140463D01*
X546863Y138082D01*
X546863Y115918D01*
X544482Y113537D01*
X522318Y113537D01*
G37*
%LPD*%
%LPC*%
G36*
X224652Y22910D02*
X224652Y22910D01*
X219704Y24960D01*
X215917Y28747D01*
X213867Y33695D01*
X213867Y39051D01*
X215917Y43999D01*
X219704Y47786D01*
X221494Y48527D01*
X221530Y48547D01*
X221568Y48560D01*
X221682Y48632D01*
X221799Y48697D01*
X221829Y48724D01*
X221863Y48746D01*
X221958Y48841D01*
X222057Y48931D01*
X222080Y48964D01*
X222109Y48993D01*
X222179Y49107D01*
X222255Y49218D01*
X222270Y49255D01*
X222291Y49290D01*
X222334Y49417D01*
X222383Y49542D01*
X222389Y49582D01*
X222402Y49621D01*
X222414Y49754D01*
X222434Y49887D01*
X222430Y49927D01*
X222434Y49968D01*
X222416Y50100D01*
X222405Y50234D01*
X222392Y50273D01*
X222387Y50313D01*
X222339Y50438D01*
X222298Y50566D01*
X222277Y50600D01*
X222262Y50638D01*
X222187Y50749D01*
X222118Y50864D01*
X222089Y50893D01*
X222067Y50927D01*
X221969Y51018D01*
X221875Y51114D01*
X221841Y51136D01*
X221811Y51164D01*
X221603Y51292D01*
X221073Y51562D01*
X219552Y52666D01*
X218224Y53995D01*
X217119Y55515D01*
X216266Y57190D01*
X215685Y58977D01*
X215645Y59234D01*
X226314Y59234D01*
X226340Y59237D01*
X226366Y59234D01*
X226513Y59256D01*
X226660Y59273D01*
X226685Y59282D01*
X226711Y59286D01*
X226848Y59341D01*
X226988Y59391D01*
X227010Y59405D01*
X227035Y59415D01*
X227156Y59499D01*
X227281Y59580D01*
X227299Y59599D01*
X227321Y59614D01*
X227335Y59630D01*
X227420Y59547D01*
X227443Y59534D01*
X227462Y59516D01*
X227592Y59445D01*
X227719Y59369D01*
X227744Y59361D01*
X227767Y59348D01*
X227910Y59308D01*
X228051Y59262D01*
X228077Y59260D01*
X228102Y59253D01*
X228346Y59234D01*
X239015Y59234D01*
X238975Y58977D01*
X238394Y57190D01*
X237541Y55515D01*
X236436Y53995D01*
X235108Y52666D01*
X233587Y51562D01*
X233057Y51292D01*
X233024Y51269D01*
X232986Y51253D01*
X232878Y51173D01*
X232767Y51099D01*
X232739Y51070D01*
X232706Y51045D01*
X232620Y50943D01*
X232528Y50846D01*
X232508Y50810D01*
X232481Y50779D01*
X232420Y50660D01*
X232353Y50544D01*
X232341Y50505D01*
X232322Y50469D01*
X232290Y50339D01*
X232251Y50211D01*
X232248Y50170D01*
X232238Y50131D01*
X232236Y49997D01*
X232227Y49863D01*
X232234Y49823D01*
X232233Y49782D01*
X232262Y49651D01*
X232283Y49519D01*
X232299Y49482D01*
X232308Y49442D01*
X232365Y49321D01*
X232416Y49197D01*
X232440Y49164D01*
X232457Y49127D01*
X232541Y49023D01*
X232619Y48913D01*
X232649Y48887D01*
X232675Y48855D01*
X232780Y48772D01*
X232880Y48683D01*
X232916Y48664D01*
X232948Y48639D01*
X233166Y48527D01*
X234956Y47786D01*
X238743Y43999D01*
X240793Y39051D01*
X240793Y33695D01*
X238743Y28747D01*
X234956Y24960D01*
X230008Y22910D01*
X224652Y22910D01*
G37*
%LPD*%
%LPC*%
G36*
X442157Y295703D02*
X442157Y295703D01*
X438814Y297088D01*
X436255Y299647D01*
X434870Y302991D01*
X434870Y306609D01*
X436255Y309953D01*
X437983Y311681D01*
X438061Y311780D01*
X438146Y311873D01*
X438169Y311916D01*
X438199Y311954D01*
X438253Y312068D01*
X438314Y312179D01*
X438327Y312225D01*
X438348Y312269D01*
X438375Y312392D01*
X438409Y312514D01*
X438414Y312575D01*
X438421Y312609D01*
X438421Y312657D01*
X438429Y312758D01*
X438429Y323893D01*
X438414Y324019D01*
X438408Y324145D01*
X438394Y324191D01*
X438389Y324239D01*
X438346Y324358D01*
X438311Y324480D01*
X438288Y324522D01*
X438271Y324568D01*
X438203Y324674D01*
X438141Y324784D01*
X438102Y324830D01*
X438082Y324860D01*
X438048Y324894D01*
X437983Y324970D01*
X436306Y326647D01*
X434921Y329991D01*
X434921Y333610D01*
X436306Y336953D01*
X438864Y339512D01*
X442208Y340897D01*
X445827Y340897D01*
X449170Y339512D01*
X451729Y336953D01*
X453114Y333610D01*
X453114Y329991D01*
X451729Y326647D01*
X450052Y324970D01*
X449974Y324871D01*
X449889Y324777D01*
X449866Y324735D01*
X449836Y324697D01*
X449782Y324583D01*
X449721Y324472D01*
X449707Y324426D01*
X449687Y324382D01*
X449660Y324259D01*
X449626Y324137D01*
X449621Y324076D01*
X449613Y324042D01*
X449614Y323994D01*
X449606Y323893D01*
X449606Y312656D01*
X449621Y312531D01*
X449627Y312404D01*
X449640Y312358D01*
X449646Y312310D01*
X449689Y312191D01*
X449724Y312069D01*
X449747Y312027D01*
X449764Y311982D01*
X449832Y311876D01*
X449894Y311765D01*
X449933Y311719D01*
X449953Y311689D01*
X449987Y311656D01*
X450052Y311579D01*
X451678Y309953D01*
X453063Y306609D01*
X453063Y302991D01*
X451678Y299647D01*
X449120Y297088D01*
X445776Y295703D01*
X442157Y295703D01*
G37*
%LPD*%
%LPC*%
G36*
X366491Y359203D02*
X366491Y359203D01*
X363147Y360588D01*
X360588Y363147D01*
X359203Y366491D01*
X359203Y370109D01*
X360588Y373453D01*
X362265Y375130D01*
X362344Y375229D01*
X362428Y375323D01*
X362452Y375365D01*
X362482Y375403D01*
X362536Y375517D01*
X362597Y375628D01*
X362610Y375674D01*
X362631Y375718D01*
X362657Y375841D01*
X362692Y375963D01*
X362697Y376024D01*
X362704Y376059D01*
X362703Y376107D01*
X362711Y376207D01*
X362711Y385793D01*
X362697Y385919D01*
X362690Y386045D01*
X362677Y386091D01*
X362671Y386139D01*
X362629Y386258D01*
X362594Y386380D01*
X362570Y386422D01*
X362554Y386467D01*
X362485Y386574D01*
X362424Y386684D01*
X362384Y386730D01*
X362365Y386760D01*
X362330Y386794D01*
X362265Y386870D01*
X360588Y388547D01*
X359203Y391891D01*
X359203Y395509D01*
X360588Y398853D01*
X363147Y401412D01*
X366491Y402797D01*
X370109Y402797D01*
X373453Y401412D01*
X376012Y398853D01*
X377397Y395509D01*
X377397Y391891D01*
X376012Y388547D01*
X374335Y386870D01*
X374256Y386771D01*
X374172Y386677D01*
X374148Y386635D01*
X374118Y386597D01*
X374064Y386483D01*
X374003Y386372D01*
X373990Y386326D01*
X373969Y386282D01*
X373943Y386159D01*
X373908Y386037D01*
X373903Y385976D01*
X373896Y385941D01*
X373897Y385893D01*
X373889Y385793D01*
X373889Y376207D01*
X373903Y376081D01*
X373910Y375955D01*
X373923Y375909D01*
X373929Y375861D01*
X373971Y375742D01*
X374006Y375620D01*
X374030Y375578D01*
X374046Y375533D01*
X374115Y375426D01*
X374176Y375316D01*
X374216Y375270D01*
X374235Y375240D01*
X374270Y375206D01*
X374335Y375130D01*
X376012Y373453D01*
X377397Y370109D01*
X377397Y366491D01*
X376012Y363147D01*
X373453Y360588D01*
X370109Y359203D01*
X366491Y359203D01*
G37*
%LPD*%
%LPC*%
G36*
X163982Y184029D02*
X163982Y184029D01*
X159034Y186079D01*
X155247Y189866D01*
X153197Y194814D01*
X153197Y200170D01*
X155247Y205118D01*
X159034Y208905D01*
X163982Y210955D01*
X169338Y210955D01*
X174286Y208905D01*
X178073Y205118D01*
X180123Y200170D01*
X180123Y194814D01*
X178073Y189866D01*
X174286Y186079D01*
X169338Y184029D01*
X163982Y184029D01*
G37*
%LPD*%
%LPC*%
G36*
X535939Y154939D02*
X535939Y154939D01*
X535939Y175261D01*
X545085Y175261D01*
X545045Y175004D01*
X544464Y173217D01*
X543611Y171543D01*
X542506Y170022D01*
X541178Y168694D01*
X539657Y167589D01*
X537983Y166736D01*
X537407Y166549D01*
X537365Y166530D01*
X537321Y166518D01*
X537207Y166457D01*
X537090Y166404D01*
X537054Y166376D01*
X537013Y166355D01*
X536916Y166270D01*
X536814Y166191D01*
X536785Y166155D01*
X536751Y166125D01*
X536676Y166021D01*
X536594Y165920D01*
X536574Y165879D01*
X536547Y165842D01*
X536498Y165723D01*
X536441Y165607D01*
X536431Y165563D01*
X536413Y165521D01*
X536392Y165393D01*
X536363Y165267D01*
X536363Y165222D01*
X536356Y165177D01*
X536364Y165048D01*
X536365Y164919D01*
X536375Y164875D01*
X536378Y164829D01*
X536416Y164706D01*
X536446Y164580D01*
X536466Y164539D01*
X536479Y164496D01*
X536543Y164384D01*
X536601Y164268D01*
X536630Y164233D01*
X536653Y164194D01*
X536741Y164099D01*
X536824Y164000D01*
X536860Y163972D01*
X536891Y163939D01*
X536999Y163867D01*
X537101Y163789D01*
X537143Y163771D01*
X537181Y163745D01*
X537407Y163651D01*
X537983Y163464D01*
X539657Y162611D01*
X541178Y161506D01*
X542506Y160178D01*
X543611Y158657D01*
X544464Y156983D01*
X545045Y155196D01*
X545085Y154939D01*
X535939Y154939D01*
G37*
%LPD*%
%LPC*%
G36*
X78739Y154939D02*
X78739Y154939D01*
X78739Y175261D01*
X87885Y175261D01*
X87845Y175004D01*
X87264Y173217D01*
X86411Y171543D01*
X85306Y170022D01*
X83978Y168694D01*
X82457Y167589D01*
X80783Y166736D01*
X80207Y166549D01*
X80165Y166530D01*
X80121Y166518D01*
X80007Y166457D01*
X79890Y166404D01*
X79854Y166376D01*
X79813Y166355D01*
X79716Y166270D01*
X79614Y166191D01*
X79585Y166155D01*
X79551Y166125D01*
X79476Y166021D01*
X79394Y165920D01*
X79374Y165879D01*
X79347Y165842D01*
X79298Y165723D01*
X79241Y165607D01*
X79231Y165563D01*
X79213Y165521D01*
X79192Y165393D01*
X79163Y165267D01*
X79163Y165222D01*
X79156Y165177D01*
X79164Y165048D01*
X79165Y164919D01*
X79175Y164875D01*
X79178Y164829D01*
X79216Y164706D01*
X79246Y164580D01*
X79266Y164539D01*
X79279Y164496D01*
X79343Y164384D01*
X79401Y164268D01*
X79430Y164233D01*
X79453Y164194D01*
X79541Y164099D01*
X79624Y164000D01*
X79660Y163972D01*
X79691Y163939D01*
X79799Y163867D01*
X79901Y163789D01*
X79943Y163771D01*
X79981Y163745D01*
X80207Y163651D01*
X80783Y163464D01*
X82457Y162611D01*
X83978Y161506D01*
X85306Y160178D01*
X86411Y158657D01*
X87264Y156983D01*
X87845Y155196D01*
X87885Y154939D01*
X78739Y154939D01*
G37*
%LPD*%
%LPC*%
G36*
X521715Y154939D02*
X521715Y154939D01*
X521755Y155196D01*
X522336Y156983D01*
X523189Y158657D01*
X524294Y160178D01*
X525622Y161506D01*
X527143Y162611D01*
X528817Y163464D01*
X529393Y163651D01*
X529435Y163670D01*
X529479Y163682D01*
X529593Y163742D01*
X529710Y163796D01*
X529746Y163824D01*
X529787Y163845D01*
X529884Y163930D01*
X529986Y164009D01*
X530015Y164045D01*
X530049Y164075D01*
X530125Y164179D01*
X530206Y164280D01*
X530226Y164321D01*
X530253Y164357D01*
X530302Y164476D01*
X530359Y164593D01*
X530369Y164637D01*
X530387Y164679D01*
X530408Y164807D01*
X530437Y164932D01*
X530437Y164978D01*
X530444Y165023D01*
X530436Y165152D01*
X530435Y165281D01*
X530425Y165325D01*
X530422Y165371D01*
X530384Y165494D01*
X530354Y165620D01*
X530334Y165661D01*
X530321Y165704D01*
X530256Y165816D01*
X530199Y165932D01*
X530170Y165967D01*
X530147Y166006D01*
X530059Y166101D01*
X529976Y166200D01*
X529940Y166228D01*
X529909Y166261D01*
X529802Y166333D01*
X529699Y166411D01*
X529657Y166429D01*
X529619Y166455D01*
X529393Y166549D01*
X528817Y166736D01*
X527143Y167589D01*
X525622Y168694D01*
X524294Y170022D01*
X523189Y171543D01*
X522336Y173217D01*
X521755Y175004D01*
X521715Y175261D01*
X530861Y175261D01*
X530861Y154939D01*
X521715Y154939D01*
G37*
%LPD*%
%LPC*%
G36*
X64515Y154939D02*
X64515Y154939D01*
X64555Y155196D01*
X65136Y156983D01*
X65989Y158657D01*
X67094Y160178D01*
X68422Y161506D01*
X69943Y162611D01*
X71617Y163464D01*
X72193Y163651D01*
X72235Y163670D01*
X72279Y163682D01*
X72393Y163742D01*
X72510Y163796D01*
X72546Y163824D01*
X72587Y163845D01*
X72684Y163930D01*
X72786Y164009D01*
X72815Y164045D01*
X72849Y164075D01*
X72925Y164179D01*
X73006Y164280D01*
X73026Y164321D01*
X73053Y164357D01*
X73102Y164476D01*
X73159Y164593D01*
X73169Y164637D01*
X73187Y164679D01*
X73208Y164807D01*
X73237Y164932D01*
X73237Y164978D01*
X73244Y165023D01*
X73236Y165152D01*
X73235Y165281D01*
X73225Y165325D01*
X73222Y165371D01*
X73184Y165494D01*
X73154Y165620D01*
X73134Y165661D01*
X73121Y165704D01*
X73056Y165816D01*
X72999Y165932D01*
X72970Y165967D01*
X72947Y166006D01*
X72859Y166101D01*
X72776Y166200D01*
X72740Y166228D01*
X72709Y166261D01*
X72602Y166333D01*
X72499Y166411D01*
X72457Y166429D01*
X72419Y166455D01*
X72193Y166549D01*
X71617Y166736D01*
X69943Y167589D01*
X68422Y168694D01*
X67094Y170022D01*
X65989Y171543D01*
X65136Y173217D01*
X64555Y175004D01*
X64515Y175261D01*
X73661Y175261D01*
X73661Y154939D01*
X64515Y154939D01*
G37*
%LPD*%
%LPC*%
G36*
X116839Y541019D02*
X116839Y541019D01*
X116839Y550165D01*
X117096Y550125D01*
X118883Y549544D01*
X120557Y548691D01*
X122078Y547586D01*
X123406Y546258D01*
X124511Y544737D01*
X125364Y543063D01*
X125945Y541276D01*
X125985Y541019D01*
X116839Y541019D01*
G37*
%LPD*%
%LPC*%
G36*
X245199Y200031D02*
X245199Y200031D01*
X245199Y209177D01*
X245456Y209137D01*
X247243Y208556D01*
X248917Y207703D01*
X250438Y206598D01*
X251766Y205270D01*
X252871Y203749D01*
X253724Y202075D01*
X254305Y200288D01*
X254345Y200031D01*
X245199Y200031D01*
G37*
%LPD*%
%LPC*%
G36*
X535939Y180339D02*
X535939Y180339D01*
X535939Y189485D01*
X536196Y189445D01*
X537983Y188864D01*
X539657Y188011D01*
X541178Y186906D01*
X542506Y185578D01*
X543611Y184057D01*
X544464Y182383D01*
X545045Y180596D01*
X545085Y180339D01*
X535939Y180339D01*
G37*
%LPD*%
%LPC*%
G36*
X78739Y180339D02*
X78739Y180339D01*
X78739Y189485D01*
X78996Y189445D01*
X80783Y188864D01*
X82457Y188011D01*
X83978Y186906D01*
X85306Y185578D01*
X86411Y184057D01*
X87264Y182383D01*
X87845Y180596D01*
X87885Y180339D01*
X78739Y180339D01*
G37*
%LPD*%
%LPC*%
G36*
X229869Y64312D02*
X229869Y64312D01*
X229869Y73458D01*
X230126Y73418D01*
X231913Y72837D01*
X233587Y71984D01*
X235108Y70879D01*
X236436Y69550D01*
X237541Y68030D01*
X238394Y66356D01*
X238975Y64569D01*
X239015Y64312D01*
X229869Y64312D01*
G37*
%LPD*%
%LPC*%
G36*
X116839Y535941D02*
X116839Y535941D01*
X125985Y535941D01*
X125945Y535684D01*
X125364Y533897D01*
X124511Y532223D01*
X123406Y530702D01*
X122078Y529374D01*
X120557Y528269D01*
X118883Y527416D01*
X117096Y526835D01*
X116839Y526795D01*
X116839Y535941D01*
G37*
%LPD*%
%LPC*%
G36*
X230975Y200031D02*
X230975Y200031D01*
X231015Y200288D01*
X231596Y202075D01*
X232449Y203749D01*
X233554Y205270D01*
X234882Y206598D01*
X236403Y207703D01*
X238077Y208556D01*
X239864Y209137D01*
X240121Y209177D01*
X240121Y200031D01*
X230975Y200031D01*
G37*
%LPD*%
%LPC*%
G36*
X245199Y194953D02*
X245199Y194953D01*
X254345Y194953D01*
X254305Y194696D01*
X253724Y192909D01*
X252871Y191235D01*
X251766Y189714D01*
X250438Y188386D01*
X248917Y187281D01*
X247243Y186428D01*
X245456Y185847D01*
X245199Y185807D01*
X245199Y194953D01*
G37*
%LPD*%
%LPC*%
G36*
X521715Y180339D02*
X521715Y180339D01*
X521755Y180596D01*
X522336Y182383D01*
X523189Y184057D01*
X524294Y185578D01*
X525622Y186906D01*
X527143Y188011D01*
X528817Y188864D01*
X530604Y189445D01*
X530861Y189485D01*
X530861Y180339D01*
X521715Y180339D01*
G37*
%LPD*%
%LPC*%
G36*
X64515Y180339D02*
X64515Y180339D01*
X64555Y180596D01*
X65136Y182383D01*
X65989Y184057D01*
X67094Y185578D01*
X68422Y186906D01*
X69943Y188011D01*
X71617Y188864D01*
X73404Y189445D01*
X73661Y189485D01*
X73661Y180339D01*
X64515Y180339D01*
G37*
%LPD*%
%LPC*%
G36*
X434339Y137161D02*
X434339Y137161D01*
X443485Y137161D01*
X443445Y136904D01*
X442864Y135117D01*
X442011Y133443D01*
X440906Y131922D01*
X439578Y130594D01*
X438057Y129489D01*
X436383Y128636D01*
X434596Y128055D01*
X434339Y128015D01*
X434339Y137161D01*
G37*
%LPD*%
%LPC*%
G36*
X215645Y64312D02*
X215645Y64312D01*
X215685Y64569D01*
X216266Y66356D01*
X217119Y68030D01*
X218224Y69550D01*
X219552Y70879D01*
X221073Y71984D01*
X222747Y72837D01*
X224534Y73418D01*
X224791Y73458D01*
X224791Y64312D01*
X215645Y64312D01*
G37*
%LPD*%
%LPC*%
G36*
X239864Y185847D02*
X239864Y185847D01*
X238077Y186428D01*
X236403Y187281D01*
X234882Y188386D01*
X233554Y189714D01*
X232449Y191235D01*
X231596Y192909D01*
X231015Y194696D01*
X230975Y194953D01*
X240121Y194953D01*
X240121Y185807D01*
X239864Y185847D01*
G37*
%LPD*%
%LPC*%
G36*
X429004Y128055D02*
X429004Y128055D01*
X427217Y128636D01*
X425543Y129489D01*
X424022Y130594D01*
X422694Y131922D01*
X421589Y133443D01*
X420736Y135117D01*
X420155Y136904D01*
X420115Y137161D01*
X429261Y137161D01*
X429261Y128015D01*
X429004Y128055D01*
G37*
%LPD*%
D10*
X76200Y457200D03*
D11*
X76200Y431800D03*
X76200Y406400D03*
X76200Y381000D03*
X76200Y355600D03*
X76200Y330200D03*
X76200Y304800D03*
X76200Y279400D03*
X76200Y254000D03*
X76200Y228600D03*
X533400Y431800D03*
X533400Y406400D03*
X533400Y381000D03*
X533400Y355600D03*
X533400Y330200D03*
X533400Y304800D03*
X533400Y279400D03*
X533400Y254000D03*
X533400Y457200D03*
X533400Y228600D03*
X101600Y431800D03*
X101600Y406400D03*
X101600Y381000D03*
X101600Y355600D03*
X101600Y330200D03*
X101600Y304800D03*
X101600Y279400D03*
X101600Y254000D03*
X101600Y228600D03*
X101600Y457200D03*
X508000Y431800D03*
X508000Y406400D03*
X508000Y381000D03*
X508000Y355600D03*
X508000Y330200D03*
X508000Y304800D03*
X508000Y279400D03*
X508000Y254000D03*
X508000Y457200D03*
X508000Y228600D03*
D10*
X533400Y127000D03*
D11*
X533400Y152400D03*
X533400Y177800D03*
D10*
X76200Y127000D03*
D11*
X76200Y152400D03*
X76200Y177800D03*
X266700Y444500D03*
X292100Y444500D03*
X431800Y215900D03*
X431800Y190500D03*
X431800Y165100D03*
X431800Y139700D03*
X38100Y538480D03*
X63500Y538480D03*
X88900Y538480D03*
X114300Y538480D03*
X355600Y152400D03*
X355600Y127000D03*
X227330Y61773D03*
X227330Y36373D03*
X74930Y35560D03*
X74930Y60960D03*
X74930Y86360D03*
X166660Y197492D03*
X242660Y197492D03*
D12*
X231117Y411021D03*
D13*
X76200Y457200D02*
X76200Y468630D01*
X81280Y473710D01*
X168551Y473710D01*
X231117Y411021D01*
D12*
X368300Y393700D03*
D13*
X368300Y368300D01*
D12*
X368300Y368300D03*
X443967Y304800D03*
D13*
X444017Y304912D02*
X444017Y331800D01*
X444017Y304912D02*
X443967Y304800D01*
D12*
X444017Y331800D03*
X279400Y414020D03*
M02*
