G04 EAGLE Gerber RS-274X export*
G75*
%MOMM*%
%FSLAX34Y34*%
%LPD*%
%INTop Copper*%
%IPPOS*%
%AMOC8*
5,1,8,0,0,1.08239X$1,22.5*%
G01*
%ADD10R,1.879600X1.879600*%
%ADD11C,1.879600*%
%ADD12R,0.635000X1.270000*%
%ADD13R,1.100000X1.000000*%
%ADD14R,0.300000X1.450000*%
%ADD15R,1.000000X1.400000*%
%ADD16R,0.800000X1.200000*%
%ADD17C,0.304800*%
%ADD18C,1.006400*%
%ADD19C,0.508000*%

G36*
X571780Y10926D02*
X571780Y10926D01*
X571806Y10924D01*
X571953Y10946D01*
X572100Y10963D01*
X572125Y10971D01*
X572151Y10975D01*
X572289Y11030D01*
X572428Y11080D01*
X572450Y11094D01*
X572475Y11104D01*
X572596Y11189D01*
X572721Y11269D01*
X572739Y11288D01*
X572761Y11303D01*
X572860Y11413D01*
X572963Y11520D01*
X572977Y11542D01*
X572994Y11562D01*
X573066Y11692D01*
X573142Y11819D01*
X573150Y11844D01*
X573163Y11867D01*
X573203Y12010D01*
X573248Y12151D01*
X573250Y12177D01*
X573258Y12202D01*
X573277Y12446D01*
X573277Y558800D01*
X573274Y558826D01*
X573276Y558852D01*
X573254Y558999D01*
X573237Y559146D01*
X573229Y559171D01*
X573225Y559197D01*
X573170Y559335D01*
X573120Y559474D01*
X573106Y559496D01*
X573096Y559521D01*
X573011Y559642D01*
X572931Y559767D01*
X572912Y559785D01*
X572897Y559807D01*
X572787Y559906D01*
X572680Y560009D01*
X572658Y560023D01*
X572638Y560040D01*
X572508Y560112D01*
X572381Y560188D01*
X572356Y560196D01*
X572333Y560209D01*
X572190Y560249D01*
X572049Y560294D01*
X572023Y560296D01*
X571998Y560304D01*
X571754Y560323D01*
X12446Y560323D01*
X12420Y560320D01*
X12394Y560322D01*
X12247Y560300D01*
X12100Y560283D01*
X12075Y560275D01*
X12049Y560271D01*
X11911Y560216D01*
X11772Y560166D01*
X11750Y560152D01*
X11725Y560142D01*
X11604Y560057D01*
X11479Y559977D01*
X11461Y559958D01*
X11439Y559943D01*
X11340Y559833D01*
X11237Y559726D01*
X11223Y559704D01*
X11206Y559684D01*
X11134Y559554D01*
X11058Y559427D01*
X11050Y559402D01*
X11037Y559379D01*
X10997Y559236D01*
X10952Y559095D01*
X10950Y559069D01*
X10942Y559044D01*
X10923Y558800D01*
X10923Y12446D01*
X10926Y12420D01*
X10924Y12394D01*
X10946Y12247D01*
X10963Y12100D01*
X10971Y12075D01*
X10975Y12049D01*
X11030Y11911D01*
X11080Y11772D01*
X11094Y11750D01*
X11104Y11725D01*
X11189Y11604D01*
X11269Y11479D01*
X11288Y11461D01*
X11303Y11439D01*
X11413Y11340D01*
X11520Y11237D01*
X11542Y11223D01*
X11562Y11206D01*
X11692Y11134D01*
X11819Y11058D01*
X11844Y11050D01*
X11867Y11037D01*
X12010Y10997D01*
X12151Y10952D01*
X12177Y10950D01*
X12202Y10942D01*
X12446Y10923D01*
X571754Y10923D01*
X571780Y10926D01*
G37*
%LPC*%
G36*
X72252Y22097D02*
X72252Y22097D01*
X67304Y24147D01*
X63517Y27934D01*
X61467Y32882D01*
X61467Y38238D01*
X63517Y43186D01*
X67514Y47183D01*
X67530Y47203D01*
X67550Y47220D01*
X67638Y47340D01*
X67730Y47456D01*
X67742Y47480D01*
X67757Y47501D01*
X67816Y47637D01*
X67879Y47771D01*
X67885Y47797D01*
X67895Y47821D01*
X67921Y47967D01*
X67953Y48112D01*
X67952Y48138D01*
X67957Y48164D01*
X67949Y48312D01*
X67947Y48460D01*
X67940Y48486D01*
X67939Y48512D01*
X67898Y48654D01*
X67862Y48798D01*
X67850Y48821D01*
X67842Y48847D01*
X67770Y48976D01*
X67702Y49108D01*
X67685Y49128D01*
X67672Y49151D01*
X67514Y49337D01*
X63517Y53334D01*
X63483Y53415D01*
X63446Y53482D01*
X63418Y53553D01*
X63362Y53633D01*
X63314Y53719D01*
X63263Y53776D01*
X63219Y53839D01*
X63146Y53905D01*
X63080Y53978D01*
X63017Y54021D01*
X62960Y54072D01*
X62874Y54120D01*
X62793Y54176D01*
X62722Y54204D01*
X62655Y54241D01*
X62561Y54268D01*
X62469Y54304D01*
X62393Y54315D01*
X62320Y54336D01*
X62171Y54348D01*
X62124Y54355D01*
X62105Y54353D01*
X62076Y54355D01*
X60916Y54355D01*
X58489Y55361D01*
X51551Y62299D01*
X50545Y64726D01*
X50545Y119424D01*
X51551Y121851D01*
X62291Y132592D01*
X62370Y132691D01*
X62454Y132785D01*
X62478Y132827D01*
X62508Y132865D01*
X62562Y132979D01*
X62623Y133090D01*
X62636Y133136D01*
X62657Y133180D01*
X62683Y133303D01*
X62718Y133425D01*
X62723Y133486D01*
X62730Y133520D01*
X62729Y133568D01*
X62737Y133669D01*
X62737Y138082D01*
X65118Y140463D01*
X67631Y140463D01*
X67676Y140468D01*
X67722Y140465D01*
X67849Y140488D01*
X67977Y140503D01*
X68020Y140518D01*
X68065Y140526D01*
X68183Y140577D01*
X68305Y140620D01*
X68343Y140645D01*
X68385Y140663D01*
X68489Y140739D01*
X68598Y140809D01*
X68630Y140842D01*
X68666Y140869D01*
X68750Y140967D01*
X68840Y141060D01*
X68864Y141099D01*
X68893Y141134D01*
X68953Y141248D01*
X69019Y141359D01*
X69033Y141402D01*
X69054Y141443D01*
X69086Y141568D01*
X69125Y141691D01*
X69129Y141736D01*
X69140Y141780D01*
X69143Y141910D01*
X69153Y142038D01*
X69146Y142083D01*
X69147Y142129D01*
X69121Y142255D01*
X69101Y142383D01*
X69085Y142425D01*
X69075Y142470D01*
X69020Y142587D01*
X68973Y142707D01*
X68947Y142744D01*
X68927Y142785D01*
X68847Y142887D01*
X68774Y142993D01*
X68740Y143023D01*
X68712Y143059D01*
X68526Y143218D01*
X68422Y143294D01*
X67094Y144622D01*
X65989Y146143D01*
X65136Y147817D01*
X64555Y149604D01*
X64515Y149861D01*
X75184Y149861D01*
X75210Y149864D01*
X75236Y149862D01*
X75383Y149884D01*
X75530Y149901D01*
X75555Y149909D01*
X75581Y149913D01*
X75718Y149968D01*
X75858Y150018D01*
X75880Y150032D01*
X75905Y150042D01*
X76026Y150127D01*
X76151Y150207D01*
X76169Y150226D01*
X76191Y150241D01*
X76205Y150257D01*
X76290Y150175D01*
X76313Y150161D01*
X76332Y150144D01*
X76462Y150072D01*
X76589Y149996D01*
X76614Y149988D01*
X76637Y149975D01*
X76780Y149935D01*
X76921Y149890D01*
X76947Y149887D01*
X76972Y149880D01*
X77216Y149861D01*
X87885Y149861D01*
X87845Y149604D01*
X87264Y147817D01*
X86411Y146143D01*
X85306Y144622D01*
X83978Y143294D01*
X83874Y143218D01*
X83840Y143188D01*
X83802Y143163D01*
X83712Y143070D01*
X83617Y142983D01*
X83592Y142945D01*
X83560Y142912D01*
X83494Y142801D01*
X83421Y142695D01*
X83404Y142652D01*
X83381Y142613D01*
X83342Y142490D01*
X83295Y142370D01*
X83289Y142325D01*
X83275Y142281D01*
X83264Y142153D01*
X83246Y142025D01*
X83251Y141979D01*
X83247Y141934D01*
X83266Y141806D01*
X83278Y141678D01*
X83292Y141634D01*
X83299Y141589D01*
X83346Y141469D01*
X83387Y141347D01*
X83410Y141308D01*
X83427Y141265D01*
X83501Y141159D01*
X83568Y141049D01*
X83600Y141017D01*
X83626Y140979D01*
X83722Y140893D01*
X83813Y140801D01*
X83851Y140776D01*
X83885Y140746D01*
X83998Y140683D01*
X84107Y140614D01*
X84150Y140599D01*
X84190Y140577D01*
X84314Y140542D01*
X84436Y140500D01*
X84482Y140495D01*
X84525Y140482D01*
X84769Y140463D01*
X87282Y140463D01*
X89663Y138082D01*
X89663Y135128D01*
X89666Y135102D01*
X89664Y135076D01*
X89686Y134929D01*
X89703Y134782D01*
X89711Y134757D01*
X89715Y134731D01*
X89770Y134593D01*
X89820Y134454D01*
X89834Y134432D01*
X89844Y134407D01*
X89929Y134286D01*
X90009Y134161D01*
X90028Y134143D01*
X90043Y134121D01*
X90153Y134022D01*
X90260Y133919D01*
X90282Y133905D01*
X90302Y133888D01*
X90432Y133816D01*
X90559Y133740D01*
X90584Y133732D01*
X90607Y133719D01*
X90750Y133679D01*
X90891Y133634D01*
X90917Y133632D01*
X90942Y133624D01*
X91186Y133605D01*
X193162Y133605D01*
X193188Y133608D01*
X193214Y133606D01*
X193361Y133628D01*
X193508Y133645D01*
X193533Y133653D01*
X193559Y133657D01*
X193697Y133712D01*
X193836Y133762D01*
X193858Y133776D01*
X193883Y133786D01*
X194004Y133871D01*
X194129Y133951D01*
X194147Y133970D01*
X194169Y133985D01*
X194268Y134095D01*
X194371Y134202D01*
X194385Y134224D01*
X194402Y134244D01*
X194474Y134374D01*
X194550Y134501D01*
X194558Y134526D01*
X194571Y134549D01*
X194611Y134692D01*
X194656Y134833D01*
X194658Y134859D01*
X194666Y134884D01*
X194685Y135128D01*
X194685Y228189D01*
X194671Y228315D01*
X194664Y228441D01*
X194651Y228488D01*
X194645Y228536D01*
X194603Y228655D01*
X194568Y228776D01*
X194544Y228818D01*
X194528Y228864D01*
X194459Y228970D01*
X194398Y229080D01*
X194358Y229127D01*
X194339Y229157D01*
X194304Y229190D01*
X194239Y229266D01*
X192225Y231280D01*
X192225Y248851D01*
X192242Y248887D01*
X192263Y248985D01*
X192294Y249081D01*
X192300Y249155D01*
X192315Y249227D01*
X192314Y249328D01*
X192322Y249428D01*
X192311Y249502D01*
X192309Y249576D01*
X192285Y249673D01*
X192270Y249773D01*
X192243Y249842D01*
X192225Y249914D01*
X192179Y250003D01*
X192141Y250097D01*
X192099Y250158D01*
X192065Y250224D01*
X192000Y250300D01*
X191942Y250383D01*
X191887Y250433D01*
X191839Y250489D01*
X191758Y250549D01*
X191684Y250616D01*
X191619Y250652D01*
X191559Y250696D01*
X191467Y250736D01*
X191379Y250785D01*
X191307Y250805D01*
X191239Y250834D01*
X191140Y250852D01*
X191043Y250880D01*
X190943Y250888D01*
X190896Y250896D01*
X190860Y250894D01*
X190799Y250899D01*
X185106Y250899D01*
X182725Y253280D01*
X182725Y253836D01*
X182722Y253862D01*
X182724Y253888D01*
X182702Y254035D01*
X182685Y254182D01*
X182677Y254207D01*
X182673Y254233D01*
X182618Y254371D01*
X182568Y254510D01*
X182554Y254532D01*
X182544Y254557D01*
X182459Y254678D01*
X182379Y254803D01*
X182360Y254821D01*
X182345Y254843D01*
X182235Y254942D01*
X182128Y255045D01*
X182106Y255059D01*
X182086Y255076D01*
X181956Y255148D01*
X181829Y255224D01*
X181804Y255232D01*
X181781Y255245D01*
X181638Y255285D01*
X181497Y255330D01*
X181471Y255332D01*
X181446Y255340D01*
X181202Y255359D01*
X180749Y255359D01*
X180623Y255345D01*
X180497Y255338D01*
X180451Y255325D01*
X180403Y255319D01*
X180284Y255277D01*
X180162Y255242D01*
X180120Y255218D01*
X180074Y255202D01*
X179968Y255133D01*
X179858Y255072D01*
X179812Y255032D01*
X179782Y255013D01*
X179748Y254978D01*
X179672Y254913D01*
X173711Y248952D01*
X173632Y248853D01*
X173548Y248759D01*
X173524Y248717D01*
X173494Y248679D01*
X173440Y248565D01*
X173379Y248454D01*
X173366Y248408D01*
X173345Y248364D01*
X173319Y248241D01*
X173284Y248119D01*
X173279Y248058D01*
X173272Y248024D01*
X173273Y247976D01*
X173265Y247875D01*
X173265Y210346D01*
X173273Y210270D01*
X173272Y210194D01*
X173293Y210098D01*
X173305Y210000D01*
X173330Y209928D01*
X173347Y209853D01*
X173389Y209764D01*
X173422Y209672D01*
X173464Y209607D01*
X173496Y209538D01*
X173558Y209462D01*
X173611Y209379D01*
X173666Y209326D01*
X173714Y209266D01*
X173791Y209205D01*
X173862Y209137D01*
X173927Y209097D01*
X173987Y209050D01*
X174120Y208982D01*
X174161Y208958D01*
X174179Y208952D01*
X174205Y208939D01*
X174286Y208905D01*
X178073Y205118D01*
X180123Y200170D01*
X180123Y194814D01*
X178073Y189866D01*
X174286Y186079D01*
X169338Y184029D01*
X163982Y184029D01*
X159034Y186079D01*
X155247Y189866D01*
X153197Y194814D01*
X153197Y200170D01*
X155247Y205118D01*
X159034Y208905D01*
X159115Y208939D01*
X159182Y208976D01*
X159253Y209004D01*
X159333Y209060D01*
X159419Y209108D01*
X159476Y209159D01*
X159539Y209203D01*
X159605Y209276D01*
X159678Y209342D01*
X159721Y209405D01*
X159772Y209462D01*
X159820Y209548D01*
X159876Y209629D01*
X159904Y209700D01*
X159941Y209767D01*
X159968Y209861D01*
X160004Y209953D01*
X160015Y210029D01*
X160036Y210102D01*
X160048Y210251D01*
X160055Y210298D01*
X160053Y210317D01*
X160055Y210346D01*
X160055Y249502D01*
X160055Y249504D01*
X160055Y249506D01*
X160036Y249671D01*
X160019Y249815D01*
X160019Y252520D01*
X161025Y254947D01*
X173641Y267563D01*
X176068Y268569D01*
X181202Y268569D01*
X181228Y268572D01*
X181254Y268570D01*
X181401Y268592D01*
X181548Y268609D01*
X181573Y268617D01*
X181599Y268621D01*
X181737Y268676D01*
X181876Y268726D01*
X181898Y268740D01*
X181923Y268750D01*
X182044Y268835D01*
X182169Y268915D01*
X182187Y268934D01*
X182209Y268949D01*
X182308Y269059D01*
X182411Y269166D01*
X182425Y269188D01*
X182442Y269208D01*
X182514Y269338D01*
X182590Y269465D01*
X182598Y269490D01*
X182611Y269513D01*
X182651Y269656D01*
X182696Y269797D01*
X182698Y269823D01*
X182706Y269848D01*
X182725Y270092D01*
X182725Y271272D01*
X182722Y271298D01*
X182724Y271324D01*
X182702Y271471D01*
X182685Y271618D01*
X182677Y271643D01*
X182673Y271669D01*
X182618Y271807D01*
X182568Y271946D01*
X182554Y271968D01*
X182544Y271993D01*
X182459Y272114D01*
X182379Y272239D01*
X182360Y272257D01*
X182345Y272279D01*
X182235Y272378D01*
X182128Y272481D01*
X182106Y272495D01*
X182086Y272512D01*
X181956Y272584D01*
X181829Y272660D01*
X181804Y272668D01*
X181781Y272681D01*
X181638Y272721D01*
X181497Y272766D01*
X181471Y272768D01*
X181446Y272776D01*
X181202Y272795D01*
X114454Y272795D01*
X114378Y272787D01*
X114302Y272788D01*
X114205Y272767D01*
X114108Y272755D01*
X114036Y272730D01*
X113961Y272713D01*
X113872Y272671D01*
X113780Y272638D01*
X113715Y272596D01*
X113647Y272564D01*
X113570Y272502D01*
X113487Y272449D01*
X113434Y272394D01*
X113374Y272346D01*
X113313Y272269D01*
X113245Y272198D01*
X113205Y272133D01*
X113158Y272073D01*
X113090Y271940D01*
X113066Y271899D01*
X113060Y271881D01*
X113047Y271855D01*
X113013Y271774D01*
X109016Y267777D01*
X109000Y267757D01*
X108980Y267740D01*
X108892Y267620D01*
X108800Y267504D01*
X108788Y267480D01*
X108773Y267459D01*
X108714Y267323D01*
X108651Y267189D01*
X108645Y267163D01*
X108635Y267139D01*
X108609Y266993D01*
X108577Y266848D01*
X108578Y266822D01*
X108573Y266796D01*
X108581Y266648D01*
X108583Y266500D01*
X108590Y266474D01*
X108591Y266448D01*
X108632Y266306D01*
X108668Y266162D01*
X108680Y266139D01*
X108688Y266113D01*
X108760Y265984D01*
X108828Y265852D01*
X108845Y265832D01*
X108858Y265809D01*
X109016Y265623D01*
X113013Y261626D01*
X115063Y256678D01*
X115063Y251322D01*
X113013Y246374D01*
X109016Y242377D01*
X109000Y242357D01*
X108980Y242340D01*
X108892Y242220D01*
X108800Y242104D01*
X108788Y242080D01*
X108773Y242059D01*
X108714Y241923D01*
X108651Y241789D01*
X108645Y241763D01*
X108635Y241739D01*
X108609Y241593D01*
X108577Y241448D01*
X108578Y241422D01*
X108573Y241396D01*
X108581Y241248D01*
X108583Y241100D01*
X108590Y241074D01*
X108591Y241048D01*
X108632Y240906D01*
X108668Y240762D01*
X108680Y240739D01*
X108688Y240713D01*
X108760Y240584D01*
X108828Y240452D01*
X108845Y240432D01*
X108858Y240409D01*
X109016Y240223D01*
X113013Y236226D01*
X115063Y231278D01*
X115063Y225922D01*
X113013Y220974D01*
X109226Y217187D01*
X104278Y215137D01*
X98922Y215137D01*
X93974Y217187D01*
X89977Y221184D01*
X89957Y221200D01*
X89940Y221220D01*
X89820Y221308D01*
X89704Y221400D01*
X89680Y221412D01*
X89659Y221427D01*
X89523Y221486D01*
X89389Y221549D01*
X89363Y221555D01*
X89339Y221565D01*
X89193Y221591D01*
X89048Y221623D01*
X89022Y221622D01*
X88996Y221627D01*
X88848Y221619D01*
X88700Y221617D01*
X88674Y221610D01*
X88648Y221609D01*
X88506Y221568D01*
X88362Y221532D01*
X88339Y221520D01*
X88313Y221512D01*
X88184Y221440D01*
X88052Y221372D01*
X88032Y221355D01*
X88009Y221342D01*
X87823Y221184D01*
X83826Y217187D01*
X78878Y215137D01*
X73522Y215137D01*
X68574Y217187D01*
X64787Y220974D01*
X62737Y225922D01*
X62737Y231278D01*
X64787Y236226D01*
X68784Y240223D01*
X68800Y240243D01*
X68820Y240260D01*
X68908Y240380D01*
X69000Y240496D01*
X69012Y240520D01*
X69027Y240541D01*
X69086Y240677D01*
X69149Y240811D01*
X69155Y240837D01*
X69165Y240861D01*
X69191Y241007D01*
X69223Y241152D01*
X69222Y241178D01*
X69227Y241204D01*
X69219Y241352D01*
X69217Y241500D01*
X69210Y241526D01*
X69209Y241552D01*
X69168Y241694D01*
X69132Y241838D01*
X69120Y241861D01*
X69112Y241887D01*
X69040Y242016D01*
X68972Y242148D01*
X68955Y242168D01*
X68942Y242191D01*
X68784Y242377D01*
X64787Y246374D01*
X62737Y251322D01*
X62737Y256678D01*
X64787Y261626D01*
X68784Y265623D01*
X68800Y265643D01*
X68820Y265660D01*
X68908Y265780D01*
X69000Y265896D01*
X69012Y265920D01*
X69027Y265941D01*
X69086Y266077D01*
X69149Y266211D01*
X69155Y266237D01*
X69165Y266261D01*
X69191Y266407D01*
X69223Y266552D01*
X69222Y266578D01*
X69227Y266604D01*
X69219Y266752D01*
X69217Y266900D01*
X69210Y266926D01*
X69209Y266952D01*
X69168Y267094D01*
X69132Y267238D01*
X69120Y267261D01*
X69112Y267287D01*
X69040Y267416D01*
X68972Y267548D01*
X68955Y267568D01*
X68942Y267591D01*
X68784Y267777D01*
X64787Y271774D01*
X62737Y276722D01*
X62737Y282078D01*
X64787Y287026D01*
X68784Y291023D01*
X68800Y291043D01*
X68820Y291060D01*
X68908Y291180D01*
X69000Y291296D01*
X69012Y291320D01*
X69027Y291341D01*
X69086Y291477D01*
X69149Y291611D01*
X69155Y291637D01*
X69165Y291661D01*
X69191Y291807D01*
X69223Y291952D01*
X69222Y291978D01*
X69227Y292004D01*
X69219Y292152D01*
X69217Y292300D01*
X69210Y292326D01*
X69209Y292352D01*
X69168Y292494D01*
X69132Y292638D01*
X69120Y292661D01*
X69112Y292687D01*
X69040Y292816D01*
X68972Y292948D01*
X68955Y292968D01*
X68942Y292991D01*
X68784Y293177D01*
X64787Y297174D01*
X62737Y302122D01*
X62737Y307478D01*
X64787Y312426D01*
X68784Y316423D01*
X68800Y316443D01*
X68820Y316460D01*
X68908Y316580D01*
X69000Y316696D01*
X69012Y316720D01*
X69027Y316741D01*
X69086Y316877D01*
X69149Y317011D01*
X69155Y317037D01*
X69165Y317061D01*
X69191Y317207D01*
X69223Y317352D01*
X69222Y317378D01*
X69227Y317404D01*
X69219Y317552D01*
X69217Y317700D01*
X69210Y317726D01*
X69209Y317752D01*
X69168Y317894D01*
X69132Y318038D01*
X69120Y318061D01*
X69112Y318087D01*
X69040Y318216D01*
X68972Y318348D01*
X68955Y318368D01*
X68942Y318391D01*
X68784Y318577D01*
X64787Y322574D01*
X62737Y327522D01*
X62737Y332878D01*
X64787Y337826D01*
X68784Y341823D01*
X68800Y341843D01*
X68820Y341860D01*
X68908Y341980D01*
X69000Y342096D01*
X69012Y342120D01*
X69027Y342141D01*
X69086Y342277D01*
X69149Y342411D01*
X69155Y342437D01*
X69165Y342461D01*
X69191Y342607D01*
X69223Y342752D01*
X69222Y342778D01*
X69227Y342804D01*
X69219Y342952D01*
X69217Y343100D01*
X69210Y343126D01*
X69209Y343152D01*
X69168Y343294D01*
X69132Y343438D01*
X69120Y343461D01*
X69112Y343487D01*
X69040Y343616D01*
X68972Y343748D01*
X68955Y343768D01*
X68942Y343791D01*
X68784Y343977D01*
X64787Y347974D01*
X62737Y352922D01*
X62737Y358278D01*
X64787Y363226D01*
X68784Y367223D01*
X68800Y367243D01*
X68820Y367260D01*
X68908Y367380D01*
X69000Y367496D01*
X69012Y367520D01*
X69027Y367541D01*
X69086Y367677D01*
X69149Y367811D01*
X69155Y367837D01*
X69165Y367861D01*
X69191Y368007D01*
X69223Y368152D01*
X69222Y368178D01*
X69227Y368204D01*
X69219Y368352D01*
X69217Y368500D01*
X69210Y368526D01*
X69209Y368552D01*
X69168Y368694D01*
X69132Y368838D01*
X69120Y368861D01*
X69112Y368887D01*
X69040Y369016D01*
X68972Y369148D01*
X68955Y369168D01*
X68942Y369191D01*
X68784Y369377D01*
X64787Y373374D01*
X64332Y374471D01*
X64295Y374538D01*
X64267Y374609D01*
X64211Y374690D01*
X64163Y374776D01*
X64112Y374832D01*
X64068Y374895D01*
X63995Y374961D01*
X63929Y375034D01*
X63866Y375077D01*
X63809Y375128D01*
X63723Y375176D01*
X63642Y375232D01*
X63571Y375260D01*
X63504Y375297D01*
X63410Y375324D01*
X63318Y375360D01*
X63243Y375371D01*
X63169Y375392D01*
X63020Y375404D01*
X62973Y375411D01*
X62954Y375409D01*
X62925Y375411D01*
X62388Y375411D01*
X60334Y376262D01*
X33362Y403234D01*
X32511Y405288D01*
X32511Y525205D01*
X32503Y525281D01*
X32504Y525358D01*
X32483Y525454D01*
X32471Y525551D01*
X32446Y525623D01*
X32429Y525698D01*
X32387Y525787D01*
X32354Y525879D01*
X32312Y525944D01*
X32280Y526013D01*
X32218Y526090D01*
X32165Y526172D01*
X32110Y526225D01*
X32062Y526285D01*
X31985Y526346D01*
X31914Y526414D01*
X31849Y526454D01*
X31789Y526501D01*
X31656Y526569D01*
X31615Y526593D01*
X31597Y526599D01*
X31571Y526612D01*
X30474Y527067D01*
X26687Y530854D01*
X24637Y535802D01*
X24637Y541158D01*
X26687Y546106D01*
X30474Y549893D01*
X35422Y551943D01*
X40778Y551943D01*
X45726Y549893D01*
X49723Y545896D01*
X49743Y545880D01*
X49760Y545860D01*
X49880Y545772D01*
X49996Y545680D01*
X50020Y545668D01*
X50041Y545653D01*
X50177Y545594D01*
X50311Y545531D01*
X50337Y545525D01*
X50361Y545515D01*
X50507Y545489D01*
X50652Y545457D01*
X50678Y545458D01*
X50704Y545453D01*
X50852Y545461D01*
X51000Y545463D01*
X51026Y545470D01*
X51052Y545471D01*
X51194Y545512D01*
X51338Y545548D01*
X51361Y545560D01*
X51387Y545568D01*
X51516Y545640D01*
X51648Y545708D01*
X51668Y545725D01*
X51691Y545738D01*
X51877Y545896D01*
X55874Y549893D01*
X60822Y551943D01*
X66178Y551943D01*
X71126Y549893D01*
X75123Y545896D01*
X75143Y545880D01*
X75160Y545860D01*
X75280Y545772D01*
X75396Y545680D01*
X75420Y545668D01*
X75441Y545653D01*
X75577Y545594D01*
X75711Y545531D01*
X75737Y545525D01*
X75761Y545515D01*
X75907Y545489D01*
X76052Y545457D01*
X76078Y545458D01*
X76104Y545453D01*
X76252Y545461D01*
X76400Y545463D01*
X76426Y545470D01*
X76452Y545471D01*
X76594Y545512D01*
X76738Y545548D01*
X76761Y545560D01*
X76787Y545568D01*
X76916Y545640D01*
X77048Y545708D01*
X77068Y545725D01*
X77091Y545738D01*
X77277Y545896D01*
X81274Y549893D01*
X86222Y551943D01*
X91578Y551943D01*
X96526Y549893D01*
X100313Y546106D01*
X101055Y544316D01*
X101074Y544281D01*
X101088Y544242D01*
X101159Y544128D01*
X101224Y544011D01*
X101251Y543981D01*
X101273Y543947D01*
X101368Y543853D01*
X101458Y543753D01*
X101492Y543730D01*
X101520Y543701D01*
X101634Y543631D01*
X101745Y543555D01*
X101783Y543540D01*
X101817Y543519D01*
X101945Y543476D01*
X102069Y543427D01*
X102109Y543421D01*
X102148Y543408D01*
X102281Y543396D01*
X102414Y543376D01*
X102454Y543380D01*
X102495Y543376D01*
X102627Y543394D01*
X102761Y543405D01*
X102800Y543418D01*
X102840Y543423D01*
X102965Y543471D01*
X103093Y543512D01*
X103128Y543533D01*
X103166Y543548D01*
X103276Y543623D01*
X103391Y543692D01*
X103421Y543721D01*
X103454Y543743D01*
X103545Y543841D01*
X103641Y543935D01*
X103663Y543969D01*
X103691Y543999D01*
X103819Y544207D01*
X104089Y544737D01*
X105194Y546258D01*
X106522Y547586D01*
X108043Y548691D01*
X109717Y549544D01*
X111504Y550125D01*
X111761Y550165D01*
X111761Y539496D01*
X111764Y539470D01*
X111762Y539444D01*
X111784Y539297D01*
X111801Y539150D01*
X111809Y539125D01*
X111813Y539099D01*
X111868Y538962D01*
X111918Y538822D01*
X111932Y538800D01*
X111942Y538775D01*
X112027Y538654D01*
X112107Y538529D01*
X112126Y538511D01*
X112141Y538489D01*
X112157Y538475D01*
X112075Y538390D01*
X112061Y538367D01*
X112044Y538348D01*
X111972Y538218D01*
X111896Y538091D01*
X111888Y538066D01*
X111875Y538043D01*
X111835Y537900D01*
X111790Y537759D01*
X111787Y537733D01*
X111780Y537708D01*
X111761Y537464D01*
X111761Y526795D01*
X111504Y526835D01*
X109717Y527416D01*
X108043Y528269D01*
X106522Y529374D01*
X105194Y530702D01*
X104089Y532223D01*
X103819Y532753D01*
X103797Y532786D01*
X103780Y532824D01*
X103700Y532931D01*
X103626Y533043D01*
X103597Y533071D01*
X103572Y533104D01*
X103470Y533190D01*
X103373Y533282D01*
X103338Y533302D01*
X103306Y533329D01*
X103187Y533390D01*
X103071Y533457D01*
X103032Y533469D01*
X102996Y533487D01*
X102866Y533520D01*
X102738Y533559D01*
X102698Y533562D01*
X102658Y533572D01*
X102524Y533574D01*
X102390Y533583D01*
X102350Y533576D01*
X102310Y533577D01*
X102179Y533548D01*
X102046Y533527D01*
X102009Y533511D01*
X101969Y533502D01*
X101848Y533445D01*
X101724Y533394D01*
X101691Y533370D01*
X101654Y533353D01*
X101550Y533269D01*
X101441Y533191D01*
X101414Y533161D01*
X101382Y533135D01*
X101299Y533030D01*
X101210Y532930D01*
X101191Y532894D01*
X101166Y532862D01*
X101055Y532644D01*
X100313Y530854D01*
X96526Y527067D01*
X96445Y527033D01*
X96378Y526996D01*
X96307Y526968D01*
X96227Y526912D01*
X96141Y526864D01*
X96084Y526813D01*
X96021Y526769D01*
X95955Y526696D01*
X95882Y526630D01*
X95839Y526567D01*
X95788Y526510D01*
X95740Y526424D01*
X95684Y526343D01*
X95656Y526272D01*
X95619Y526205D01*
X95592Y526111D01*
X95556Y526019D01*
X95545Y525943D01*
X95524Y525870D01*
X95512Y525721D01*
X95505Y525674D01*
X95507Y525655D01*
X95505Y525626D01*
X95505Y485967D01*
X95519Y485841D01*
X95526Y485715D01*
X95539Y485669D01*
X95545Y485621D01*
X95587Y485502D01*
X95622Y485380D01*
X95646Y485338D01*
X95662Y485292D01*
X95731Y485186D01*
X95792Y485076D01*
X95832Y485030D01*
X95851Y485000D01*
X95886Y484966D01*
X95951Y484890D01*
X107199Y473641D01*
X108205Y471214D01*
X108205Y470054D01*
X108213Y469978D01*
X108212Y469902D01*
X108233Y469805D01*
X108245Y469708D01*
X108270Y469636D01*
X108287Y469561D01*
X108329Y469472D01*
X108362Y469380D01*
X108404Y469315D01*
X108436Y469247D01*
X108498Y469170D01*
X108551Y469087D01*
X108606Y469034D01*
X108654Y468974D01*
X108731Y468913D01*
X108802Y468845D01*
X108867Y468805D01*
X108927Y468758D01*
X109060Y468690D01*
X109101Y468666D01*
X109119Y468660D01*
X109145Y468647D01*
X109226Y468613D01*
X113013Y464826D01*
X115063Y459878D01*
X115063Y454522D01*
X113013Y449574D01*
X109016Y445577D01*
X109000Y445557D01*
X108980Y445540D01*
X108892Y445420D01*
X108800Y445304D01*
X108788Y445280D01*
X108773Y445259D01*
X108714Y445123D01*
X108651Y444989D01*
X108645Y444963D01*
X108635Y444939D01*
X108609Y444793D01*
X108577Y444648D01*
X108578Y444622D01*
X108573Y444596D01*
X108581Y444448D01*
X108583Y444300D01*
X108590Y444274D01*
X108591Y444248D01*
X108632Y444106D01*
X108668Y443962D01*
X108680Y443939D01*
X108688Y443913D01*
X108760Y443784D01*
X108828Y443652D01*
X108845Y443632D01*
X108858Y443609D01*
X109016Y443423D01*
X113013Y439426D01*
X115063Y434478D01*
X115063Y429122D01*
X113013Y424174D01*
X109016Y420177D01*
X109000Y420157D01*
X108980Y420140D01*
X108892Y420020D01*
X108800Y419904D01*
X108788Y419880D01*
X108773Y419859D01*
X108714Y419723D01*
X108651Y419589D01*
X108645Y419563D01*
X108635Y419539D01*
X108609Y419393D01*
X108577Y419248D01*
X108578Y419222D01*
X108573Y419196D01*
X108581Y419048D01*
X108583Y418900D01*
X108590Y418874D01*
X108591Y418848D01*
X108632Y418706D01*
X108668Y418562D01*
X108680Y418539D01*
X108688Y418513D01*
X108760Y418384D01*
X108828Y418252D01*
X108845Y418232D01*
X108858Y418209D01*
X109016Y418023D01*
X113013Y414026D01*
X115063Y409078D01*
X115063Y403722D01*
X113013Y398774D01*
X109016Y394777D01*
X109000Y394757D01*
X108980Y394740D01*
X108892Y394620D01*
X108800Y394504D01*
X108788Y394480D01*
X108773Y394459D01*
X108714Y394323D01*
X108651Y394189D01*
X108645Y394163D01*
X108635Y394139D01*
X108609Y393993D01*
X108577Y393848D01*
X108578Y393822D01*
X108573Y393796D01*
X108581Y393648D01*
X108583Y393500D01*
X108590Y393474D01*
X108591Y393448D01*
X108632Y393306D01*
X108668Y393162D01*
X108680Y393139D01*
X108688Y393113D01*
X108760Y392984D01*
X108828Y392852D01*
X108845Y392832D01*
X108858Y392809D01*
X109016Y392623D01*
X113013Y388626D01*
X115063Y383678D01*
X115063Y378322D01*
X113013Y373374D01*
X109016Y369377D01*
X109000Y369357D01*
X108980Y369340D01*
X108892Y369220D01*
X108800Y369104D01*
X108788Y369080D01*
X108773Y369059D01*
X108714Y368923D01*
X108651Y368789D01*
X108645Y368763D01*
X108635Y368739D01*
X108609Y368593D01*
X108577Y368448D01*
X108578Y368422D01*
X108573Y368396D01*
X108581Y368248D01*
X108583Y368100D01*
X108590Y368074D01*
X108591Y368048D01*
X108632Y367906D01*
X108668Y367762D01*
X108680Y367739D01*
X108688Y367713D01*
X108760Y367584D01*
X108828Y367452D01*
X108845Y367432D01*
X108858Y367409D01*
X109016Y367223D01*
X113013Y363226D01*
X115063Y358278D01*
X115063Y352922D01*
X113013Y347974D01*
X109016Y343977D01*
X109000Y343957D01*
X108980Y343940D01*
X108892Y343820D01*
X108800Y343704D01*
X108788Y343680D01*
X108773Y343659D01*
X108714Y343523D01*
X108651Y343389D01*
X108645Y343363D01*
X108635Y343339D01*
X108609Y343193D01*
X108577Y343048D01*
X108578Y343022D01*
X108573Y342996D01*
X108581Y342848D01*
X108583Y342700D01*
X108590Y342674D01*
X108591Y342648D01*
X108632Y342506D01*
X108668Y342362D01*
X108680Y342339D01*
X108688Y342313D01*
X108760Y342184D01*
X108828Y342052D01*
X108845Y342032D01*
X108858Y342009D01*
X109016Y341823D01*
X113013Y337826D01*
X115063Y332878D01*
X115063Y327522D01*
X113013Y322574D01*
X109016Y318577D01*
X109000Y318557D01*
X108980Y318540D01*
X108892Y318420D01*
X108800Y318304D01*
X108788Y318280D01*
X108773Y318259D01*
X108714Y318123D01*
X108651Y317989D01*
X108645Y317963D01*
X108635Y317939D01*
X108609Y317793D01*
X108577Y317648D01*
X108578Y317622D01*
X108573Y317596D01*
X108581Y317448D01*
X108583Y317300D01*
X108590Y317274D01*
X108591Y317248D01*
X108632Y317106D01*
X108668Y316962D01*
X108680Y316939D01*
X108688Y316913D01*
X108760Y316784D01*
X108828Y316652D01*
X108845Y316632D01*
X108858Y316609D01*
X109016Y316423D01*
X113013Y312426D01*
X115063Y307478D01*
X115063Y302122D01*
X114099Y299795D01*
X114057Y299650D01*
X114012Y299507D01*
X114010Y299483D01*
X114003Y299460D01*
X113996Y299309D01*
X113984Y299160D01*
X113987Y299136D01*
X113986Y299112D01*
X114013Y298964D01*
X114035Y298815D01*
X114044Y298793D01*
X114049Y298769D01*
X114109Y298631D01*
X114164Y298491D01*
X114178Y298471D01*
X114188Y298449D01*
X114277Y298328D01*
X114363Y298205D01*
X114381Y298189D01*
X114395Y298169D01*
X114510Y298072D01*
X114622Y297972D01*
X114643Y297960D01*
X114661Y297944D01*
X114795Y297876D01*
X114927Y297803D01*
X114950Y297797D01*
X114972Y297786D01*
X115117Y297749D01*
X115262Y297708D01*
X115291Y297706D01*
X115310Y297701D01*
X115357Y297701D01*
X115506Y297689D01*
X162154Y297689D01*
X162280Y297703D01*
X162406Y297710D01*
X162452Y297723D01*
X162500Y297729D01*
X162619Y297771D01*
X162741Y297806D01*
X162783Y297830D01*
X162828Y297846D01*
X162935Y297915D01*
X163045Y297976D01*
X163091Y298016D01*
X163121Y298035D01*
X163155Y298070D01*
X163231Y298135D01*
X223648Y358551D01*
X223648Y358552D01*
X225434Y360338D01*
X227488Y361189D01*
X266040Y361189D01*
X266140Y361200D01*
X266240Y361202D01*
X266312Y361220D01*
X266386Y361229D01*
X266481Y361262D01*
X266578Y361287D01*
X266644Y361321D01*
X266714Y361346D01*
X266799Y361401D01*
X266888Y361447D01*
X266945Y361495D01*
X267007Y361535D01*
X267077Y361607D01*
X267154Y361672D01*
X267198Y361732D01*
X267249Y361786D01*
X267301Y361872D01*
X267361Y361953D01*
X267390Y362021D01*
X267428Y362085D01*
X267459Y362181D01*
X267499Y362273D01*
X267512Y362346D01*
X267535Y362417D01*
X267543Y362517D01*
X267560Y362616D01*
X267557Y362690D01*
X267563Y362764D01*
X267548Y362864D01*
X267542Y362964D01*
X267522Y363035D01*
X267511Y363109D01*
X267474Y363202D01*
X267446Y363299D01*
X267410Y363364D01*
X267382Y363433D01*
X267325Y363515D01*
X267276Y363603D01*
X267211Y363679D01*
X267183Y363719D01*
X267157Y363743D01*
X267117Y363789D01*
X265849Y365058D01*
X265848Y365058D01*
X264062Y366844D01*
X263211Y368898D01*
X263211Y373438D01*
X263208Y373464D01*
X263210Y373490D01*
X263188Y373637D01*
X263171Y373784D01*
X263163Y373809D01*
X263159Y373835D01*
X263104Y373973D01*
X263054Y374112D01*
X263040Y374134D01*
X263030Y374159D01*
X262945Y374280D01*
X262865Y374405D01*
X262846Y374423D01*
X262831Y374445D01*
X262721Y374544D01*
X262614Y374647D01*
X262592Y374661D01*
X262572Y374678D01*
X262442Y374750D01*
X262315Y374826D01*
X262290Y374834D01*
X262267Y374847D01*
X262124Y374887D01*
X261983Y374932D01*
X261957Y374934D01*
X261932Y374942D01*
X261688Y374961D01*
X261539Y374961D01*
X261513Y374958D01*
X261487Y374960D01*
X261340Y374938D01*
X261193Y374921D01*
X261168Y374913D01*
X261142Y374909D01*
X261004Y374854D01*
X260865Y374804D01*
X260843Y374790D01*
X260818Y374780D01*
X260697Y374695D01*
X260572Y374615D01*
X260554Y374596D01*
X260532Y374581D01*
X260433Y374471D01*
X260330Y374364D01*
X260316Y374342D01*
X260299Y374322D01*
X260227Y374192D01*
X260151Y374065D01*
X260143Y374040D01*
X260130Y374017D01*
X260090Y373874D01*
X260045Y373733D01*
X260043Y373707D01*
X260035Y373682D01*
X260016Y373438D01*
X260016Y372910D01*
X257635Y370529D01*
X246267Y370529D01*
X243886Y372910D01*
X243886Y388281D01*
X243969Y388392D01*
X244061Y388508D01*
X244072Y388532D01*
X244088Y388553D01*
X244146Y388689D01*
X244210Y388823D01*
X244215Y388849D01*
X244226Y388873D01*
X244252Y389019D01*
X244283Y389164D01*
X244283Y389190D01*
X244287Y389216D01*
X244280Y389364D01*
X244277Y389512D01*
X244271Y389538D01*
X244269Y389564D01*
X244228Y389707D01*
X244192Y389850D01*
X244180Y389874D01*
X244173Y389899D01*
X244100Y390029D01*
X244033Y390160D01*
X244016Y390180D01*
X244003Y390203D01*
X243844Y390389D01*
X232756Y401478D01*
X232657Y401557D01*
X232563Y401641D01*
X232521Y401665D01*
X232483Y401695D01*
X232369Y401749D01*
X232258Y401810D01*
X232211Y401823D01*
X232168Y401843D01*
X232044Y401870D01*
X231922Y401904D01*
X231862Y401909D01*
X231827Y401917D01*
X231779Y401916D01*
X231679Y401924D01*
X229307Y401924D01*
X225964Y403309D01*
X223405Y405868D01*
X222020Y409211D01*
X222020Y412830D01*
X223405Y416174D01*
X225964Y418733D01*
X229307Y420118D01*
X232926Y420118D01*
X236269Y418733D01*
X238828Y416174D01*
X240213Y412830D01*
X240213Y410459D01*
X240228Y410333D01*
X240234Y410207D01*
X240248Y410161D01*
X240253Y410113D01*
X240296Y409994D01*
X240331Y409872D01*
X240354Y409830D01*
X240371Y409784D01*
X240439Y409678D01*
X240501Y409568D01*
X240540Y409522D01*
X240560Y409492D01*
X240594Y409458D01*
X240659Y409382D01*
X256689Y393352D01*
X257553Y391265D01*
X257554Y391259D01*
X257561Y391132D01*
X257574Y391086D01*
X257580Y391038D01*
X257622Y390919D01*
X257657Y390798D01*
X257681Y390755D01*
X257697Y390710D01*
X257766Y390604D01*
X257827Y390493D01*
X257867Y390447D01*
X257886Y390417D01*
X257921Y390384D01*
X257986Y390307D01*
X260016Y388277D01*
X260016Y387662D01*
X260019Y387636D01*
X260017Y387610D01*
X260039Y387463D01*
X260056Y387316D01*
X260064Y387291D01*
X260068Y387265D01*
X260123Y387127D01*
X260173Y386988D01*
X260187Y386966D01*
X260197Y386941D01*
X260282Y386820D01*
X260362Y386695D01*
X260381Y386677D01*
X260396Y386655D01*
X260506Y386556D01*
X260613Y386453D01*
X260635Y386439D01*
X260655Y386422D01*
X260785Y386350D01*
X260912Y386274D01*
X260937Y386266D01*
X260960Y386253D01*
X261103Y386213D01*
X261244Y386168D01*
X261270Y386166D01*
X261295Y386158D01*
X261539Y386139D01*
X261712Y386139D01*
X261738Y386142D01*
X261764Y386140D01*
X261911Y386162D01*
X262058Y386179D01*
X262083Y386187D01*
X262109Y386191D01*
X262247Y386246D01*
X262386Y386296D01*
X262408Y386310D01*
X262433Y386320D01*
X262554Y386405D01*
X262679Y386485D01*
X262697Y386504D01*
X262719Y386519D01*
X262818Y386629D01*
X262921Y386736D01*
X262935Y386758D01*
X262952Y386778D01*
X263024Y386908D01*
X263100Y387035D01*
X263108Y387060D01*
X263121Y387083D01*
X263161Y387226D01*
X263206Y387367D01*
X263208Y387393D01*
X263216Y387418D01*
X263235Y387662D01*
X263235Y389484D01*
X265616Y391865D01*
X266688Y391865D01*
X266714Y391868D01*
X266740Y391866D01*
X266887Y391888D01*
X267034Y391905D01*
X267059Y391913D01*
X267085Y391917D01*
X267223Y391972D01*
X267362Y392022D01*
X267384Y392036D01*
X267409Y392046D01*
X267530Y392131D01*
X267655Y392211D01*
X267673Y392230D01*
X267695Y392245D01*
X267794Y392355D01*
X267897Y392462D01*
X267911Y392484D01*
X267928Y392504D01*
X268000Y392634D01*
X268076Y392761D01*
X268084Y392786D01*
X268097Y392809D01*
X268137Y392952D01*
X268182Y393093D01*
X268184Y393119D01*
X268192Y393144D01*
X268211Y393388D01*
X268211Y396354D01*
X268197Y396480D01*
X268190Y396606D01*
X268177Y396652D01*
X268171Y396700D01*
X268129Y396819D01*
X268094Y396941D01*
X268070Y396983D01*
X268054Y397028D01*
X267985Y397135D01*
X267924Y397245D01*
X267884Y397291D01*
X267865Y397321D01*
X267830Y397355D01*
X267765Y397431D01*
X261962Y403234D01*
X261111Y405288D01*
X261111Y431225D01*
X261103Y431301D01*
X261104Y431378D01*
X261083Y431474D01*
X261071Y431571D01*
X261046Y431643D01*
X261029Y431718D01*
X260987Y431807D01*
X260954Y431899D01*
X260912Y431964D01*
X260880Y432033D01*
X260818Y432110D01*
X260765Y432192D01*
X260710Y432245D01*
X260662Y432305D01*
X260585Y432366D01*
X260514Y432434D01*
X260449Y432474D01*
X260389Y432521D01*
X260256Y432589D01*
X260215Y432613D01*
X260197Y432619D01*
X260171Y432632D01*
X259074Y433087D01*
X255287Y436874D01*
X253237Y441822D01*
X253237Y447178D01*
X255287Y452126D01*
X259074Y455913D01*
X264022Y457963D01*
X269378Y457963D01*
X274326Y455913D01*
X278323Y451916D01*
X278343Y451900D01*
X278360Y451880D01*
X278480Y451792D01*
X278596Y451700D01*
X278620Y451688D01*
X278641Y451673D01*
X278777Y451614D01*
X278911Y451551D01*
X278937Y451545D01*
X278961Y451535D01*
X279107Y451509D01*
X279252Y451477D01*
X279278Y451478D01*
X279304Y451473D01*
X279452Y451481D01*
X279600Y451483D01*
X279626Y451490D01*
X279652Y451491D01*
X279794Y451532D01*
X279938Y451568D01*
X279961Y451580D01*
X279987Y451588D01*
X280116Y451660D01*
X280248Y451728D01*
X280268Y451745D01*
X280291Y451758D01*
X280477Y451916D01*
X284474Y455913D01*
X289422Y457963D01*
X294778Y457963D01*
X299726Y455913D01*
X303513Y452126D01*
X305563Y447178D01*
X305563Y441822D01*
X303513Y436874D01*
X299726Y433087D01*
X298629Y432632D01*
X298562Y432595D01*
X298491Y432567D01*
X298410Y432511D01*
X298324Y432463D01*
X298268Y432412D01*
X298205Y432368D01*
X298139Y432295D01*
X298066Y432229D01*
X298023Y432166D01*
X297972Y432109D01*
X297924Y432023D01*
X297868Y431942D01*
X297840Y431871D01*
X297803Y431804D01*
X297776Y431710D01*
X297740Y431618D01*
X297729Y431543D01*
X297708Y431469D01*
X297696Y431320D01*
X297689Y431273D01*
X297691Y431254D01*
X297689Y431225D01*
X297689Y405288D01*
X296838Y403234D01*
X289835Y396231D01*
X289756Y396132D01*
X289672Y396038D01*
X289648Y395996D01*
X289618Y395958D01*
X289564Y395844D01*
X289503Y395733D01*
X289490Y395687D01*
X289469Y395643D01*
X289443Y395520D01*
X289408Y395398D01*
X289403Y395337D01*
X289396Y395302D01*
X289397Y395254D01*
X289389Y395154D01*
X289389Y393388D01*
X289392Y393362D01*
X289390Y393336D01*
X289412Y393189D01*
X289429Y393042D01*
X289437Y393017D01*
X289441Y392991D01*
X289496Y392853D01*
X289546Y392714D01*
X289560Y392692D01*
X289570Y392667D01*
X289655Y392546D01*
X289735Y392421D01*
X289754Y392403D01*
X289769Y392381D01*
X289879Y392282D01*
X289986Y392179D01*
X290008Y392165D01*
X290028Y392148D01*
X290158Y392076D01*
X290285Y392000D01*
X290310Y391992D01*
X290333Y391979D01*
X290476Y391939D01*
X290617Y391894D01*
X290643Y391892D01*
X290668Y391884D01*
X290912Y391865D01*
X291984Y391865D01*
X294365Y389484D01*
X294365Y387652D01*
X294368Y387626D01*
X294366Y387600D01*
X294388Y387453D01*
X294405Y387306D01*
X294413Y387281D01*
X294417Y387255D01*
X294472Y387117D01*
X294522Y386978D01*
X294536Y386956D01*
X294546Y386931D01*
X294631Y386810D01*
X294711Y386685D01*
X294730Y386667D01*
X294745Y386645D01*
X294855Y386546D01*
X294962Y386443D01*
X294984Y386429D01*
X295004Y386412D01*
X295134Y386340D01*
X295261Y386264D01*
X295286Y386256D01*
X295309Y386243D01*
X295452Y386203D01*
X295593Y386158D01*
X295619Y386156D01*
X295644Y386148D01*
X295888Y386129D01*
X359329Y386129D01*
X359429Y386140D01*
X359530Y386142D01*
X359602Y386160D01*
X359675Y386169D01*
X359770Y386203D01*
X359868Y386227D01*
X359934Y386261D01*
X360003Y386286D01*
X360088Y386341D01*
X360178Y386387D01*
X360234Y386435D01*
X360296Y386475D01*
X360366Y386548D01*
X360443Y386613D01*
X360487Y386672D01*
X360538Y386726D01*
X360590Y386812D01*
X360650Y386893D01*
X360679Y386961D01*
X360717Y387025D01*
X360748Y387121D01*
X360788Y387213D01*
X360801Y387286D01*
X360823Y387357D01*
X360832Y387457D01*
X360849Y387556D01*
X360846Y387630D01*
X360851Y387704D01*
X360837Y387804D01*
X360831Y387905D01*
X360811Y387976D01*
X360800Y388049D01*
X360763Y388142D01*
X360735Y388239D01*
X360698Y388304D01*
X360671Y388373D01*
X360645Y388411D01*
X359203Y391891D01*
X359203Y395509D01*
X360588Y398853D01*
X363147Y401412D01*
X366491Y402797D01*
X368862Y402797D01*
X368988Y402811D01*
X369114Y402818D01*
X369160Y402831D01*
X369208Y402837D01*
X369327Y402879D01*
X369449Y402914D01*
X369491Y402938D01*
X369536Y402954D01*
X369643Y403023D01*
X369753Y403084D01*
X369799Y403124D01*
X369829Y403143D01*
X369863Y403178D01*
X369939Y403243D01*
X377834Y411138D01*
X379888Y411989D01*
X494725Y411989D01*
X494801Y411997D01*
X494878Y411996D01*
X494974Y412017D01*
X495071Y412029D01*
X495143Y412054D01*
X495218Y412071D01*
X495307Y412113D01*
X495399Y412146D01*
X495464Y412188D01*
X495533Y412220D01*
X495610Y412282D01*
X495692Y412335D01*
X495745Y412390D01*
X495805Y412438D01*
X495866Y412515D01*
X495934Y412586D01*
X495974Y412651D01*
X496021Y412711D01*
X496089Y412844D01*
X496113Y412885D01*
X496119Y412903D01*
X496132Y412929D01*
X496587Y414026D01*
X500584Y418023D01*
X500600Y418043D01*
X500620Y418060D01*
X500708Y418180D01*
X500800Y418296D01*
X500812Y418320D01*
X500827Y418341D01*
X500886Y418477D01*
X500949Y418611D01*
X500955Y418637D01*
X500965Y418661D01*
X500991Y418807D01*
X501023Y418952D01*
X501022Y418978D01*
X501027Y419004D01*
X501019Y419152D01*
X501017Y419300D01*
X501010Y419326D01*
X501009Y419352D01*
X500968Y419494D01*
X500932Y419638D01*
X500920Y419661D01*
X500912Y419687D01*
X500840Y419816D01*
X500772Y419948D01*
X500755Y419968D01*
X500742Y419991D01*
X500584Y420177D01*
X496587Y424174D01*
X494537Y429122D01*
X494537Y434478D01*
X496587Y439426D01*
X500584Y443423D01*
X500600Y443443D01*
X500620Y443460D01*
X500708Y443580D01*
X500800Y443696D01*
X500812Y443720D01*
X500827Y443741D01*
X500886Y443877D01*
X500949Y444011D01*
X500955Y444037D01*
X500965Y444061D01*
X500991Y444207D01*
X501023Y444352D01*
X501022Y444378D01*
X501027Y444404D01*
X501019Y444552D01*
X501017Y444700D01*
X501010Y444726D01*
X501009Y444752D01*
X500968Y444894D01*
X500932Y445038D01*
X500920Y445061D01*
X500912Y445087D01*
X500840Y445216D01*
X500772Y445348D01*
X500755Y445368D01*
X500742Y445391D01*
X500584Y445577D01*
X496587Y449574D01*
X494537Y454522D01*
X494537Y459878D01*
X496587Y464826D01*
X500374Y468613D01*
X505322Y470663D01*
X510678Y470663D01*
X515626Y468613D01*
X519623Y464616D01*
X519643Y464600D01*
X519660Y464580D01*
X519780Y464492D01*
X519896Y464400D01*
X519920Y464388D01*
X519941Y464373D01*
X520077Y464314D01*
X520211Y464251D01*
X520237Y464245D01*
X520261Y464235D01*
X520407Y464209D01*
X520552Y464177D01*
X520578Y464178D01*
X520604Y464173D01*
X520752Y464181D01*
X520900Y464183D01*
X520926Y464190D01*
X520952Y464191D01*
X521094Y464232D01*
X521238Y464268D01*
X521261Y464280D01*
X521287Y464288D01*
X521416Y464360D01*
X521548Y464428D01*
X521568Y464445D01*
X521591Y464458D01*
X521777Y464616D01*
X525774Y468613D01*
X530722Y470663D01*
X536078Y470663D01*
X541026Y468613D01*
X544813Y464826D01*
X546863Y459878D01*
X546863Y454522D01*
X544813Y449574D01*
X540816Y445577D01*
X540800Y445557D01*
X540780Y445540D01*
X540692Y445420D01*
X540600Y445304D01*
X540588Y445280D01*
X540573Y445259D01*
X540514Y445123D01*
X540451Y444989D01*
X540445Y444963D01*
X540435Y444939D01*
X540409Y444793D01*
X540377Y444648D01*
X540378Y444622D01*
X540373Y444596D01*
X540381Y444448D01*
X540383Y444300D01*
X540390Y444274D01*
X540391Y444248D01*
X540432Y444106D01*
X540468Y443962D01*
X540480Y443939D01*
X540488Y443913D01*
X540560Y443784D01*
X540628Y443652D01*
X540645Y443632D01*
X540658Y443609D01*
X540816Y443423D01*
X544813Y439426D01*
X546863Y434478D01*
X546863Y429122D01*
X544813Y424174D01*
X540816Y420177D01*
X540800Y420157D01*
X540780Y420140D01*
X540692Y420020D01*
X540600Y419904D01*
X540588Y419880D01*
X540573Y419859D01*
X540514Y419723D01*
X540451Y419589D01*
X540445Y419563D01*
X540435Y419539D01*
X540409Y419393D01*
X540377Y419248D01*
X540378Y419222D01*
X540373Y419196D01*
X540381Y419048D01*
X540383Y418900D01*
X540390Y418874D01*
X540391Y418848D01*
X540432Y418706D01*
X540468Y418562D01*
X540480Y418539D01*
X540488Y418513D01*
X540560Y418384D01*
X540628Y418252D01*
X540645Y418232D01*
X540658Y418209D01*
X540816Y418023D01*
X544813Y414026D01*
X546863Y409078D01*
X546863Y403722D01*
X544813Y398774D01*
X540816Y394777D01*
X540800Y394757D01*
X540780Y394740D01*
X540692Y394620D01*
X540600Y394504D01*
X540588Y394480D01*
X540573Y394459D01*
X540514Y394323D01*
X540451Y394189D01*
X540445Y394163D01*
X540435Y394139D01*
X540409Y393993D01*
X540377Y393848D01*
X540378Y393822D01*
X540373Y393796D01*
X540381Y393648D01*
X540383Y393500D01*
X540390Y393474D01*
X540391Y393448D01*
X540432Y393306D01*
X540468Y393162D01*
X540480Y393139D01*
X540488Y393113D01*
X540560Y392984D01*
X540628Y392852D01*
X540645Y392832D01*
X540658Y392809D01*
X540816Y392623D01*
X544813Y388626D01*
X546863Y383678D01*
X546863Y378322D01*
X544813Y373374D01*
X540816Y369377D01*
X540800Y369357D01*
X540780Y369340D01*
X540692Y369220D01*
X540600Y369104D01*
X540588Y369080D01*
X540573Y369059D01*
X540514Y368923D01*
X540451Y368789D01*
X540445Y368763D01*
X540435Y368739D01*
X540409Y368593D01*
X540377Y368448D01*
X540378Y368422D01*
X540373Y368396D01*
X540381Y368248D01*
X540383Y368100D01*
X540390Y368074D01*
X540391Y368048D01*
X540432Y367906D01*
X540468Y367762D01*
X540480Y367739D01*
X540488Y367713D01*
X540560Y367584D01*
X540628Y367452D01*
X540645Y367432D01*
X540658Y367409D01*
X540816Y367223D01*
X544813Y363226D01*
X546863Y358278D01*
X546863Y352922D01*
X544813Y347974D01*
X540816Y343977D01*
X540800Y343957D01*
X540780Y343940D01*
X540692Y343820D01*
X540600Y343704D01*
X540588Y343680D01*
X540573Y343659D01*
X540514Y343523D01*
X540451Y343389D01*
X540445Y343363D01*
X540435Y343339D01*
X540409Y343193D01*
X540377Y343048D01*
X540378Y343022D01*
X540373Y342996D01*
X540381Y342848D01*
X540383Y342700D01*
X540390Y342674D01*
X540391Y342648D01*
X540432Y342506D01*
X540468Y342362D01*
X540480Y342339D01*
X540488Y342313D01*
X540560Y342184D01*
X540628Y342052D01*
X540645Y342032D01*
X540658Y342009D01*
X540816Y341823D01*
X544813Y337826D01*
X546863Y332878D01*
X546863Y327522D01*
X544813Y322574D01*
X540816Y318577D01*
X540800Y318557D01*
X540780Y318540D01*
X540692Y318420D01*
X540600Y318304D01*
X540588Y318280D01*
X540573Y318259D01*
X540514Y318123D01*
X540451Y317989D01*
X540445Y317963D01*
X540435Y317939D01*
X540409Y317793D01*
X540377Y317648D01*
X540378Y317622D01*
X540373Y317596D01*
X540381Y317448D01*
X540383Y317300D01*
X540390Y317274D01*
X540391Y317248D01*
X540432Y317106D01*
X540468Y316962D01*
X540480Y316939D01*
X540488Y316913D01*
X540560Y316784D01*
X540628Y316652D01*
X540645Y316632D01*
X540658Y316609D01*
X540816Y316423D01*
X544813Y312426D01*
X546863Y307478D01*
X546863Y302122D01*
X544813Y297174D01*
X540816Y293177D01*
X540800Y293157D01*
X540780Y293140D01*
X540692Y293020D01*
X540600Y292904D01*
X540588Y292880D01*
X540573Y292859D01*
X540514Y292723D01*
X540451Y292589D01*
X540445Y292563D01*
X540435Y292539D01*
X540409Y292393D01*
X540377Y292248D01*
X540378Y292222D01*
X540373Y292196D01*
X540381Y292048D01*
X540383Y291900D01*
X540390Y291874D01*
X540391Y291848D01*
X540432Y291706D01*
X540468Y291562D01*
X540480Y291539D01*
X540488Y291513D01*
X540560Y291384D01*
X540628Y291252D01*
X540645Y291232D01*
X540658Y291209D01*
X540816Y291023D01*
X544813Y287026D01*
X546863Y282078D01*
X546863Y276722D01*
X544813Y271774D01*
X540816Y267777D01*
X540800Y267757D01*
X540780Y267740D01*
X540692Y267620D01*
X540600Y267504D01*
X540588Y267480D01*
X540573Y267459D01*
X540514Y267323D01*
X540451Y267189D01*
X540445Y267163D01*
X540435Y267139D01*
X540409Y266993D01*
X540377Y266848D01*
X540378Y266822D01*
X540373Y266796D01*
X540381Y266648D01*
X540383Y266500D01*
X540390Y266474D01*
X540391Y266448D01*
X540432Y266306D01*
X540468Y266162D01*
X540480Y266139D01*
X540488Y266113D01*
X540560Y265984D01*
X540628Y265852D01*
X540645Y265832D01*
X540658Y265809D01*
X540816Y265623D01*
X544813Y261626D01*
X546863Y256678D01*
X546863Y251322D01*
X544813Y246374D01*
X540816Y242377D01*
X540800Y242357D01*
X540780Y242340D01*
X540692Y242220D01*
X540600Y242104D01*
X540588Y242080D01*
X540573Y242059D01*
X540514Y241923D01*
X540451Y241789D01*
X540445Y241763D01*
X540435Y241739D01*
X540409Y241593D01*
X540377Y241448D01*
X540378Y241422D01*
X540373Y241396D01*
X540381Y241248D01*
X540383Y241100D01*
X540390Y241074D01*
X540391Y241048D01*
X540432Y240906D01*
X540468Y240762D01*
X540480Y240739D01*
X540488Y240713D01*
X540560Y240584D01*
X540628Y240452D01*
X540645Y240432D01*
X540658Y240409D01*
X540816Y240223D01*
X544813Y236226D01*
X546863Y231278D01*
X546863Y225922D01*
X544813Y220974D01*
X541026Y217187D01*
X536078Y215137D01*
X530722Y215137D01*
X525774Y217187D01*
X521777Y221184D01*
X521757Y221200D01*
X521740Y221220D01*
X521620Y221308D01*
X521504Y221400D01*
X521480Y221412D01*
X521459Y221427D01*
X521323Y221486D01*
X521189Y221549D01*
X521163Y221555D01*
X521139Y221565D01*
X520993Y221591D01*
X520848Y221623D01*
X520822Y221622D01*
X520796Y221627D01*
X520648Y221619D01*
X520500Y221617D01*
X520474Y221610D01*
X520448Y221609D01*
X520306Y221568D01*
X520162Y221532D01*
X520139Y221520D01*
X520113Y221512D01*
X519984Y221440D01*
X519852Y221372D01*
X519832Y221355D01*
X519809Y221342D01*
X519623Y221184D01*
X515626Y217187D01*
X510678Y215137D01*
X505322Y215137D01*
X500374Y217187D01*
X496587Y220974D01*
X494537Y225922D01*
X494537Y231278D01*
X496587Y236226D01*
X500584Y240223D01*
X500600Y240243D01*
X500620Y240260D01*
X500708Y240380D01*
X500800Y240496D01*
X500812Y240520D01*
X500827Y240541D01*
X500886Y240677D01*
X500949Y240811D01*
X500955Y240837D01*
X500965Y240861D01*
X500991Y241007D01*
X501023Y241152D01*
X501022Y241178D01*
X501027Y241204D01*
X501019Y241352D01*
X501017Y241500D01*
X501010Y241526D01*
X501009Y241552D01*
X500968Y241694D01*
X500932Y241838D01*
X500920Y241861D01*
X500912Y241887D01*
X500840Y242016D01*
X500772Y242148D01*
X500755Y242168D01*
X500742Y242191D01*
X500584Y242377D01*
X496587Y246374D01*
X494537Y251322D01*
X494537Y256678D01*
X496587Y261626D01*
X500584Y265623D01*
X500600Y265643D01*
X500620Y265660D01*
X500708Y265780D01*
X500800Y265896D01*
X500812Y265920D01*
X500827Y265941D01*
X500886Y266077D01*
X500949Y266211D01*
X500955Y266237D01*
X500965Y266261D01*
X500991Y266407D01*
X501023Y266552D01*
X501022Y266578D01*
X501027Y266604D01*
X501019Y266752D01*
X501017Y266900D01*
X501010Y266926D01*
X501009Y266952D01*
X500968Y267094D01*
X500932Y267238D01*
X500920Y267261D01*
X500912Y267287D01*
X500840Y267416D01*
X500772Y267548D01*
X500755Y267568D01*
X500742Y267591D01*
X500584Y267777D01*
X496587Y271774D01*
X494537Y276722D01*
X494537Y279756D01*
X494526Y279856D01*
X494524Y279956D01*
X494506Y280028D01*
X494497Y280102D01*
X494464Y280197D01*
X494439Y280294D01*
X494405Y280360D01*
X494380Y280430D01*
X494325Y280515D01*
X494279Y280604D01*
X494231Y280661D01*
X494191Y280723D01*
X494119Y280793D01*
X494054Y280870D01*
X493994Y280914D01*
X493940Y280965D01*
X493854Y281017D01*
X493773Y281077D01*
X493705Y281106D01*
X493641Y281144D01*
X493545Y281175D01*
X493453Y281215D01*
X493380Y281228D01*
X493309Y281251D01*
X493209Y281259D01*
X493110Y281276D01*
X493036Y281273D01*
X492962Y281279D01*
X492862Y281264D01*
X492762Y281258D01*
X492691Y281238D01*
X492617Y281227D01*
X492524Y281190D01*
X492427Y281162D01*
X492362Y281126D01*
X492293Y281098D01*
X492211Y281041D01*
X492123Y280992D01*
X492047Y280927D01*
X492007Y280899D01*
X491983Y280873D01*
X491937Y280833D01*
X439999Y228895D01*
X439982Y228874D01*
X439962Y228857D01*
X439874Y228738D01*
X439782Y228622D01*
X439771Y228598D01*
X439755Y228577D01*
X439696Y228441D01*
X439633Y228307D01*
X439627Y228281D01*
X439617Y228257D01*
X439591Y228111D01*
X439560Y227966D01*
X439560Y227940D01*
X439555Y227914D01*
X439563Y227765D01*
X439566Y227618D01*
X439572Y227592D01*
X439573Y227566D01*
X439614Y227423D01*
X439651Y227280D01*
X439663Y227256D01*
X439670Y227231D01*
X439742Y227102D01*
X439810Y226970D01*
X439827Y226950D01*
X439840Y226927D01*
X439999Y226741D01*
X443213Y223526D01*
X445263Y218578D01*
X445263Y213222D01*
X443213Y208274D01*
X439216Y204277D01*
X439200Y204257D01*
X439180Y204240D01*
X439092Y204120D01*
X439000Y204004D01*
X438988Y203980D01*
X438973Y203959D01*
X438914Y203823D01*
X438851Y203689D01*
X438845Y203663D01*
X438835Y203639D01*
X438809Y203493D01*
X438777Y203348D01*
X438778Y203322D01*
X438773Y203296D01*
X438781Y203148D01*
X438783Y203000D01*
X438790Y202974D01*
X438791Y202948D01*
X438832Y202806D01*
X438868Y202662D01*
X438880Y202639D01*
X438888Y202613D01*
X438960Y202484D01*
X439028Y202352D01*
X439045Y202332D01*
X439058Y202309D01*
X439216Y202123D01*
X443213Y198126D01*
X445263Y193178D01*
X445263Y187822D01*
X443213Y182874D01*
X439216Y178877D01*
X439200Y178857D01*
X439180Y178840D01*
X439092Y178720D01*
X439000Y178604D01*
X438988Y178580D01*
X438973Y178559D01*
X438914Y178423D01*
X438851Y178289D01*
X438845Y178263D01*
X438835Y178239D01*
X438809Y178093D01*
X438777Y177948D01*
X438778Y177922D01*
X438773Y177896D01*
X438781Y177748D01*
X438783Y177600D01*
X438790Y177574D01*
X438791Y177548D01*
X438832Y177406D01*
X438868Y177262D01*
X438880Y177239D01*
X438888Y177213D01*
X438960Y177084D01*
X439028Y176952D01*
X439045Y176932D01*
X439058Y176909D01*
X439216Y176723D01*
X443213Y172726D01*
X445263Y167778D01*
X445263Y162422D01*
X443213Y157474D01*
X439426Y153687D01*
X437636Y152945D01*
X437600Y152926D01*
X437562Y152912D01*
X437448Y152841D01*
X437331Y152776D01*
X437301Y152749D01*
X437267Y152727D01*
X437172Y152632D01*
X437073Y152542D01*
X437050Y152508D01*
X437021Y152480D01*
X436951Y152365D01*
X436875Y152255D01*
X436860Y152217D01*
X436839Y152183D01*
X436796Y152055D01*
X436747Y151931D01*
X436741Y151891D01*
X436728Y151852D01*
X436716Y151719D01*
X436696Y151586D01*
X436700Y151546D01*
X436696Y151505D01*
X436714Y151372D01*
X436725Y151239D01*
X436738Y151200D01*
X436743Y151160D01*
X436791Y151035D01*
X436832Y150907D01*
X436853Y150872D01*
X436868Y150834D01*
X436943Y150723D01*
X437012Y150609D01*
X437041Y150579D01*
X437063Y150546D01*
X437161Y150455D01*
X437255Y150359D01*
X437289Y150337D01*
X437319Y150309D01*
X437527Y150181D01*
X438057Y149911D01*
X439578Y148806D01*
X440906Y147478D01*
X442011Y145957D01*
X442864Y144283D01*
X443445Y142496D01*
X443485Y142239D01*
X432816Y142239D01*
X432790Y142236D01*
X432764Y142238D01*
X432617Y142216D01*
X432470Y142199D01*
X432445Y142191D01*
X432419Y142187D01*
X432282Y142132D01*
X432142Y142082D01*
X432120Y142068D01*
X432095Y142058D01*
X431974Y141973D01*
X431849Y141893D01*
X431831Y141874D01*
X431809Y141859D01*
X431795Y141843D01*
X431710Y141925D01*
X431687Y141939D01*
X431668Y141956D01*
X431538Y142028D01*
X431411Y142104D01*
X431386Y142112D01*
X431363Y142125D01*
X431220Y142165D01*
X431079Y142210D01*
X431053Y142212D01*
X431028Y142220D01*
X430784Y142239D01*
X420115Y142239D01*
X420155Y142496D01*
X420736Y144283D01*
X421589Y145957D01*
X422694Y147478D01*
X424022Y148806D01*
X425543Y149911D01*
X426073Y150181D01*
X426106Y150203D01*
X426144Y150220D01*
X426252Y150300D01*
X426363Y150374D01*
X426391Y150403D01*
X426424Y150428D01*
X426510Y150530D01*
X426602Y150627D01*
X426622Y150663D01*
X426649Y150694D01*
X426710Y150813D01*
X426777Y150929D01*
X426789Y150967D01*
X426808Y151004D01*
X426840Y151134D01*
X426879Y151262D01*
X426882Y151302D01*
X426892Y151342D01*
X426894Y151476D01*
X426903Y151609D01*
X426896Y151650D01*
X426897Y151690D01*
X426868Y151821D01*
X426847Y151953D01*
X426831Y151991D01*
X426822Y152031D01*
X426765Y152152D01*
X426714Y152276D01*
X426690Y152309D01*
X426673Y152346D01*
X426589Y152450D01*
X426511Y152559D01*
X426481Y152586D01*
X426455Y152618D01*
X426350Y152701D01*
X426250Y152789D01*
X426214Y152809D01*
X426182Y152834D01*
X425964Y152945D01*
X424174Y153687D01*
X421678Y156183D01*
X421657Y156199D01*
X421640Y156219D01*
X421521Y156308D01*
X421405Y156400D01*
X421381Y156411D01*
X421360Y156426D01*
X421224Y156485D01*
X421090Y156549D01*
X421064Y156554D01*
X421040Y156564D01*
X420894Y156591D01*
X420749Y156622D01*
X420723Y156622D01*
X420697Y156626D01*
X420548Y156619D01*
X420400Y156616D01*
X420375Y156610D01*
X420349Y156608D01*
X420206Y156567D01*
X420062Y156531D01*
X420039Y156519D01*
X420014Y156512D01*
X419885Y156439D01*
X419753Y156371D01*
X419733Y156354D01*
X419710Y156342D01*
X419524Y156183D01*
X405831Y142490D01*
X405752Y142391D01*
X405668Y142298D01*
X405644Y142255D01*
X405614Y142217D01*
X405560Y142103D01*
X405499Y141992D01*
X405486Y141946D01*
X405465Y141902D01*
X405439Y141779D01*
X405404Y141657D01*
X405399Y141596D01*
X405392Y141562D01*
X405393Y141514D01*
X405385Y141413D01*
X405385Y123146D01*
X404379Y120719D01*
X383979Y100319D01*
X381552Y99313D01*
X330930Y99313D01*
X328502Y100319D01*
X326431Y102391D01*
X326430Y102391D01*
X308872Y119949D01*
X308773Y120028D01*
X308679Y120112D01*
X308637Y120136D01*
X308599Y120166D01*
X308485Y120220D01*
X308374Y120281D01*
X308328Y120294D01*
X308284Y120315D01*
X308161Y120341D01*
X308039Y120376D01*
X307978Y120381D01*
X307943Y120388D01*
X307895Y120387D01*
X307795Y120395D01*
X91186Y120395D01*
X91160Y120392D01*
X91134Y120394D01*
X90987Y120372D01*
X90840Y120355D01*
X90815Y120347D01*
X90789Y120343D01*
X90651Y120288D01*
X90512Y120238D01*
X90490Y120224D01*
X90465Y120214D01*
X90344Y120129D01*
X90219Y120049D01*
X90201Y120030D01*
X90179Y120015D01*
X90080Y119905D01*
X89977Y119798D01*
X89963Y119776D01*
X89946Y119756D01*
X89874Y119626D01*
X89798Y119499D01*
X89790Y119474D01*
X89777Y119451D01*
X89737Y119308D01*
X89692Y119167D01*
X89690Y119141D01*
X89682Y119116D01*
X89663Y118872D01*
X89663Y115918D01*
X87282Y113537D01*
X65278Y113537D01*
X65252Y113534D01*
X65226Y113536D01*
X65079Y113514D01*
X64932Y113497D01*
X64907Y113489D01*
X64881Y113485D01*
X64743Y113430D01*
X64604Y113380D01*
X64582Y113366D01*
X64557Y113356D01*
X64436Y113271D01*
X64311Y113191D01*
X64293Y113172D01*
X64271Y113157D01*
X64172Y113047D01*
X64069Y112940D01*
X64055Y112918D01*
X64038Y112898D01*
X63966Y112768D01*
X63890Y112641D01*
X63882Y112616D01*
X63869Y112593D01*
X63829Y112450D01*
X63784Y112309D01*
X63782Y112283D01*
X63774Y112258D01*
X63755Y112014D01*
X63755Y97901D01*
X63766Y97802D01*
X63768Y97701D01*
X63786Y97629D01*
X63795Y97555D01*
X63829Y97460D01*
X63853Y97363D01*
X63887Y97297D01*
X63912Y97227D01*
X63967Y97143D01*
X64013Y97053D01*
X64061Y96997D01*
X64101Y96934D01*
X64173Y96864D01*
X64238Y96788D01*
X64298Y96744D01*
X64352Y96692D01*
X64438Y96640D01*
X64519Y96581D01*
X64587Y96551D01*
X64651Y96513D01*
X64747Y96483D01*
X64839Y96443D01*
X64912Y96430D01*
X64983Y96407D01*
X65083Y96399D01*
X65182Y96381D01*
X65256Y96385D01*
X65330Y96379D01*
X65430Y96394D01*
X65530Y96399D01*
X65601Y96420D01*
X65675Y96431D01*
X65768Y96468D01*
X65865Y96496D01*
X65930Y96532D01*
X65999Y96559D01*
X66081Y96617D01*
X66169Y96666D01*
X66245Y96731D01*
X66285Y96758D01*
X66309Y96785D01*
X66355Y96824D01*
X67304Y97773D01*
X72252Y99823D01*
X77608Y99823D01*
X82556Y97773D01*
X86343Y93986D01*
X88393Y89038D01*
X88393Y83682D01*
X86343Y78734D01*
X82346Y74737D01*
X82330Y74717D01*
X82310Y74700D01*
X82222Y74580D01*
X82130Y74464D01*
X82118Y74440D01*
X82103Y74419D01*
X82044Y74283D01*
X81981Y74149D01*
X81975Y74123D01*
X81965Y74099D01*
X81939Y73953D01*
X81907Y73808D01*
X81908Y73782D01*
X81903Y73756D01*
X81911Y73608D01*
X81913Y73460D01*
X81920Y73434D01*
X81921Y73408D01*
X81962Y73266D01*
X81998Y73122D01*
X82010Y73099D01*
X82018Y73073D01*
X82090Y72944D01*
X82158Y72812D01*
X82175Y72792D01*
X82188Y72769D01*
X82346Y72583D01*
X86343Y68586D01*
X88393Y63638D01*
X88393Y58282D01*
X86343Y53334D01*
X82346Y49337D01*
X82330Y49317D01*
X82310Y49300D01*
X82222Y49180D01*
X82130Y49064D01*
X82118Y49040D01*
X82103Y49019D01*
X82044Y48883D01*
X81981Y48749D01*
X81975Y48723D01*
X81965Y48699D01*
X81939Y48553D01*
X81907Y48408D01*
X81908Y48382D01*
X81903Y48356D01*
X81911Y48208D01*
X81913Y48060D01*
X81920Y48034D01*
X81921Y48008D01*
X81962Y47866D01*
X81998Y47722D01*
X82010Y47698D01*
X82018Y47673D01*
X82090Y47544D01*
X82158Y47412D01*
X82175Y47392D01*
X82188Y47369D01*
X82346Y47183D01*
X86105Y43424D01*
X86204Y43345D01*
X86298Y43260D01*
X86341Y43237D01*
X86378Y43207D01*
X86493Y43153D01*
X86603Y43092D01*
X86650Y43079D01*
X86694Y43058D01*
X86817Y43032D01*
X86939Y42997D01*
X87000Y42992D01*
X87034Y42985D01*
X87082Y42986D01*
X87183Y42978D01*
X214476Y42978D01*
X214552Y42986D01*
X214628Y42985D01*
X214724Y43006D01*
X214822Y43017D01*
X214894Y43043D01*
X214969Y43060D01*
X215058Y43102D01*
X215150Y43135D01*
X215215Y43176D01*
X215284Y43209D01*
X215360Y43271D01*
X215443Y43324D01*
X215496Y43379D01*
X215556Y43427D01*
X215617Y43504D01*
X215685Y43575D01*
X215725Y43640D01*
X215772Y43700D01*
X215840Y43833D01*
X215864Y43874D01*
X215870Y43892D01*
X215883Y43918D01*
X215917Y43999D01*
X219704Y47786D01*
X221494Y48527D01*
X221530Y48547D01*
X221568Y48560D01*
X221682Y48632D01*
X221799Y48697D01*
X221829Y48724D01*
X221863Y48746D01*
X221958Y48841D01*
X222057Y48931D01*
X222080Y48964D01*
X222109Y48993D01*
X222179Y49107D01*
X222255Y49218D01*
X222270Y49255D01*
X222291Y49290D01*
X222334Y49417D01*
X222383Y49542D01*
X222389Y49582D01*
X222402Y49621D01*
X222414Y49754D01*
X222434Y49887D01*
X222430Y49927D01*
X222434Y49968D01*
X222416Y50100D01*
X222405Y50234D01*
X222392Y50273D01*
X222387Y50313D01*
X222339Y50438D01*
X222298Y50566D01*
X222277Y50600D01*
X222262Y50638D01*
X222187Y50749D01*
X222118Y50864D01*
X222089Y50893D01*
X222067Y50927D01*
X221969Y51018D01*
X221875Y51114D01*
X221841Y51136D01*
X221811Y51164D01*
X221603Y51292D01*
X221073Y51562D01*
X219552Y52666D01*
X218224Y53995D01*
X217119Y55515D01*
X216266Y57190D01*
X215685Y58977D01*
X215645Y59234D01*
X226314Y59234D01*
X226340Y59237D01*
X226366Y59234D01*
X226513Y59256D01*
X226660Y59273D01*
X226685Y59282D01*
X226711Y59286D01*
X226848Y59341D01*
X226988Y59391D01*
X227010Y59405D01*
X227035Y59415D01*
X227156Y59499D01*
X227281Y59580D01*
X227299Y59599D01*
X227321Y59614D01*
X227335Y59630D01*
X227420Y59547D01*
X227443Y59534D01*
X227462Y59516D01*
X227592Y59445D01*
X227719Y59369D01*
X227744Y59361D01*
X227767Y59348D01*
X227910Y59308D01*
X228051Y59262D01*
X228077Y59260D01*
X228102Y59253D01*
X228346Y59234D01*
X239015Y59234D01*
X238975Y58977D01*
X238394Y57190D01*
X237541Y55515D01*
X236436Y53995D01*
X235108Y52666D01*
X233587Y51562D01*
X233057Y51292D01*
X233024Y51269D01*
X232986Y51253D01*
X232878Y51173D01*
X232767Y51099D01*
X232739Y51070D01*
X232706Y51045D01*
X232620Y50943D01*
X232528Y50846D01*
X232508Y50810D01*
X232481Y50779D01*
X232420Y50660D01*
X232353Y50544D01*
X232341Y50505D01*
X232322Y50469D01*
X232290Y50339D01*
X232251Y50211D01*
X232248Y50170D01*
X232238Y50131D01*
X232236Y49997D01*
X232227Y49863D01*
X232234Y49823D01*
X232233Y49782D01*
X232262Y49651D01*
X232283Y49519D01*
X232299Y49482D01*
X232308Y49442D01*
X232365Y49321D01*
X232416Y49197D01*
X232440Y49164D01*
X232457Y49127D01*
X232541Y49023D01*
X232619Y48913D01*
X232649Y48887D01*
X232675Y48855D01*
X232780Y48772D01*
X232880Y48683D01*
X232916Y48664D01*
X232948Y48639D01*
X233166Y48527D01*
X234956Y47786D01*
X238743Y43999D01*
X240793Y39051D01*
X240793Y33695D01*
X238743Y28747D01*
X234956Y24960D01*
X230008Y22910D01*
X224652Y22910D01*
X219704Y24960D01*
X215917Y28747D01*
X215883Y28828D01*
X215846Y28895D01*
X215818Y28966D01*
X215762Y29046D01*
X215714Y29132D01*
X215663Y29189D01*
X215619Y29252D01*
X215546Y29318D01*
X215480Y29390D01*
X215417Y29434D01*
X215360Y29485D01*
X215274Y29533D01*
X215193Y29589D01*
X215122Y29617D01*
X215055Y29654D01*
X214961Y29680D01*
X214869Y29717D01*
X214793Y29728D01*
X214720Y29748D01*
X214571Y29760D01*
X214524Y29767D01*
X214505Y29766D01*
X214476Y29768D01*
X88121Y29768D01*
X88045Y29759D01*
X87968Y29760D01*
X87872Y29739D01*
X87774Y29728D01*
X87703Y29702D01*
X87628Y29686D01*
X87539Y29644D01*
X87446Y29611D01*
X87382Y29569D01*
X87313Y29536D01*
X87236Y29475D01*
X87154Y29422D01*
X87100Y29367D01*
X87041Y29319D01*
X86980Y29242D01*
X86911Y29171D01*
X86872Y29105D01*
X86825Y29045D01*
X86757Y28912D01*
X86733Y28872D01*
X86727Y28854D01*
X86713Y28828D01*
X86343Y27934D01*
X82556Y24147D01*
X77608Y22097D01*
X72252Y22097D01*
G37*
%LPD*%
G36*
X347764Y112528D02*
X347764Y112528D01*
X347814Y112526D01*
X347936Y112548D01*
X348060Y112563D01*
X348107Y112580D01*
X348157Y112589D01*
X348270Y112638D01*
X348388Y112680D01*
X348430Y112707D01*
X348476Y112728D01*
X348576Y112802D01*
X348681Y112869D01*
X348716Y112905D01*
X348756Y112935D01*
X348836Y113030D01*
X348923Y113120D01*
X348949Y113163D01*
X348981Y113201D01*
X349038Y113312D01*
X349102Y113419D01*
X349117Y113467D01*
X349140Y113512D01*
X349170Y113632D01*
X349208Y113751D01*
X349212Y113801D01*
X349224Y113850D01*
X349226Y113974D01*
X349236Y114098D01*
X349228Y114148D01*
X349229Y114198D01*
X349203Y114320D01*
X349184Y114443D01*
X349166Y114490D01*
X349155Y114539D01*
X349101Y114651D01*
X349055Y114767D01*
X349027Y114808D01*
X349005Y114854D01*
X348927Y114951D01*
X348856Y115053D01*
X348819Y115087D01*
X348788Y115126D01*
X348690Y115203D01*
X348598Y115286D01*
X348554Y115311D01*
X348514Y115342D01*
X348296Y115453D01*
X347974Y115587D01*
X344187Y119374D01*
X342137Y124322D01*
X342137Y129678D01*
X344187Y134626D01*
X348184Y138623D01*
X348200Y138643D01*
X348220Y138660D01*
X348308Y138780D01*
X348400Y138896D01*
X348412Y138920D01*
X348427Y138941D01*
X348486Y139077D01*
X348549Y139211D01*
X348555Y139237D01*
X348565Y139261D01*
X348591Y139407D01*
X348623Y139552D01*
X348622Y139578D01*
X348627Y139604D01*
X348619Y139752D01*
X348617Y139900D01*
X348610Y139926D01*
X348609Y139952D01*
X348568Y140094D01*
X348532Y140238D01*
X348520Y140261D01*
X348512Y140287D01*
X348440Y140416D01*
X348372Y140548D01*
X348355Y140568D01*
X348342Y140591D01*
X348184Y140777D01*
X344187Y144774D01*
X342137Y149722D01*
X342137Y155078D01*
X344187Y160026D01*
X347974Y163813D01*
X352922Y165863D01*
X358278Y165863D01*
X363226Y163813D01*
X367013Y160026D01*
X367468Y158929D01*
X367505Y158862D01*
X367533Y158791D01*
X367589Y158710D01*
X367637Y158624D01*
X367688Y158568D01*
X367732Y158505D01*
X367805Y158439D01*
X367871Y158366D01*
X367934Y158323D01*
X367991Y158272D01*
X368077Y158224D01*
X368158Y158168D01*
X368229Y158140D01*
X368296Y158103D01*
X368390Y158076D01*
X368482Y158040D01*
X368557Y158029D01*
X368631Y158008D01*
X368780Y157996D01*
X368827Y157989D01*
X368846Y157991D01*
X368875Y157989D01*
X380580Y157989D01*
X380682Y158000D01*
X380784Y158002D01*
X380855Y158020D01*
X380927Y158029D01*
X381023Y158063D01*
X381122Y158088D01*
X381186Y158122D01*
X381255Y158146D01*
X381341Y158202D01*
X381431Y158249D01*
X381487Y158296D01*
X381548Y158335D01*
X381619Y158409D01*
X381696Y158475D01*
X381757Y158551D01*
X381790Y158586D01*
X381809Y158617D01*
X381848Y158667D01*
X404750Y193020D01*
X404762Y193044D01*
X404779Y193065D01*
X404890Y193282D01*
X405049Y193666D01*
X405337Y193954D01*
X405354Y193976D01*
X405376Y193994D01*
X405527Y194186D01*
X405753Y194525D01*
X406098Y194756D01*
X406118Y194773D01*
X406141Y194786D01*
X406327Y194944D01*
X406621Y195238D01*
X406997Y195394D01*
X407022Y195408D01*
X407049Y195416D01*
X407262Y195536D01*
X407600Y195762D01*
X408007Y195844D01*
X408033Y195852D01*
X408059Y195855D01*
X408292Y195930D01*
X408675Y196089D01*
X409082Y196089D01*
X409110Y196092D01*
X409138Y196090D01*
X409381Y196118D01*
X409781Y196198D01*
X410188Y196118D01*
X410214Y196116D01*
X410240Y196108D01*
X410483Y196089D01*
X418525Y196089D01*
X418601Y196097D01*
X418678Y196096D01*
X418774Y196117D01*
X418871Y196129D01*
X418943Y196154D01*
X419018Y196171D01*
X419107Y196213D01*
X419199Y196246D01*
X419264Y196288D01*
X419333Y196320D01*
X419410Y196382D01*
X419492Y196435D01*
X419545Y196490D01*
X419605Y196538D01*
X419666Y196615D01*
X419734Y196686D01*
X419774Y196751D01*
X419821Y196811D01*
X419889Y196944D01*
X419913Y196985D01*
X419919Y197003D01*
X419932Y197029D01*
X420387Y198126D01*
X424384Y202123D01*
X424400Y202143D01*
X424420Y202160D01*
X424508Y202280D01*
X424600Y202396D01*
X424612Y202420D01*
X424627Y202441D01*
X424686Y202577D01*
X424749Y202711D01*
X424755Y202737D01*
X424765Y202761D01*
X424791Y202907D01*
X424823Y203052D01*
X424822Y203078D01*
X424827Y203104D01*
X424819Y203252D01*
X424817Y203400D01*
X424810Y203426D01*
X424809Y203452D01*
X424768Y203594D01*
X424732Y203738D01*
X424720Y203761D01*
X424712Y203787D01*
X424640Y203916D01*
X424572Y204048D01*
X424555Y204068D01*
X424542Y204091D01*
X424384Y204277D01*
X420387Y208274D01*
X418337Y213222D01*
X418337Y218578D01*
X420387Y223526D01*
X424174Y227313D01*
X425271Y227768D01*
X425338Y227805D01*
X425409Y227833D01*
X425490Y227889D01*
X425576Y227937D01*
X425632Y227988D01*
X425695Y228032D01*
X425761Y228105D01*
X425834Y228171D01*
X425877Y228234D01*
X425928Y228291D01*
X425976Y228377D01*
X426032Y228458D01*
X426060Y228529D01*
X426097Y228596D01*
X426124Y228690D01*
X426160Y228782D01*
X426171Y228857D01*
X426192Y228931D01*
X426204Y229080D01*
X426211Y229127D01*
X426209Y229146D01*
X426211Y229175D01*
X426211Y229712D01*
X427062Y231766D01*
X494661Y299365D01*
X494709Y299425D01*
X494764Y299478D01*
X494817Y299561D01*
X494878Y299638D01*
X494911Y299707D01*
X494952Y299772D01*
X494985Y299864D01*
X495027Y299953D01*
X495043Y300028D01*
X495069Y300100D01*
X495080Y300198D01*
X495100Y300294D01*
X495099Y300370D01*
X495108Y300446D01*
X495096Y300544D01*
X495094Y300642D01*
X495076Y300716D01*
X495067Y300792D01*
X495021Y300934D01*
X495009Y300980D01*
X495001Y300997D01*
X494992Y301025D01*
X494537Y302122D01*
X494537Y305156D01*
X494526Y305256D01*
X494524Y305356D01*
X494506Y305428D01*
X494497Y305502D01*
X494464Y305597D01*
X494439Y305694D01*
X494405Y305760D01*
X494380Y305830D01*
X494325Y305915D01*
X494279Y306004D01*
X494231Y306061D01*
X494191Y306123D01*
X494119Y306193D01*
X494054Y306270D01*
X493994Y306314D01*
X493940Y306365D01*
X493854Y306417D01*
X493773Y306477D01*
X493705Y306506D01*
X493641Y306544D01*
X493545Y306575D01*
X493453Y306615D01*
X493380Y306628D01*
X493309Y306651D01*
X493209Y306659D01*
X493110Y306676D01*
X493036Y306673D01*
X492962Y306679D01*
X492862Y306664D01*
X492762Y306658D01*
X492691Y306638D01*
X492617Y306627D01*
X492524Y306590D01*
X492427Y306562D01*
X492362Y306526D01*
X492293Y306498D01*
X492211Y306441D01*
X492123Y306392D01*
X492047Y306327D01*
X492007Y306299D01*
X491983Y306273D01*
X491937Y306233D01*
X473066Y287362D01*
X471012Y286511D01*
X402748Y286511D01*
X400694Y287362D01*
X393147Y294909D01*
X393138Y294933D01*
X393082Y295013D01*
X393034Y295100D01*
X392982Y295156D01*
X392939Y295219D01*
X392866Y295285D01*
X392800Y295358D01*
X392737Y295401D01*
X392680Y295452D01*
X392594Y295500D01*
X392513Y295556D01*
X392442Y295584D01*
X392375Y295621D01*
X392280Y295648D01*
X392189Y295684D01*
X392113Y295695D01*
X392040Y295716D01*
X391891Y295728D01*
X391844Y295735D01*
X391825Y295733D01*
X391796Y295735D01*
X390716Y295735D01*
X388227Y298224D01*
X388178Y298362D01*
X388164Y298384D01*
X388154Y298409D01*
X388069Y298530D01*
X387989Y298655D01*
X387970Y298673D01*
X387955Y298695D01*
X387845Y298794D01*
X387738Y298897D01*
X387716Y298911D01*
X387696Y298928D01*
X387566Y299000D01*
X387439Y299076D01*
X387414Y299084D01*
X387391Y299097D01*
X387248Y299137D01*
X387107Y299182D01*
X387081Y299184D01*
X387056Y299192D01*
X386812Y299211D01*
X290757Y299211D01*
X288703Y300062D01*
X286916Y301848D01*
X286916Y301849D01*
X270849Y317916D01*
X270848Y317916D01*
X269062Y319703D01*
X268211Y321757D01*
X268211Y323712D01*
X268208Y323738D01*
X268210Y323764D01*
X268188Y323911D01*
X268171Y324058D01*
X268163Y324083D01*
X268159Y324109D01*
X268104Y324247D01*
X268054Y324386D01*
X268040Y324408D01*
X268030Y324433D01*
X267945Y324554D01*
X267865Y324679D01*
X267846Y324697D01*
X267831Y324719D01*
X267721Y324818D01*
X267614Y324921D01*
X267592Y324935D01*
X267572Y324952D01*
X267442Y325024D01*
X267315Y325100D01*
X267290Y325108D01*
X267267Y325121D01*
X267124Y325161D01*
X266983Y325206D01*
X266957Y325208D01*
X266932Y325216D01*
X266688Y325235D01*
X265616Y325235D01*
X263235Y327616D01*
X263235Y328955D01*
X263232Y328982D01*
X263234Y329008D01*
X263212Y329154D01*
X263195Y329302D01*
X263187Y329326D01*
X263183Y329352D01*
X263128Y329490D01*
X263078Y329630D01*
X263064Y329652D01*
X263054Y329676D01*
X262969Y329798D01*
X262889Y329923D01*
X262870Y329941D01*
X262855Y329962D01*
X262745Y330061D01*
X262638Y330165D01*
X262616Y330178D01*
X262596Y330196D01*
X262466Y330268D01*
X262339Y330344D01*
X262314Y330352D01*
X262291Y330364D01*
X262148Y330405D01*
X262007Y330450D01*
X261981Y330452D01*
X261956Y330459D01*
X261712Y330479D01*
X261234Y330479D01*
X261208Y330476D01*
X261182Y330478D01*
X261035Y330456D01*
X260888Y330439D01*
X260863Y330430D01*
X260837Y330426D01*
X260700Y330371D01*
X260560Y330321D01*
X260538Y330307D01*
X260513Y330297D01*
X260392Y330213D01*
X260267Y330132D01*
X260249Y330113D01*
X260227Y330098D01*
X260128Y329989D01*
X260025Y329882D01*
X260011Y329859D01*
X259994Y329840D01*
X259922Y329710D01*
X259846Y329583D01*
X259838Y329558D01*
X259825Y329535D01*
X259785Y329392D01*
X259740Y329251D01*
X259738Y329224D01*
X259731Y329199D01*
X259711Y328955D01*
X259711Y328384D01*
X257330Y326003D01*
X245962Y326003D01*
X243581Y328384D01*
X243581Y343751D01*
X245962Y346132D01*
X257330Y346132D01*
X259711Y343751D01*
X259711Y343179D01*
X259714Y343153D01*
X259712Y343127D01*
X259734Y342980D01*
X259751Y342833D01*
X259760Y342809D01*
X259764Y342783D01*
X259818Y342645D01*
X259868Y342505D01*
X259883Y342483D01*
X259892Y342459D01*
X259977Y342337D01*
X260057Y342212D01*
X260076Y342194D01*
X260091Y342173D01*
X260201Y342073D01*
X260308Y341970D01*
X260331Y341957D01*
X260350Y341939D01*
X260480Y341867D01*
X260607Y341791D01*
X260632Y341783D01*
X260655Y341771D01*
X260798Y341730D01*
X260939Y341685D01*
X260965Y341683D01*
X260990Y341676D01*
X261234Y341656D01*
X261712Y341656D01*
X261738Y341659D01*
X261764Y341657D01*
X261911Y341679D01*
X262058Y341696D01*
X262083Y341705D01*
X262109Y341709D01*
X262247Y341764D01*
X262386Y341814D01*
X262408Y341828D01*
X262433Y341837D01*
X262554Y341922D01*
X262679Y342003D01*
X262697Y342021D01*
X262719Y342036D01*
X262818Y342146D01*
X262921Y342253D01*
X262935Y342276D01*
X262952Y342295D01*
X263024Y342425D01*
X263100Y342552D01*
X263108Y342577D01*
X263121Y342600D01*
X263161Y342743D01*
X263206Y342884D01*
X263208Y342910D01*
X263216Y342936D01*
X263235Y343179D01*
X263235Y345484D01*
X265163Y347411D01*
X265225Y347489D01*
X265295Y347562D01*
X265333Y347626D01*
X265379Y347684D01*
X265422Y347775D01*
X265474Y347861D01*
X265496Y347932D01*
X265528Y347999D01*
X265549Y348097D01*
X265580Y348193D01*
X265586Y348267D01*
X265601Y348340D01*
X265600Y348440D01*
X265608Y348540D01*
X265597Y348614D01*
X265595Y348688D01*
X265571Y348785D01*
X265556Y348885D01*
X265529Y348954D01*
X265510Y349026D01*
X265464Y349115D01*
X265427Y349209D01*
X265385Y349270D01*
X265351Y349336D01*
X265286Y349412D01*
X265228Y349495D01*
X265173Y349545D01*
X265125Y349601D01*
X265044Y349661D01*
X264970Y349728D01*
X264905Y349764D01*
X264845Y349809D01*
X264752Y349848D01*
X264665Y349897D01*
X264593Y349917D01*
X264525Y349947D01*
X264426Y349964D01*
X264329Y349992D01*
X264229Y350000D01*
X264182Y350008D01*
X264146Y350006D01*
X264085Y350011D01*
X231546Y350011D01*
X231420Y349997D01*
X231294Y349990D01*
X231248Y349977D01*
X231200Y349971D01*
X231081Y349929D01*
X230959Y349894D01*
X230917Y349870D01*
X230872Y349854D01*
X230765Y349785D01*
X230655Y349724D01*
X230609Y349684D01*
X230579Y349665D01*
X230545Y349630D01*
X230469Y349565D01*
X228112Y347208D01*
X228050Y347130D01*
X227980Y347058D01*
X227942Y346994D01*
X227896Y346935D01*
X227853Y346845D01*
X227801Y346759D01*
X227778Y346688D01*
X227747Y346620D01*
X227725Y346522D01*
X227695Y346427D01*
X227689Y346352D01*
X227673Y346280D01*
X227675Y346179D01*
X227667Y346079D01*
X227678Y346006D01*
X227679Y345931D01*
X227704Y345834D01*
X227719Y345735D01*
X227746Y345665D01*
X227764Y345593D01*
X227810Y345504D01*
X227847Y345411D01*
X227890Y345350D01*
X227924Y345283D01*
X227989Y345207D01*
X228046Y345125D01*
X228101Y345075D01*
X228150Y345018D01*
X228230Y344958D01*
X228305Y344891D01*
X228370Y344855D01*
X228430Y344811D01*
X228522Y344771D01*
X228610Y344723D01*
X228682Y344702D01*
X228750Y344673D01*
X228849Y344655D01*
X228945Y344628D01*
X229046Y344620D01*
X229093Y344611D01*
X229129Y344613D01*
X229189Y344608D01*
X231647Y344608D01*
X231647Y338067D01*
X227105Y338067D01*
X227105Y342524D01*
X227094Y342624D01*
X227092Y342725D01*
X227074Y342797D01*
X227066Y342871D01*
X227032Y342965D01*
X227007Y343063D01*
X226973Y343129D01*
X226948Y343199D01*
X226894Y343283D01*
X226848Y343372D01*
X226799Y343429D01*
X226759Y343491D01*
X226687Y343561D01*
X226622Y343638D01*
X226562Y343682D01*
X226508Y343734D01*
X226422Y343785D01*
X226341Y343845D01*
X226273Y343874D01*
X226209Y343913D01*
X226114Y343943D01*
X226021Y343983D01*
X225948Y343996D01*
X225877Y344019D01*
X225777Y344027D01*
X225678Y344045D01*
X225604Y344041D01*
X225530Y344047D01*
X225431Y344032D01*
X225330Y344027D01*
X225259Y344006D01*
X225185Y343995D01*
X225092Y343958D01*
X224996Y343930D01*
X224931Y343894D01*
X224861Y343866D01*
X224779Y343809D01*
X224691Y343760D01*
X224615Y343695D01*
X224575Y343667D01*
X224551Y343641D01*
X224505Y343601D01*
X169509Y288605D01*
X169446Y288527D01*
X169377Y288454D01*
X169338Y288390D01*
X169292Y288332D01*
X169249Y288241D01*
X169198Y288155D01*
X169175Y288084D01*
X169143Y288017D01*
X169122Y287919D01*
X169091Y287823D01*
X169085Y287749D01*
X169070Y287676D01*
X169072Y287576D01*
X169063Y287476D01*
X169075Y287402D01*
X169076Y287328D01*
X169100Y287231D01*
X169115Y287131D01*
X169143Y287062D01*
X169161Y286990D01*
X169207Y286900D01*
X169244Y286807D01*
X169286Y286746D01*
X169320Y286680D01*
X169386Y286603D01*
X169443Y286521D01*
X169498Y286471D01*
X169546Y286415D01*
X169627Y286355D01*
X169702Y286288D01*
X169767Y286252D01*
X169827Y286207D01*
X169919Y286168D01*
X170007Y286119D01*
X170078Y286099D01*
X170147Y286069D01*
X170245Y286052D01*
X170342Y286024D01*
X170442Y286016D01*
X170490Y286008D01*
X170525Y286010D01*
X170586Y286005D01*
X206292Y286005D01*
X208719Y284999D01*
X216389Y277329D01*
X217395Y274902D01*
X217395Y273739D01*
X217409Y273613D01*
X217416Y273487D01*
X217429Y273440D01*
X217435Y273392D01*
X217477Y273273D01*
X217512Y273152D01*
X217536Y273110D01*
X217552Y273064D01*
X217621Y272958D01*
X217682Y272848D01*
X217722Y272802D01*
X217741Y272772D01*
X217776Y272738D01*
X217841Y272662D01*
X219855Y270648D01*
X219855Y253280D01*
X217474Y250899D01*
X211781Y250899D01*
X211681Y250888D01*
X211580Y250886D01*
X211508Y250868D01*
X211434Y250859D01*
X211340Y250825D01*
X211242Y250801D01*
X211176Y250767D01*
X211106Y250742D01*
X211022Y250687D01*
X210932Y250641D01*
X210876Y250593D01*
X210813Y250553D01*
X210744Y250481D01*
X210667Y250415D01*
X210623Y250356D01*
X210571Y250302D01*
X210520Y250216D01*
X210460Y250135D01*
X210430Y250067D01*
X210392Y250003D01*
X210362Y249908D01*
X210322Y249815D01*
X210309Y249742D01*
X210286Y249671D01*
X210278Y249571D01*
X210260Y249472D01*
X210264Y249398D01*
X210258Y249324D01*
X210273Y249224D01*
X210278Y249124D01*
X210299Y249053D01*
X210310Y248979D01*
X210347Y248886D01*
X210355Y248859D01*
X210355Y231280D01*
X208341Y229266D01*
X208262Y229167D01*
X208178Y229074D01*
X208154Y229031D01*
X208124Y228993D01*
X208070Y228879D01*
X208009Y228769D01*
X207996Y228722D01*
X207975Y228678D01*
X207949Y228555D01*
X207914Y228433D01*
X207909Y228372D01*
X207902Y228338D01*
X207903Y228290D01*
X207895Y228189D01*
X207895Y135128D01*
X207898Y135102D01*
X207896Y135076D01*
X207918Y134929D01*
X207935Y134782D01*
X207943Y134757D01*
X207947Y134731D01*
X208002Y134593D01*
X208052Y134454D01*
X208066Y134432D01*
X208076Y134407D01*
X208161Y134286D01*
X208241Y134161D01*
X208260Y134143D01*
X208275Y134121D01*
X208385Y134022D01*
X208492Y133919D01*
X208514Y133905D01*
X208534Y133888D01*
X208664Y133816D01*
X208791Y133740D01*
X208816Y133732D01*
X208839Y133719D01*
X208982Y133679D01*
X209123Y133634D01*
X209149Y133632D01*
X209174Y133624D01*
X209418Y133605D01*
X312476Y133605D01*
X314903Y132599D01*
X334533Y112969D01*
X334632Y112890D01*
X334726Y112806D01*
X334769Y112782D01*
X334806Y112752D01*
X334921Y112698D01*
X335031Y112637D01*
X335078Y112624D01*
X335122Y112603D01*
X335245Y112577D01*
X335367Y112542D01*
X335427Y112537D01*
X335462Y112530D01*
X335510Y112531D01*
X335611Y112523D01*
X347713Y112523D01*
X347764Y112528D01*
G37*
%LPC*%
G36*
X522318Y113537D02*
X522318Y113537D01*
X519937Y115918D01*
X519937Y138082D01*
X522318Y140463D01*
X524831Y140463D01*
X524876Y140468D01*
X524922Y140465D01*
X525049Y140488D01*
X525177Y140503D01*
X525220Y140518D01*
X525265Y140526D01*
X525383Y140577D01*
X525505Y140620D01*
X525543Y140645D01*
X525585Y140663D01*
X525689Y140739D01*
X525798Y140809D01*
X525830Y140842D01*
X525866Y140869D01*
X525950Y140967D01*
X526040Y141060D01*
X526064Y141099D01*
X526093Y141134D01*
X526153Y141248D01*
X526219Y141359D01*
X526233Y141402D01*
X526254Y141443D01*
X526286Y141568D01*
X526325Y141691D01*
X526329Y141736D01*
X526340Y141780D01*
X526343Y141910D01*
X526353Y142038D01*
X526346Y142083D01*
X526347Y142129D01*
X526321Y142255D01*
X526301Y142383D01*
X526285Y142425D01*
X526275Y142470D01*
X526220Y142587D01*
X526173Y142707D01*
X526147Y142744D01*
X526127Y142785D01*
X526047Y142887D01*
X525974Y142993D01*
X525940Y143023D01*
X525912Y143059D01*
X525726Y143218D01*
X525622Y143294D01*
X524294Y144622D01*
X523189Y146143D01*
X522336Y147817D01*
X521755Y149604D01*
X521715Y149861D01*
X532384Y149861D01*
X532410Y149864D01*
X532436Y149862D01*
X532583Y149884D01*
X532730Y149901D01*
X532755Y149909D01*
X532781Y149913D01*
X532918Y149968D01*
X533058Y150018D01*
X533080Y150032D01*
X533105Y150042D01*
X533226Y150127D01*
X533351Y150207D01*
X533369Y150226D01*
X533391Y150241D01*
X533405Y150257D01*
X533490Y150175D01*
X533513Y150161D01*
X533532Y150144D01*
X533662Y150072D01*
X533789Y149996D01*
X533814Y149988D01*
X533837Y149975D01*
X533980Y149935D01*
X534121Y149890D01*
X534147Y149887D01*
X534172Y149880D01*
X534416Y149861D01*
X545085Y149861D01*
X545045Y149604D01*
X544464Y147817D01*
X543611Y146143D01*
X542506Y144622D01*
X541178Y143294D01*
X541074Y143218D01*
X541040Y143188D01*
X541002Y143163D01*
X540912Y143070D01*
X540817Y142983D01*
X540792Y142945D01*
X540760Y142912D01*
X540694Y142801D01*
X540621Y142695D01*
X540604Y142652D01*
X540581Y142613D01*
X540542Y142490D01*
X540495Y142370D01*
X540489Y142325D01*
X540475Y142281D01*
X540464Y142153D01*
X540446Y142025D01*
X540451Y141979D01*
X540447Y141934D01*
X540466Y141806D01*
X540478Y141678D01*
X540492Y141634D01*
X540499Y141589D01*
X540546Y141469D01*
X540587Y141347D01*
X540610Y141308D01*
X540627Y141265D01*
X540701Y141159D01*
X540768Y141049D01*
X540800Y141017D01*
X540826Y140979D01*
X540922Y140893D01*
X541013Y140801D01*
X541051Y140776D01*
X541085Y140746D01*
X541198Y140683D01*
X541307Y140614D01*
X541350Y140599D01*
X541390Y140577D01*
X541514Y140542D01*
X541636Y140500D01*
X541682Y140495D01*
X541725Y140482D01*
X541969Y140463D01*
X544482Y140463D01*
X546863Y138082D01*
X546863Y115918D01*
X544482Y113537D01*
X522318Y113537D01*
G37*
%LPD*%
G36*
X279452Y402245D02*
X279452Y402245D01*
X279600Y402248D01*
X279626Y402254D01*
X279652Y402256D01*
X279794Y402297D01*
X279938Y402333D01*
X279961Y402345D01*
X279987Y402352D01*
X280116Y402424D01*
X280248Y402492D01*
X280268Y402509D01*
X280291Y402522D01*
X280477Y402681D01*
X286065Y408269D01*
X286144Y408368D01*
X286228Y408462D01*
X286252Y408504D01*
X286282Y408542D01*
X286336Y408656D01*
X286397Y408767D01*
X286410Y408813D01*
X286431Y408857D01*
X286457Y408980D01*
X286492Y409102D01*
X286497Y409163D01*
X286504Y409198D01*
X286503Y409246D01*
X286511Y409346D01*
X286511Y431225D01*
X286503Y431301D01*
X286504Y431378D01*
X286483Y431474D01*
X286471Y431571D01*
X286446Y431643D01*
X286429Y431718D01*
X286387Y431807D01*
X286354Y431899D01*
X286312Y431964D01*
X286280Y432033D01*
X286218Y432110D01*
X286165Y432192D01*
X286110Y432245D01*
X286062Y432305D01*
X285985Y432366D01*
X285914Y432434D01*
X285849Y432474D01*
X285789Y432521D01*
X285656Y432589D01*
X285615Y432613D01*
X285597Y432619D01*
X285571Y432632D01*
X284474Y433087D01*
X280477Y437084D01*
X280457Y437100D01*
X280440Y437120D01*
X280320Y437208D01*
X280204Y437300D01*
X280180Y437312D01*
X280159Y437327D01*
X280023Y437386D01*
X279889Y437449D01*
X279863Y437455D01*
X279839Y437465D01*
X279693Y437491D01*
X279548Y437523D01*
X279522Y437522D01*
X279496Y437527D01*
X279348Y437519D01*
X279200Y437517D01*
X279174Y437510D01*
X279148Y437509D01*
X279006Y437468D01*
X278862Y437432D01*
X278839Y437420D01*
X278813Y437412D01*
X278684Y437340D01*
X278552Y437272D01*
X278532Y437255D01*
X278509Y437242D01*
X278323Y437084D01*
X274326Y433087D01*
X273229Y432632D01*
X273162Y432595D01*
X273091Y432567D01*
X273010Y432511D01*
X272924Y432463D01*
X272868Y432412D01*
X272805Y432368D01*
X272739Y432295D01*
X272666Y432229D01*
X272623Y432166D01*
X272572Y432109D01*
X272524Y432023D01*
X272468Y431942D01*
X272440Y431871D01*
X272403Y431804D01*
X272376Y431710D01*
X272340Y431618D01*
X272329Y431543D01*
X272308Y431469D01*
X272296Y431320D01*
X272289Y431273D01*
X272291Y431254D01*
X272289Y431225D01*
X272289Y409346D01*
X272303Y409220D01*
X272310Y409094D01*
X272323Y409048D01*
X272329Y409000D01*
X272371Y408881D01*
X272406Y408759D01*
X272430Y408717D01*
X272446Y408672D01*
X272515Y408565D01*
X272576Y408455D01*
X272616Y408409D01*
X272635Y408379D01*
X272670Y408345D01*
X272735Y408269D01*
X278323Y402681D01*
X278343Y402664D01*
X278360Y402644D01*
X278480Y402556D01*
X278596Y402464D01*
X278620Y402453D01*
X278641Y402437D01*
X278777Y402379D01*
X278911Y402315D01*
X278937Y402310D01*
X278961Y402299D01*
X279107Y402273D01*
X279252Y402242D01*
X279278Y402242D01*
X279304Y402238D01*
X279452Y402245D01*
G37*
%LPC*%
G36*
X535939Y154939D02*
X535939Y154939D01*
X535939Y175261D01*
X545085Y175261D01*
X545045Y175004D01*
X544464Y173217D01*
X543611Y171543D01*
X542506Y170022D01*
X541178Y168694D01*
X539657Y167589D01*
X537983Y166736D01*
X537407Y166549D01*
X537365Y166530D01*
X537321Y166518D01*
X537207Y166457D01*
X537090Y166404D01*
X537054Y166376D01*
X537013Y166355D01*
X536916Y166270D01*
X536814Y166191D01*
X536785Y166155D01*
X536751Y166125D01*
X536676Y166021D01*
X536594Y165920D01*
X536574Y165879D01*
X536547Y165842D01*
X536498Y165723D01*
X536441Y165607D01*
X536431Y165563D01*
X536413Y165521D01*
X536392Y165393D01*
X536363Y165267D01*
X536363Y165222D01*
X536356Y165177D01*
X536364Y165048D01*
X536365Y164919D01*
X536375Y164875D01*
X536378Y164829D01*
X536416Y164706D01*
X536446Y164580D01*
X536466Y164539D01*
X536479Y164496D01*
X536543Y164384D01*
X536601Y164268D01*
X536630Y164233D01*
X536653Y164194D01*
X536741Y164099D01*
X536824Y164000D01*
X536860Y163972D01*
X536891Y163939D01*
X536999Y163867D01*
X537101Y163789D01*
X537143Y163771D01*
X537181Y163745D01*
X537407Y163651D01*
X537983Y163464D01*
X539657Y162611D01*
X541178Y161506D01*
X542506Y160178D01*
X543611Y158657D01*
X544464Y156983D01*
X545045Y155196D01*
X545085Y154939D01*
X535939Y154939D01*
G37*
%LPD*%
%LPC*%
G36*
X78739Y154939D02*
X78739Y154939D01*
X78739Y175261D01*
X87885Y175261D01*
X87845Y175004D01*
X87264Y173217D01*
X86411Y171543D01*
X85306Y170022D01*
X83978Y168694D01*
X82457Y167589D01*
X80783Y166736D01*
X80207Y166549D01*
X80165Y166530D01*
X80121Y166518D01*
X80007Y166457D01*
X79890Y166404D01*
X79854Y166376D01*
X79813Y166355D01*
X79716Y166270D01*
X79614Y166191D01*
X79585Y166155D01*
X79551Y166125D01*
X79476Y166021D01*
X79394Y165920D01*
X79374Y165879D01*
X79347Y165842D01*
X79298Y165723D01*
X79241Y165607D01*
X79231Y165563D01*
X79213Y165521D01*
X79192Y165393D01*
X79163Y165267D01*
X79163Y165222D01*
X79156Y165177D01*
X79164Y165048D01*
X79165Y164919D01*
X79175Y164875D01*
X79178Y164829D01*
X79216Y164706D01*
X79246Y164580D01*
X79266Y164539D01*
X79279Y164496D01*
X79343Y164384D01*
X79401Y164268D01*
X79430Y164233D01*
X79453Y164194D01*
X79541Y164099D01*
X79624Y164000D01*
X79660Y163972D01*
X79691Y163939D01*
X79799Y163867D01*
X79901Y163789D01*
X79943Y163771D01*
X79981Y163745D01*
X80207Y163651D01*
X80783Y163464D01*
X82457Y162611D01*
X83978Y161506D01*
X85306Y160178D01*
X86411Y158657D01*
X87264Y156983D01*
X87845Y155196D01*
X87885Y154939D01*
X78739Y154939D01*
G37*
%LPD*%
%LPC*%
G36*
X521715Y154939D02*
X521715Y154939D01*
X521755Y155196D01*
X522336Y156983D01*
X523189Y158657D01*
X524294Y160178D01*
X525622Y161506D01*
X527143Y162611D01*
X528817Y163464D01*
X529393Y163651D01*
X529435Y163670D01*
X529479Y163682D01*
X529593Y163742D01*
X529710Y163796D01*
X529746Y163824D01*
X529787Y163845D01*
X529884Y163930D01*
X529986Y164009D01*
X530015Y164045D01*
X530049Y164075D01*
X530125Y164179D01*
X530206Y164280D01*
X530226Y164321D01*
X530253Y164357D01*
X530302Y164476D01*
X530359Y164593D01*
X530369Y164637D01*
X530387Y164679D01*
X530408Y164807D01*
X530437Y164932D01*
X530437Y164978D01*
X530444Y165023D01*
X530436Y165152D01*
X530435Y165281D01*
X530425Y165325D01*
X530422Y165371D01*
X530384Y165494D01*
X530354Y165620D01*
X530334Y165661D01*
X530321Y165704D01*
X530256Y165816D01*
X530199Y165932D01*
X530170Y165967D01*
X530147Y166006D01*
X530059Y166101D01*
X529976Y166200D01*
X529940Y166228D01*
X529909Y166261D01*
X529802Y166333D01*
X529699Y166411D01*
X529657Y166429D01*
X529619Y166455D01*
X529393Y166549D01*
X528817Y166736D01*
X527143Y167589D01*
X525622Y168694D01*
X524294Y170022D01*
X523189Y171543D01*
X522336Y173217D01*
X521755Y175004D01*
X521715Y175261D01*
X530861Y175261D01*
X530861Y154939D01*
X521715Y154939D01*
G37*
%LPD*%
%LPC*%
G36*
X64515Y154939D02*
X64515Y154939D01*
X64555Y155196D01*
X65136Y156983D01*
X65989Y158657D01*
X67094Y160178D01*
X68422Y161506D01*
X69943Y162611D01*
X71617Y163464D01*
X72193Y163651D01*
X72235Y163670D01*
X72279Y163682D01*
X72393Y163742D01*
X72510Y163796D01*
X72546Y163824D01*
X72587Y163845D01*
X72684Y163930D01*
X72786Y164009D01*
X72815Y164045D01*
X72849Y164075D01*
X72925Y164179D01*
X73006Y164280D01*
X73026Y164321D01*
X73053Y164357D01*
X73102Y164476D01*
X73159Y164593D01*
X73169Y164637D01*
X73187Y164679D01*
X73208Y164807D01*
X73237Y164932D01*
X73237Y164978D01*
X73244Y165023D01*
X73236Y165152D01*
X73235Y165281D01*
X73225Y165325D01*
X73222Y165371D01*
X73184Y165494D01*
X73154Y165620D01*
X73134Y165661D01*
X73121Y165704D01*
X73056Y165816D01*
X72999Y165932D01*
X72970Y165967D01*
X72947Y166006D01*
X72859Y166101D01*
X72776Y166200D01*
X72740Y166228D01*
X72709Y166261D01*
X72602Y166333D01*
X72499Y166411D01*
X72457Y166429D01*
X72419Y166455D01*
X72193Y166549D01*
X71617Y166736D01*
X69943Y167589D01*
X68422Y168694D01*
X67094Y170022D01*
X65989Y171543D01*
X65136Y173217D01*
X64555Y175004D01*
X64515Y175261D01*
X73661Y175261D01*
X73661Y154939D01*
X64515Y154939D01*
G37*
%LPD*%
%LPC*%
G36*
X116839Y541019D02*
X116839Y541019D01*
X116839Y550165D01*
X117096Y550125D01*
X118883Y549544D01*
X120557Y548691D01*
X122078Y547586D01*
X123406Y546258D01*
X124511Y544737D01*
X125364Y543063D01*
X125945Y541276D01*
X125985Y541019D01*
X116839Y541019D01*
G37*
%LPD*%
%LPC*%
G36*
X245199Y200031D02*
X245199Y200031D01*
X245199Y209177D01*
X245456Y209137D01*
X247243Y208556D01*
X248917Y207703D01*
X250438Y206598D01*
X251766Y205270D01*
X252871Y203749D01*
X253724Y202075D01*
X254305Y200288D01*
X254345Y200031D01*
X245199Y200031D01*
G37*
%LPD*%
%LPC*%
G36*
X78739Y180339D02*
X78739Y180339D01*
X78739Y189485D01*
X78996Y189445D01*
X80783Y188864D01*
X82457Y188011D01*
X83978Y186906D01*
X85306Y185578D01*
X86411Y184057D01*
X87264Y182383D01*
X87845Y180596D01*
X87885Y180339D01*
X78739Y180339D01*
G37*
%LPD*%
%LPC*%
G36*
X535939Y180339D02*
X535939Y180339D01*
X535939Y189485D01*
X536196Y189445D01*
X537983Y188864D01*
X539657Y188011D01*
X541178Y186906D01*
X542506Y185578D01*
X543611Y184057D01*
X544464Y182383D01*
X545045Y180596D01*
X545085Y180339D01*
X535939Y180339D01*
G37*
%LPD*%
%LPC*%
G36*
X229869Y64312D02*
X229869Y64312D01*
X229869Y73458D01*
X230126Y73418D01*
X231913Y72837D01*
X233587Y71984D01*
X235108Y70879D01*
X236436Y69550D01*
X237541Y68030D01*
X238394Y66356D01*
X238975Y64569D01*
X239015Y64312D01*
X229869Y64312D01*
G37*
%LPD*%
%LPC*%
G36*
X116839Y535941D02*
X116839Y535941D01*
X125985Y535941D01*
X125945Y535684D01*
X125364Y533897D01*
X124511Y532223D01*
X123406Y530702D01*
X122078Y529374D01*
X120557Y528269D01*
X118883Y527416D01*
X117096Y526835D01*
X116839Y526795D01*
X116839Y535941D01*
G37*
%LPD*%
%LPC*%
G36*
X230975Y200031D02*
X230975Y200031D01*
X231015Y200288D01*
X231596Y202075D01*
X232449Y203749D01*
X233554Y205270D01*
X234882Y206598D01*
X236403Y207703D01*
X238077Y208556D01*
X239864Y209137D01*
X240121Y209177D01*
X240121Y200031D01*
X230975Y200031D01*
G37*
%LPD*%
%LPC*%
G36*
X245199Y194953D02*
X245199Y194953D01*
X254345Y194953D01*
X254305Y194696D01*
X253724Y192909D01*
X252871Y191235D01*
X251766Y189714D01*
X250438Y188386D01*
X248917Y187281D01*
X247243Y186428D01*
X245456Y185847D01*
X245199Y185807D01*
X245199Y194953D01*
G37*
%LPD*%
%LPC*%
G36*
X64515Y180339D02*
X64515Y180339D01*
X64555Y180596D01*
X65136Y182383D01*
X65989Y184057D01*
X67094Y185578D01*
X68422Y186906D01*
X69943Y188011D01*
X71617Y188864D01*
X73404Y189445D01*
X73661Y189485D01*
X73661Y180339D01*
X64515Y180339D01*
G37*
%LPD*%
%LPC*%
G36*
X521715Y180339D02*
X521715Y180339D01*
X521755Y180596D01*
X522336Y182383D01*
X523189Y184057D01*
X524294Y185578D01*
X525622Y186906D01*
X527143Y188011D01*
X528817Y188864D01*
X530604Y189445D01*
X530861Y189485D01*
X530861Y180339D01*
X521715Y180339D01*
G37*
%LPD*%
%LPC*%
G36*
X434339Y137161D02*
X434339Y137161D01*
X443485Y137161D01*
X443445Y136904D01*
X442864Y135117D01*
X442011Y133443D01*
X440906Y131922D01*
X439578Y130594D01*
X438057Y129489D01*
X436383Y128636D01*
X434596Y128055D01*
X434339Y128015D01*
X434339Y137161D01*
G37*
%LPD*%
%LPC*%
G36*
X215645Y64312D02*
X215645Y64312D01*
X215685Y64569D01*
X216266Y66356D01*
X217119Y68030D01*
X218224Y69550D01*
X219552Y70879D01*
X221073Y71984D01*
X222747Y72837D01*
X224534Y73418D01*
X224791Y73458D01*
X224791Y64312D01*
X215645Y64312D01*
G37*
%LPD*%
%LPC*%
G36*
X239864Y185847D02*
X239864Y185847D01*
X238077Y186428D01*
X236403Y187281D01*
X234882Y188386D01*
X233554Y189714D01*
X232449Y191235D01*
X231596Y192909D01*
X231015Y194696D01*
X230975Y194953D01*
X240121Y194953D01*
X240121Y185807D01*
X239864Y185847D01*
G37*
%LPD*%
%LPC*%
G36*
X429004Y128055D02*
X429004Y128055D01*
X427217Y128636D01*
X425543Y129489D01*
X424022Y130594D01*
X422694Y131922D01*
X421589Y133443D01*
X420736Y135117D01*
X420155Y136904D01*
X420115Y137161D01*
X429261Y137161D01*
X429261Y128015D01*
X429004Y128055D01*
G37*
%LPD*%
%LPC*%
G36*
X235950Y382593D02*
X235950Y382593D01*
X235950Y389134D01*
X238286Y389134D01*
X238932Y388961D01*
X239511Y388627D01*
X239984Y388154D01*
X240319Y387574D01*
X240492Y386928D01*
X240492Y382593D01*
X235950Y382593D01*
G37*
%LPD*%
%LPC*%
G36*
X235645Y338067D02*
X235645Y338067D01*
X235645Y344608D01*
X237981Y344608D01*
X238627Y344435D01*
X239206Y344100D01*
X239679Y343627D01*
X240014Y343048D01*
X240187Y342402D01*
X240187Y338067D01*
X235645Y338067D01*
G37*
%LPD*%
%LPC*%
G36*
X227410Y382593D02*
X227410Y382593D01*
X227410Y386928D01*
X227583Y387574D01*
X227918Y388154D01*
X228391Y388627D01*
X228970Y388961D01*
X229616Y389134D01*
X231952Y389134D01*
X231952Y382593D01*
X227410Y382593D01*
G37*
%LPD*%
%LPC*%
G36*
X235950Y372053D02*
X235950Y372053D01*
X235950Y378594D01*
X240492Y378594D01*
X240492Y374259D01*
X240319Y373613D01*
X239984Y373034D01*
X239511Y372561D01*
X238932Y372226D01*
X238286Y372053D01*
X235950Y372053D01*
G37*
%LPD*%
%LPC*%
G36*
X235645Y327527D02*
X235645Y327527D01*
X235645Y334068D01*
X240187Y334068D01*
X240187Y329733D01*
X240014Y329087D01*
X239679Y328507D01*
X239206Y328034D01*
X238627Y327700D01*
X237981Y327527D01*
X235645Y327527D01*
G37*
%LPD*%
%LPC*%
G36*
X229616Y372053D02*
X229616Y372053D01*
X228970Y372226D01*
X228391Y372561D01*
X227918Y373034D01*
X227583Y373613D01*
X227410Y374259D01*
X227410Y378594D01*
X231952Y378594D01*
X231952Y372053D01*
X229616Y372053D01*
G37*
%LPD*%
%LPC*%
G36*
X229312Y327527D02*
X229312Y327527D01*
X228666Y327700D01*
X228086Y328034D01*
X227613Y328507D01*
X227279Y329087D01*
X227105Y329733D01*
X227105Y334068D01*
X231647Y334068D01*
X231647Y327527D01*
X229312Y327527D01*
G37*
%LPD*%
D10*
X76200Y457200D03*
D11*
X76200Y431800D03*
X76200Y406400D03*
X76200Y381000D03*
X76200Y355600D03*
X76200Y330200D03*
X76200Y304800D03*
X76200Y279400D03*
X76200Y254000D03*
X76200Y228600D03*
X533400Y431800D03*
X533400Y406400D03*
X533400Y381000D03*
X533400Y355600D03*
X533400Y330200D03*
X533400Y304800D03*
X533400Y279400D03*
X533400Y254000D03*
X533400Y457200D03*
X533400Y228600D03*
X101600Y431800D03*
X101600Y406400D03*
X101600Y381000D03*
X101600Y355600D03*
X101600Y330200D03*
X101600Y304800D03*
X101600Y279400D03*
X101600Y254000D03*
X101600Y228600D03*
X101600Y457200D03*
X508000Y431800D03*
X508000Y406400D03*
X508000Y381000D03*
X508000Y355600D03*
X508000Y330200D03*
X508000Y304800D03*
X508000Y279400D03*
X508000Y254000D03*
X508000Y457200D03*
X508000Y228600D03*
D10*
X533400Y127000D03*
D11*
X533400Y152400D03*
X533400Y177800D03*
D10*
X76200Y127000D03*
D11*
X76200Y152400D03*
X76200Y177800D03*
X266700Y444500D03*
X292100Y444500D03*
D12*
X398272Y381000D03*
X406400Y381000D03*
X414528Y381000D03*
D13*
X397900Y330200D03*
X414900Y330200D03*
X397900Y304800D03*
X414900Y304800D03*
D14*
X288800Y336550D03*
X288800Y380550D03*
X283800Y380550D03*
X283800Y336550D03*
X278800Y336550D03*
X273800Y336550D03*
X268800Y336550D03*
X278800Y380550D03*
X273800Y380550D03*
X268800Y380550D03*
D11*
X431800Y215900D03*
X431800Y190500D03*
X431800Y165100D03*
X431800Y139700D03*
X38100Y538480D03*
X63500Y538480D03*
X88900Y538480D03*
X114300Y538480D03*
X355600Y152400D03*
X355600Y127000D03*
X227330Y61773D03*
X227330Y36373D03*
X74930Y35560D03*
X74930Y60960D03*
X74930Y86360D03*
X166660Y197492D03*
X242660Y197492D03*
D15*
X201290Y239964D03*
X191790Y261964D03*
X210790Y261964D03*
D16*
X251646Y336067D03*
X233646Y336067D03*
X251951Y380594D03*
X233951Y380594D03*
D17*
X402710Y369062D02*
X407035Y373388D01*
X402710Y369062D02*
X391295Y369062D01*
X406400Y381000D02*
X407035Y380365D01*
X407035Y373388D01*
X391295Y369062D02*
X379817Y380540D01*
X288810Y380540D01*
X288800Y380550D01*
X268800Y380550D02*
X268800Y370010D01*
X270510Y368300D01*
X288800Y370080D02*
X288800Y380550D01*
X288800Y370080D02*
X287020Y368300D01*
X270510Y368300D01*
D18*
X231117Y411021D03*
D17*
X251951Y390186D01*
X251951Y380594D01*
X251995Y380550D02*
X268800Y380550D01*
X251995Y380550D02*
X251951Y380594D01*
D19*
X201295Y127000D02*
X311162Y127000D01*
X201295Y127000D02*
X76200Y127000D01*
X311162Y127000D02*
X332244Y105918D01*
X398780Y144780D02*
X419100Y165100D01*
X88900Y482600D02*
X88900Y538480D01*
X101600Y469900D02*
X101600Y457200D01*
X101600Y469900D02*
X88900Y482600D01*
X74930Y60960D02*
X62230Y60960D01*
X57150Y66040D01*
X57150Y118110D02*
X66040Y127000D01*
X76200Y127000D01*
X57150Y118110D02*
X57150Y66040D01*
X419100Y165100D02*
X431800Y165100D01*
X398780Y144780D02*
X398780Y124460D01*
X380238Y105918D02*
X332244Y105918D01*
X380238Y105918D02*
X398780Y124460D01*
X201290Y127005D02*
X201290Y239964D01*
X201290Y127005D02*
X201295Y127000D01*
D17*
X63500Y513080D02*
X63500Y538480D01*
X63500Y513080D02*
X50800Y500380D01*
X50800Y419100D01*
X63500Y406400D01*
X76200Y406400D01*
X38100Y406400D02*
X38100Y538480D01*
X63500Y381000D02*
X76200Y381000D01*
X63500Y381000D02*
X38100Y406400D01*
X88900Y292100D02*
X76200Y279400D01*
X88900Y292100D02*
X165100Y292100D01*
X228600Y355600D01*
X279400Y355600D01*
X288824Y346176D01*
X288800Y346152D02*
X288800Y336550D01*
X288800Y346152D02*
X288824Y346176D01*
D19*
X210790Y273588D02*
X210790Y261964D01*
X210790Y273588D02*
X204978Y279400D01*
X101600Y279400D01*
D17*
X381000Y406400D02*
X508000Y406400D01*
X381000Y406400D02*
X368300Y393700D01*
D18*
X368300Y393700D03*
X368300Y368300D03*
D17*
X368300Y342900D01*
X342900Y317500D01*
X292100Y317500D01*
X283800Y325800D01*
X283800Y336550D01*
X431800Y228600D02*
X431800Y215900D01*
X431800Y228600D02*
X508000Y304800D01*
X402980Y317500D02*
X397900Y322580D01*
X397900Y330200D01*
X492685Y342646D02*
X520775Y342646D01*
X492685Y342646D02*
X467539Y317500D01*
X520775Y342646D02*
X533221Y330200D01*
X533400Y330200D01*
X467539Y317500D02*
X402980Y317500D01*
X294016Y309118D02*
X278800Y324334D01*
X278800Y336550D01*
X384438Y309118D02*
X397900Y322580D01*
X384438Y309118D02*
X294016Y309118D01*
X397900Y298060D02*
X403860Y292100D01*
X397900Y298060D02*
X397900Y304800D01*
X403860Y292100D02*
X469900Y292100D01*
X495300Y317500D01*
X520700Y317500D01*
X533400Y304800D01*
X291868Y304800D02*
X273800Y322868D01*
X273800Y336550D01*
X291868Y304800D02*
X397900Y304800D01*
X414900Y330200D02*
X414900Y380628D01*
X414528Y381000D01*
X414900Y304800D02*
X443967Y304800D01*
D18*
X443967Y304800D03*
X444017Y331800D03*
D17*
X421506Y392938D02*
X400558Y392938D01*
X397637Y390017D01*
X397637Y381635D01*
X398272Y381000D01*
X444017Y370426D02*
X444017Y331800D01*
X444017Y370426D02*
X421506Y392938D01*
X268800Y336550D02*
X268317Y336067D01*
X251646Y336067D01*
X273800Y380550D02*
X273800Y399300D01*
X266700Y406400D01*
X266700Y444500D01*
X283800Y398100D02*
X283800Y380550D01*
X283800Y398100D02*
X292100Y406400D01*
X292100Y444500D01*
X409787Y190500D02*
X431800Y190500D01*
X409787Y190500D02*
X384387Y152400D01*
X355600Y152400D01*
X278800Y380550D02*
X278800Y413420D01*
X279400Y414020D01*
D18*
X279400Y414020D03*
D19*
X227330Y36373D02*
X75743Y36373D01*
X74930Y35560D01*
X177382Y261964D02*
X191790Y261964D01*
X177382Y261964D02*
X166624Y251206D01*
X166660Y251170D02*
X166660Y197492D01*
X166660Y251170D02*
X166624Y251206D01*
M02*
