G04 EAGLE Gerber RS-274X export*
G75*
%MOMM*%
%FSLAX34Y34*%
%LPD*%
%INSoldermask Top*%
%IPPOS*%
%AMOC8*
5,1,8,0,0,1.08239X$1,22.5*%
G01*
%ADD10R,2.082800X2.082800*%
%ADD11C,2.082800*%
%ADD12R,0.838200X1.473200*%
%ADD13R,1.303200X1.203200*%
%ADD14R,0.503200X1.653200*%
%ADD15R,1.203200X1.603200*%
%ADD16R,1.003200X1.403200*%
%ADD17C,1.209600*%


D10*
X76200Y457200D03*
D11*
X76200Y431800D03*
X76200Y406400D03*
X76200Y381000D03*
X76200Y355600D03*
X76200Y330200D03*
X76200Y304800D03*
X76200Y279400D03*
X76200Y254000D03*
X76200Y228600D03*
X533400Y431800D03*
X533400Y406400D03*
X533400Y381000D03*
X533400Y355600D03*
X533400Y330200D03*
X533400Y304800D03*
X533400Y279400D03*
X533400Y254000D03*
X533400Y457200D03*
X533400Y228600D03*
X101600Y431800D03*
X101600Y406400D03*
X101600Y381000D03*
X101600Y355600D03*
X101600Y330200D03*
X101600Y304800D03*
X101600Y279400D03*
X101600Y254000D03*
X101600Y228600D03*
X101600Y457200D03*
X508000Y431800D03*
X508000Y406400D03*
X508000Y381000D03*
X508000Y355600D03*
X508000Y330200D03*
X508000Y304800D03*
X508000Y279400D03*
X508000Y254000D03*
X508000Y457200D03*
X508000Y228600D03*
D10*
X533400Y127000D03*
D11*
X533400Y152400D03*
X533400Y177800D03*
D10*
X76200Y127000D03*
D11*
X76200Y152400D03*
X76200Y177800D03*
X266700Y444500D03*
X292100Y444500D03*
D12*
X398272Y381000D03*
X406400Y381000D03*
X414528Y381000D03*
D13*
X397900Y330200D03*
X414900Y330200D03*
X397900Y304800D03*
X414900Y304800D03*
D14*
X288800Y336550D03*
X288800Y380550D03*
X283800Y380550D03*
X283800Y336550D03*
X278800Y336550D03*
X273800Y336550D03*
X268800Y336550D03*
X278800Y380550D03*
X273800Y380550D03*
X268800Y380550D03*
D11*
X431800Y215900D03*
X431800Y190500D03*
X431800Y165100D03*
X431800Y139700D03*
X38100Y538480D03*
X63500Y538480D03*
X88900Y538480D03*
X114300Y538480D03*
X355600Y152400D03*
X355600Y127000D03*
X227330Y61773D03*
X227330Y36373D03*
X74930Y35560D03*
X74930Y60960D03*
X74930Y86360D03*
X166660Y197492D03*
X242660Y197492D03*
D15*
X201290Y239964D03*
X191790Y261964D03*
X210790Y261964D03*
D16*
X251646Y336067D03*
X233646Y336067D03*
X251951Y380594D03*
X233951Y380594D03*
D17*
X231117Y411021D03*
X368300Y393700D03*
X368300Y368300D03*
X443967Y304800D03*
X444017Y331800D03*
X279400Y414020D03*
M02*
